Track 0: Elvira Madigan
<meta message time_signature numerator=4 denominator=4 clocks_per_click=24 notated_32nd_notes_per_beat=8 time=0>
<meta message key_signature key='F' time=0>
<meta message set_tempo tempo=1034482 time=0>
<meta message track_name name=u'Elvira Madigan' time=0>
<meta message set_tempo tempo=1052631 time=21674>
<meta message set_tempo tempo=1071427 time=427>
<meta message set_tempo tempo=1052631 time=427>
<meta message set_tempo tempo=1034482 time=1023>
<meta message set_tempo tempo=1034482 time=20481>
<meta message set_tempo tempo=952379 time=1024>
<meta message set_tempo tempo=967740 time=1024>
<meta message set_tempo tempo=952379 time=768>
<meta message set_tempo tempo=967740 time=768>
<meta message set_tempo tempo=952379 time=682>
<meta message set_tempo tempo=967740 time=854>
<meta message set_tempo tempo=952379 time=1024>
<meta message set_tempo tempo=952379 time=12288>
<meta message set_tempo tempo=937500 time=1024>
<meta message set_tempo tempo=967740 time=3072>
<meta message set_tempo tempo=1016949 time=6144>
<meta message set_tempo tempo=1052631 time=448>
<meta message set_tempo tempo=1000000 time=576>
<meta message set_tempo tempo=967740 time=27136>
<meta message set_tempo tempo=983606 time=2304>
<meta message set_tempo tempo=1000000 time=768>
<meta message set_tempo tempo=1016949 time=341>
<meta message set_tempo tempo=1034482 time=299>
<meta message set_tempo tempo=1090909 time=298>
<meta message set_tempo tempo=1153845 time=342>
<meta message set_tempo tempo=2400000 time=256>
<meta message time_signature numerator=5 denominator=4 clocks_per_click=24 notated_32nd_notes_per_beat=8 time=0>
<meta message set_tempo tempo=750000 time=256>
<meta message end_of_track time=1>
Track 1: Piano
program_change channel=0 program=0 time=0
control_change channel=0 control=121 value=0 time=0
control_change channel=0 control=64 value=0 time=0
control_change channel=0 control=10 value=74 time=0
control_change channel=0 control=7 value=83 time=0
control_change channel=0 control=121 value=0 time=0
control_change channel=0 control=64 value=0 time=0
control_change channel=0 control=10 value=54 time=0
control_change channel=0 control=7 value=83 time=0
<meta message track_name name=u'Piano' time=0>
note_on channel=0 note=53 velocity=39 time=0
note_on channel=0 note=41 velocity=46 time=0
note_off channel=0 note=53 velocity=0 time=85
note_on channel=0 note=53 velocity=43 time=0
note_off channel=0 note=41 velocity=0 time=43
note_off channel=0 note=53 velocity=0 time=42
note_on channel=0 note=53 velocity=44 time=0
note_off channel=0 note=53 velocity=0 time=86
note_on channel=0 note=53 velocity=44 time=0
note_on channel=0 note=45 velocity=44 time=0
note_off channel=0 note=53 velocity=0 time=85
note_on channel=0 note=53 velocity=44 time=0
note_off channel=0 note=45 velocity=0 time=43
note_off channel=0 note=53 velocity=0 time=42
note_on channel=0 note=53 velocity=42 time=0
note_off channel=0 note=53 velocity=0 time=86
note_on channel=0 note=53 velocity=44 time=0
note_on channel=0 note=48 velocity=47 time=0
note_off channel=0 note=53 velocity=0 time=85
note_on channel=0 note=53 velocity=41 time=0
note_off channel=0 note=48 velocity=0 time=43
note_off channel=0 note=53 velocity=0 time=42
note_on channel=0 note=53 velocity=44 time=0
note_off channel=0 note=53 velocity=0 time=86
note_on channel=0 note=53 velocity=43 time=0
note_off channel=0 note=53 velocity=0 time=85
note_on channel=0 note=53 velocity=42 time=0
note_off channel=0 note=53 velocity=0 time=85
note_on channel=0 note=53 velocity=40 time=0
note_on channel=0 note=77 velocity=62 time=86
note_off channel=0 note=53 velocity=0 time=0
note_on channel=0 note=53 velocity=43 time=0
note_on channel=0 note=41 velocity=46 time=0
note_off channel=0 note=53 velocity=0 time=85
note_on channel=0 note=53 velocity=43 time=0
note_off channel=0 note=41 velocity=0 time=43
note_off channel=0 note=53 velocity=0 time=42
note_on channel=0 note=53 velocity=44 time=0
note_off channel=0 note=53 velocity=0 time=86
note_on channel=0 note=53 velocity=44 time=0
note_on channel=0 note=45 velocity=44 time=0
note_off channel=0 note=53 velocity=0 time=85
note_on channel=0 note=53 velocity=42 time=0
note_off channel=0 note=45 velocity=0 time=43
note_off channel=0 note=53 velocity=0 time=42
note_on channel=0 note=53 velocity=41 time=0
note_on channel=0 note=72 velocity=59 time=22
note_off channel=0 note=77 velocity=0 time=8
note_off channel=0 note=72 velocity=0 time=52
note_on channel=0 note=81 velocity=74 time=4
note_off channel=0 note=53 velocity=0 time=0
note_on channel=0 note=53 velocity=43 time=0
note_on channel=0 note=48 velocity=44 time=0
note_off channel=0 note=53 velocity=0 time=85
note_on channel=0 note=53 velocity=44 time=0
note_off channel=0 note=48 velocity=0 time=43
note_off channel=0 note=53 velocity=0 time=42
note_on channel=0 note=53 velocity=43 time=0
note_off channel=0 note=53 velocity=0 time=86
note_on channel=0 note=53 velocity=42 time=0
note_off channel=0 note=53 velocity=0 time=85
note_on channel=0 note=53 velocity=43 time=0
note_off channel=0 note=53 velocity=0 time=85
note_on channel=0 note=53 velocity=42 time=0
note_on channel=0 note=77 velocity=71 time=22
note_off channel=0 note=81 velocity=0 time=8
note_off channel=0 note=77 velocity=0 time=52
note_on channel=0 note=84 velocity=76 time=4
note_off channel=0 note=53 velocity=0 time=0
note_on channel=0 note=53 velocity=44 time=0
note_on channel=0 note=41 velocity=44 time=0
note_off channel=0 note=53 velocity=0 time=85
note_on channel=0 note=53 velocity=44 time=0
note_off channel=0 note=41 velocity=0 time=43
note_off channel=0 note=53 velocity=0 time=42
note_on channel=0 note=53 velocity=44 time=0
note_off channel=0 note=53 velocity=0 time=86
note_on channel=0 note=53 velocity=43 time=0
note_on channel=0 note=45 velocity=46 time=0
note_off channel=0 note=53 velocity=0 time=85
note_on channel=0 note=53 velocity=44 time=0
note_off channel=0 note=45 velocity=0 time=43
note_off channel=0 note=53 velocity=0 time=42
note_on channel=0 note=53 velocity=43 time=0
note_off channel=0 note=53 velocity=0 time=86
note_on channel=0 note=53 velocity=42 time=0
note_on channel=0 note=48 velocity=43 time=0
note_off channel=0 note=53 velocity=0 time=85
note_on channel=0 note=53 velocity=42 time=0
note_off channel=0 note=48 velocity=0 time=43
note_off channel=0 note=53 velocity=0 time=42
note_on channel=0 note=53 velocity=43 time=0
note_off channel=0 note=84 velocity=0 time=86
note_on channel=0 note=82 velocity=67 time=0
note_off channel=0 note=53 velocity=0 time=0
note_on channel=0 note=53 velocity=42 time=0
note_on channel=0 note=41 velocity=45 time=0
note_on channel=0 note=81 velocity=66 time=64
note_off channel=0 note=82 velocity=0 time=1
note_off channel=0 note=53 velocity=0 time=20
note_on channel=0 note=53 velocity=43 time=0
note_on channel=0 note=79 velocity=66 time=43
note_off channel=0 note=41 velocity=0 time=0
note_off channel=0 note=81 velocity=0 time=1
note_off channel=0 note=53 velocity=0 time=41
note_on channel=0 note=53 velocity=44 time=0
note_on channel=0 note=77 velocity=64 time=22
note_off channel=0 note=79 velocity=0 time=1
note_off channel=0 note=77 velocity=0 time=59
note_on channel=0 note=78 velocity=70 time=4
note_off channel=0 note=53 velocity=0 time=0
note_on channel=0 note=58 velocity=45 time=0
note_on channel=0 note=60 velocity=45 time=0
note_on channel=0 note=48 velocity=44 time=0
note_off channel=0 note=58 velocity=0 time=85
note_off channel=0 note=60 velocity=0 time=0
note_on channel=0 note=58 velocity=44 time=0
note_on channel=0 note=60 velocity=44 time=0
note_off channel=0 note=48 velocity=0 time=43
note_off channel=0 note=58 velocity=0 time=42
note_off channel=0 note=60 velocity=0 time=0
note_on channel=0 note=58 velocity=43 time=0
note_on channel=0 note=60 velocity=43 time=0
note_on channel=0 note=79 velocity=70 time=86
note_off channel=0 note=58 velocity=0 time=0
note_off channel=0 note=60 velocity=0 time=0
note_on channel=0 note=58 velocity=42 time=0
note_on channel=0 note=60 velocity=42 time=0
note_on channel=0 note=52 velocity=47 time=0
note_off channel=0 note=78 velocity=0 time=5
note_off channel=0 note=58 velocity=0 time=80
note_off channel=0 note=60 velocity=0 time=0
note_on channel=0 note=58 velocity=44 time=0
note_on channel=0 note=60 velocity=44 time=0
note_off channel=0 note=52 velocity=0 time=43
note_off channel=0 note=58 velocity=0 time=42
note_off channel=0 note=60 velocity=0 time=0
note_on channel=0 note=58 velocity=43 time=0
note_on channel=0 note=60 velocity=43 time=0
note_off channel=0 note=79 velocity=0 time=73
note_off channel=0 note=58 velocity=0 time=13
note_off channel=0 note=60 velocity=0 time=0
note_on channel=0 note=58 velocity=45 time=0
note_on channel=0 note=60 velocity=45 time=0
note_on channel=0 note=55 velocity=46 time=0
note_off channel=0 note=58 velocity=0 time=85
note_off channel=0 note=60 velocity=0 time=0
note_on channel=0 note=58 velocity=44 time=0
note_on channel=0 note=60 velocity=44 time=0
note_off channel=0 note=55 velocity=0 time=43
note_off channel=0 note=58 velocity=0 time=42
note_off channel=0 note=60 velocity=0 time=0
note_on channel=0 note=58 velocity=44 time=0
note_on channel=0 note=60 velocity=44 time=0
note_off channel=0 note=58 velocity=0 time=86
note_off channel=0 note=60 velocity=0 time=0
note_on channel=0 note=58 velocity=44 time=0
note_on channel=0 note=60 velocity=44 time=0
note_off channel=0 note=58 velocity=0 time=85
note_off channel=0 note=60 velocity=0 time=0
note_on channel=0 note=58 velocity=42 time=0
note_on channel=0 note=60 velocity=42 time=0
note_off channel=0 note=58 velocity=0 time=85
note_off channel=0 note=60 velocity=0 time=0
note_on channel=0 note=58 velocity=42 time=0
note_on channel=0 note=60 velocity=42 time=0
note_on channel=0 note=72 velocity=60 time=86
note_off channel=0 note=58 velocity=0 time=0
note_off channel=0 note=60 velocity=0 time=0
note_on channel=0 note=58 velocity=44 time=0
note_on channel=0 note=60 velocity=44 time=0
note_on channel=0 note=48 velocity=44 time=0
note_off channel=0 note=58 velocity=0 time=85
note_off channel=0 note=60 velocity=0 time=0
note_on channel=0 note=58 velocity=43 time=0
note_on channel=0 note=60 velocity=43 time=0
note_off channel=0 note=48 velocity=0 time=43
note_off channel=0 note=58 velocity=0 time=42
note_off channel=0 note=60 velocity=0 time=0
note_on channel=0 note=58 velocity=44 time=0
note_on channel=0 note=60 velocity=44 time=0
note_off channel=0 note=58 velocity=0 time=86
note_off channel=0 note=60 velocity=0 time=0
note_on channel=0 note=58 velocity=43 time=0
note_on channel=0 note=60 velocity=43 time=0
note_on channel=0 note=52 velocity=44 time=0
note_off channel=0 note=58 velocity=0 time=85
note_off channel=0 note=60 velocity=0 time=0
note_on channel=0 note=58 velocity=42 time=0
note_on channel=0 note=60 velocity=42 time=0
note_off channel=0 note=52 velocity=0 time=43
note_off channel=0 note=58 velocity=0 time=42
note_off channel=0 note=60 velocity=0 time=0
note_on channel=0 note=58 velocity=44 time=0
note_on channel=0 note=60 velocity=44 time=0
note_on channel=0 note=76 velocity=62 time=86
note_off channel=0 note=58 velocity=0 time=0
note_off channel=0 note=60 velocity=0 time=0
note_on channel=0 note=58 velocity=44 time=0
note_on channel=0 note=60 velocity=44 time=0
note_on channel=0 note=55 velocity=46 time=0
note_off channel=0 note=72 velocity=0 time=10
note_off channel=0 note=58 velocity=0 time=75
note_off channel=0 note=60 velocity=0 time=0
note_on channel=0 note=58 velocity=42 time=0
note_on channel=0 note=60 velocity=42 time=0
note_off channel=0 note=55 velocity=0 time=43
note_off channel=0 note=58 velocity=0 time=42
note_off channel=0 note=60 velocity=0 time=0
note_on channel=0 note=58 velocity=42 time=0
note_on channel=0 note=60 velocity=42 time=0
note_on channel=0 note=79 velocity=71 time=86
note_off channel=0 note=58 velocity=0 time=0
note_off channel=0 note=60 velocity=0 time=0
note_on channel=0 note=58 velocity=41 time=0
note_on channel=0 note=60 velocity=41 time=0
note_off channel=0 note=76 velocity=0 time=5
note_off channel=0 note=58 velocity=0 time=80
note_off channel=0 note=60 velocity=0 time=0
note_on channel=0 note=58 velocity=46 time=0
note_on channel=0 note=60 velocity=46 time=0
note_off channel=0 note=58 velocity=0 time=85
note_off channel=0 note=60 velocity=0 time=0
note_on channel=0 note=58 velocity=43 time=0
note_on channel=0 note=60 velocity=43 time=0
note_off channel=0 note=79 velocity=0 time=73
note_on channel=0 note=82 velocity=72 time=13
note_off channel=0 note=58 velocity=0 time=0
note_off channel=0 note=60 velocity=0 time=0
note_on channel=0 note=58 velocity=42 time=0
note_on channel=0 note=60 velocity=42 time=0
note_on channel=0 note=48 velocity=45 time=0
note_off channel=0 note=58 velocity=0 time=85
note_off channel=0 note=60 velocity=0 time=0
note_on channel=0 note=58 velocity=42 time=0
note_on channel=0 note=60 velocity=42 time=0
note_off channel=0 note=48 velocity=0 time=43
note_off channel=0 note=58 velocity=0 time=42
note_off channel=0 note=60 velocity=0 time=0
note_on channel=0 note=58 velocity=42 time=0
note_on channel=0 note=60 velocity=42 time=0
note_off channel=0 note=58 velocity=0 time=86
note_off channel=0 note=60 velocity=0 time=0
note_on channel=0 note=58 velocity=41 time=0
note_on channel=0 note=60 velocity=41 time=0
note_on channel=0 note=52 velocity=47 time=0
note_off channel=0 note=58 velocity=0 time=85
note_off channel=0 note=60 velocity=0 time=0
note_on channel=0 note=58 velocity=46 time=0
note_on channel=0 note=60 velocity=46 time=0
note_off channel=0 note=52 velocity=0 time=43
note_off channel=0 note=58 velocity=0 time=42
note_off channel=0 note=60 velocity=0 time=0
note_on channel=0 note=58 velocity=42 time=0
note_on channel=0 note=60 velocity=42 time=0
note_off channel=0 note=58 velocity=0 time=86
note_off channel=0 note=60 velocity=0 time=0
note_on channel=0 note=58 velocity=43 time=0
note_on channel=0 note=60 velocity=43 time=0
note_on channel=0 note=55 velocity=45 time=0
note_off channel=0 note=58 velocity=0 time=85
note_off channel=0 note=60 velocity=0 time=0
note_on channel=0 note=58 velocity=41 time=0
note_on channel=0 note=60 velocity=41 time=0
note_off channel=0 note=82 velocity=0 time=43
note_on channel=0 note=86 velocity=74 time=0
note_off channel=0 note=55 velocity=0 time=0
note_off channel=0 note=58 velocity=0 time=42
note_off channel=0 note=60 velocity=0 time=0
note_on channel=0 note=58 velocity=44 time=0
note_on channel=0 note=60 velocity=44 time=0
note_on channel=0 note=84 velocity=71 time=86
note_off channel=0 note=58 velocity=0 time=0
note_off channel=0 note=60 velocity=0 time=0
note_on channel=0 note=58 velocity=43 time=0
note_on channel=0 note=60 velocity=43 time=0
note_on channel=0 note=48 velocity=46 time=0
note_off channel=0 note=86 velocity=0 time=2
note_off channel=0 note=58 velocity=0 time=83
note_off channel=0 note=60 velocity=0 time=0
note_on channel=0 note=58 velocity=41 time=0
note_on channel=0 note=60 velocity=41 time=0
note_on channel=0 note=82 velocity=69 time=43
note_off channel=0 note=48 velocity=0 time=0
note_off channel=0 note=84 velocity=0 time=2
note_off channel=0 note=58 velocity=0 time=40
note_off channel=0 note=60 velocity=0 time=0
note_on channel=0 note=58 velocity=45 time=0
note_on channel=0 note=60 velocity=45 time=0
note_off channel=0 note=82 velocity=0 time=79
note_on channel=0 note=80 velocity=65 time=7
note_off channel=0 note=58 velocity=0 time=0
note_off channel=0 note=60 velocity=0 time=0
note_on channel=0 note=65 velocity=46 time=0
note_on channel=0 note=53 velocity=48 time=0
note_off channel=0 note=65 velocity=0 time=85
note_on channel=0 note=65 velocity=45 time=0
note_on channel=0 note=81 velocity=65 time=43
note_off channel=0 note=53 velocity=0 time=0
note_off channel=0 note=80 velocity=0 time=2
note_off channel=0 note=65 velocity=0 time=40
note_on channel=0 note=65 velocity=42 time=0
note_off channel=0 note=81 velocity=0 time=79
note_on channel=0 note=81 velocity=70 time=7
note_off channel=0 note=65 velocity=0 time=0
note_on channel=0 note=65 velocity=43 time=0
note_on channel=0 note=57 velocity=49 time=0
note_off channel=0 note=65 velocity=0 time=85
note_on channel=0 note=65 velocity=44 time=0
note_off channel=0 note=57 velocity=0 time=43
note_off channel=0 note=65 velocity=0 time=42
note_on channel=0 note=65 velocity=43 time=0
note_off channel=0 note=81 velocity=0 time=86
note_off channel=0 note=65 velocity=0 time=0
note_on channel=0 note=65 velocity=45 time=0
note_on channel=0 note=60 velocity=44 time=0
note_off channel=0 note=65 velocity=0 time=85
note_on channel=0 note=65 velocity=44 time=0
note_off channel=0 note=60 velocity=0 time=43
note_off channel=0 note=65 velocity=0 time=42
note_on channel=0 note=65 velocity=45 time=0
note_off channel=0 note=65 velocity=0 time=86
note_on channel=0 note=65 velocity=46 time=0
note_off channel=0 note=65 velocity=0 time=85
note_on channel=0 note=65 velocity=42 time=0
note_off channel=0 note=65 velocity=0 time=85
note_on channel=0 note=65 velocity=43 time=0
note_on channel=0 note=84 velocity=77 time=86
note_off channel=0 note=65 velocity=0 time=0
note_on channel=0 note=63 velocity=48 time=0
note_on channel=0 note=65 velocity=48 time=0
note_on channel=0 note=57 velocity=45 time=0
note_off channel=0 note=63 velocity=0 time=85
note_off channel=0 note=65 velocity=0 time=0
note_on channel=0 note=63 velocity=44 time=0
note_on channel=0 note=65 velocity=44 time=0
note_off channel=0 note=57 velocity=0 time=43
note_off channel=0 note=63 velocity=0 time=42
note_off channel=0 note=65 velocity=0 time=0
note_on channel=0 note=63 velocity=42 time=0
note_on channel=0 note=65 velocity=42 time=0
note_off channel=0 note=63 velocity=0 time=86
note_off channel=0 note=65 velocity=0 time=0
note_on channel=0 note=63 velocity=44 time=0
note_on channel=0 note=65 velocity=44 time=0
note_on channel=0 note=60 velocity=45 time=0
note_off channel=0 note=63 velocity=0 time=85
note_off channel=0 note=65 velocity=0 time=0
note_on channel=0 note=63 velocity=43 time=0
note_on channel=0 note=65 velocity=43 time=0
note_off channel=0 note=60 velocity=0 time=43
note_off channel=0 note=63 velocity=0 time=42
note_off channel=0 note=65 velocity=0 time=0
note_on channel=0 note=63 velocity=43 time=0
note_on channel=0 note=65 velocity=43 time=0
note_off channel=0 note=84 velocity=0 time=86
note_on channel=0 note=57 velocity=92 time=0
note_off channel=0 note=63 velocity=0 time=0
note_off channel=0 note=65 velocity=0 time=0
note_on channel=0 note=63 velocity=41 time=0
note_on channel=0 note=65 velocity=41 time=0
note_off channel=0 note=65 velocity=0 time=85
note_on channel=0 note=63 velocity=42 time=0
note_on channel=0 note=65 velocity=42 time=0
note_off channel=0 note=63 velocity=0 time=43
note_off channel=0 note=63 velocity=0 time=42
note_off channel=0 note=65 velocity=0 time=0
note_on channel=0 note=63 velocity=42 time=0
note_on channel=0 note=65 velocity=42 time=0
note_off channel=0 note=63 velocity=0 time=86
note_off channel=0 note=65 velocity=0 time=0
note_on channel=0 note=63 velocity=45 time=0
note_on channel=0 note=65 velocity=45 time=0
note_off channel=0 note=63 velocity=0 time=85
note_off channel=0 note=65 velocity=0 time=0
note_on channel=0 note=63 velocity=45 time=0
note_on channel=0 note=65 velocity=45 time=0
note_off channel=0 note=57 velocity=0 time=43
note_on channel=0 note=57 velocity=76 time=0
note_off channel=0 note=63 velocity=0 time=42
note_off channel=0 note=65 velocity=0 time=0
note_on channel=0 note=63 velocity=44 time=0
note_on channel=0 note=65 velocity=44 time=0
note_off channel=0 note=57 velocity=0 time=86
note_on channel=0 note=60 velocity=80 time=0
note_off channel=0 note=63 velocity=0 time=0
note_off channel=0 note=65 velocity=0 time=0
note_on channel=0 note=62 velocity=41 time=0
note_on channel=0 note=65 velocity=41 time=0
note_off channel=0 note=62 velocity=0 time=85
note_off channel=0 note=65 velocity=0 time=0
note_on channel=0 note=62 velocity=46 time=0
note_on channel=0 note=65 velocity=46 time=0
note_on channel=0 note=58 velocity=79 time=43
note_off channel=0 note=60 velocity=0 time=2
note_off channel=0 note=62 velocity=0 time=40
note_off channel=0 note=65 velocity=0 time=0
note_on channel=0 note=62 velocity=43 time=0
note_on channel=0 note=65 velocity=43 time=0
note_off channel=0 note=58 velocity=0 time=79
note_on channel=0 note=58 velocity=75 time=7
note_off channel=0 note=62 velocity=0 time=0
note_off channel=0 note=65 velocity=0 time=0
note_on channel=0 note=62 velocity=44 time=0
note_on channel=0 note=65 velocity=44 time=0
note_off channel=0 note=62 velocity=0 time=85
note_off channel=0 note=65 velocity=0 time=0
note_on channel=0 note=62 velocity=44 time=0
note_on channel=0 note=65 velocity=44 time=0
note_off channel=0 note=62 velocity=0 time=85
note_off channel=0 note=65 velocity=0 time=0
note_on channel=0 note=62 velocity=41 time=0
note_on channel=0 note=65 velocity=41 time=0
note_off channel=0 note=62 velocity=0 time=86
note_off channel=0 note=65 velocity=0 time=0
note_on channel=0 note=62 velocity=42 time=0
note_on channel=0 note=65 velocity=42 time=0
note_off channel=0 note=58 velocity=0 time=64
note_off channel=0 note=62 velocity=0 time=21
note_off channel=0 note=65 velocity=0 time=0
note_on channel=0 note=62 velocity=43 time=0
note_on channel=0 note=65 velocity=43 time=0
note_off channel=0 note=62 velocity=0 time=85
note_off channel=0 note=65 velocity=0 time=0
note_on channel=0 note=62 velocity=44 time=0
note_on channel=0 note=65 velocity=44 time=0
note_off channel=0 note=62 velocity=0 time=86
note_off channel=0 note=65 velocity=0 time=0
note_on channel=0 note=62 velocity=43 time=0
note_on channel=0 note=65 velocity=43 time=0
note_off channel=0 note=62 velocity=0 time=85
note_off channel=0 note=65 velocity=0 time=0
note_on channel=0 note=62 velocity=45 time=0
note_on channel=0 note=65 velocity=45 time=0
note_off channel=0 note=62 velocity=0 time=85
note_off channel=0 note=65 velocity=0 time=0
note_on channel=0 note=62 velocity=41 time=0
note_on channel=0 note=65 velocity=41 time=0
note_on channel=0 note=86 velocity=78 time=86
note_off channel=0 note=62 velocity=0 time=0
note_off channel=0 note=65 velocity=0 time=0
note_on channel=0 note=56 velocity=49 time=0
note_on channel=0 note=65 velocity=49 time=0
note_off channel=0 note=56 velocity=0 time=85
note_off channel=0 note=65 velocity=0 time=0
note_on channel=0 note=56 velocity=42 time=0
note_on channel=0 note=65 velocity=42 time=0
note_off channel=0 note=56 velocity=0 time=85
note_off channel=0 note=65 velocity=0 time=0
note_on channel=0 note=56 velocity=44 time=0
note_on channel=0 note=65 velocity=44 time=0
note_off channel=0 note=56 velocity=0 time=86
note_off channel=0 note=65 velocity=0 time=0
note_on channel=0 note=56 velocity=44 time=0
note_on channel=0 note=65 velocity=44 time=0
note_off channel=0 note=56 velocity=0 time=85
note_off channel=0 note=65 velocity=0 time=0
note_on channel=0 note=56 velocity=46 time=0
note_on channel=0 note=65 velocity=46 time=0
note_off channel=0 note=56 velocity=0 time=85
note_off channel=0 note=65 velocity=0 time=0
note_on channel=0 note=56 velocity=43 time=0
note_on channel=0 note=65 velocity=43 time=0
note_off channel=0 note=86 velocity=0 time=86
note_on channel=0 note=59 velocity=69 time=0
note_off channel=0 note=56 velocity=0 time=0
note_off channel=0 note=65 velocity=0 time=0
note_on channel=0 note=56 velocity=49 time=0
note_on channel=0 note=65 velocity=49 time=0
note_off channel=0 note=56 velocity=0 time=85
note_off channel=0 note=65 velocity=0 time=0
note_on channel=0 note=56 velocity=53 time=0
note_on channel=0 note=65 velocity=53 time=0
note_off channel=0 note=56 velocity=0 time=85
note_off channel=0 note=65 velocity=0 time=0
note_on channel=0 note=56 velocity=50 time=0
note_on channel=0 note=65 velocity=50 time=0
note_off channel=0 note=56 velocity=0 time=86
note_off channel=0 note=65 velocity=0 time=0
note_on channel=0 note=56 velocity=51 time=0
note_on channel=0 note=65 velocity=51 time=0
note_off channel=0 note=56 velocity=0 time=85
note_off channel=0 note=65 velocity=0 time=0
note_on channel=0 note=56 velocity=52 time=0
note_on channel=0 note=65 velocity=52 time=0
note_off channel=0 note=59 velocity=0 time=43
note_on channel=0 note=59 velocity=74 time=0
note_off channel=0 note=56 velocity=0 time=42
note_off channel=0 note=65 velocity=0 time=0
note_on channel=0 note=56 velocity=50 time=0
note_on channel=0 note=65 velocity=50 time=0
note_off channel=0 note=59 velocity=0 time=86
note_on channel=0 note=60 velocity=78 time=0
note_off channel=0 note=56 velocity=0 time=0
note_off channel=0 note=65 velocity=0 time=0
note_on channel=0 note=56 velocity=43 time=0
note_on channel=0 note=65 velocity=43 time=0
note_off channel=0 note=56 velocity=0 time=85
note_off channel=0 note=65 velocity=0 time=0
note_on channel=0 note=56 velocity=43 time=0
note_on channel=0 note=65 velocity=43 time=0
note_off channel=0 note=56 velocity=0 time=85
note_off channel=0 note=65 velocity=0 time=0
note_on channel=0 note=56 velocity=44 time=0
note_on channel=0 note=65 velocity=44 time=0
note_off channel=0 note=56 velocity=0 time=86
note_off channel=0 note=65 velocity=0 time=0
note_on channel=0 note=56 velocity=43 time=0
note_on channel=0 note=65 velocity=43 time=0
note_off channel=0 note=56 velocity=0 time=85
note_off channel=0 note=65 velocity=0 time=0
note_on channel=0 note=56 velocity=42 time=0
note_on channel=0 note=65 velocity=42 time=0
note_off channel=0 note=56 velocity=0 time=85
note_off channel=0 note=65 velocity=0 time=0
note_on channel=0 note=56 velocity=43 time=0
note_on channel=0 note=65 velocity=43 time=0
note_off channel=0 note=56 velocity=0 time=86
note_off channel=0 note=65 velocity=0 time=0
note_on channel=0 note=56 velocity=43 time=0
note_on channel=0 note=65 velocity=43 time=0
note_off channel=0 note=56 velocity=0 time=85
note_off channel=0 note=65 velocity=0 time=0
note_on channel=0 note=56 velocity=40 time=0
note_on channel=0 note=65 velocity=40 time=0
note_off channel=0 note=56 velocity=0 time=85
note_off channel=0 note=65 velocity=0 time=0
note_on channel=0 note=56 velocity=43 time=0
note_on channel=0 note=65 velocity=43 time=0
note_off channel=0 note=60 velocity=0 time=86
note_on channel=0 note=84 velocity=85 time=0
note_off channel=0 note=56 velocity=0 time=0
note_off channel=0 note=65 velocity=0 time=0
note_on channel=0 note=56 velocity=42 time=0
note_on channel=0 note=65 velocity=42 time=0
note_off channel=0 note=56 velocity=0 time=85
note_off channel=0 note=65 velocity=0 time=0
note_on channel=0 note=56 velocity=44 time=0
note_on channel=0 note=65 velocity=44 time=0
note_off channel=0 note=56 velocity=0 time=85
note_off channel=0 note=65 velocity=0 time=0
note_on channel=0 note=56 velocity=43 time=0
note_on channel=0 note=65 velocity=43 time=0
note_off channel=0 note=84 velocity=0 time=86
note_on channel=0 note=85 velocity=80 time=0
note_off channel=0 note=56 velocity=0 time=0
note_off channel=0 note=65 velocity=0 time=0
note_on channel=0 note=55 velocity=42 time=0
note_on channel=0 note=58 velocity=42 time=0
note_on channel=0 note=65 velocity=42 time=0
note_off channel=0 note=55 velocity=0 time=85
note_off channel=0 note=58 velocity=0 time=0
note_off channel=0 note=65 velocity=0 time=0
note_on channel=0 note=55 velocity=44 time=0
note_on channel=0 note=58 velocity=44 time=0
note_on channel=0 note=65 velocity=44 time=0
note_off channel=0 note=55 velocity=0 time=85
note_off channel=0 note=58 velocity=0 time=0
note_off channel=0 note=65 velocity=0 time=0
note_on channel=0 note=55 velocity=43 time=0
note_on channel=0 note=58 velocity=43 time=0
note_on channel=0 note=65 velocity=43 time=0
note_on channel=0 note=73 velocity=61 time=86
note_off channel=0 note=55 velocity=0 time=0
note_off channel=0 note=58 velocity=0 time=0
note_off channel=0 note=65 velocity=0 time=0
note_on channel=0 note=55 velocity=43 time=0
note_on channel=0 note=58 velocity=43 time=0
note_on channel=0 note=64 velocity=43 time=0
note_off channel=0 note=55 velocity=0 time=85
note_off channel=0 note=58 velocity=0 time=0
note_off channel=0 note=64 velocity=0 time=0
note_on channel=0 note=55 velocity=42 time=0
note_on channel=0 note=58 velocity=42 time=0
note_on channel=0 note=64 velocity=42 time=0
note_off channel=0 note=55 velocity=0 time=85
note_off channel=0 note=58 velocity=0 time=0
note_off channel=0 note=64 velocity=0 time=0
note_on channel=0 note=55 velocity=45 time=0
note_on channel=0 note=58 velocity=45 time=0
note_on channel=0 note=64 velocity=45 time=0
note_on channel=0 note=76 velocity=64 time=86
note_off channel=0 note=55 velocity=0 time=0
note_off channel=0 note=58 velocity=0 time=0
note_off channel=0 note=64 velocity=0 time=0
note_on channel=0 note=55 velocity=44 time=0
note_on channel=0 note=58 velocity=44 time=0
note_on channel=0 note=64 velocity=44 time=0
note_off channel=0 note=73 velocity=0 time=10
note_off channel=0 note=55 velocity=0 time=75
note_off channel=0 note=58 velocity=0 time=0
note_off channel=0 note=64 velocity=0 time=0
note_on channel=0 note=55 velocity=41 time=0
note_on channel=0 note=58 velocity=41 time=0
note_on channel=0 note=64 velocity=41 time=0
note_off channel=0 note=55 velocity=0 time=85
note_off channel=0 note=58 velocity=0 time=0
note_off channel=0 note=64 velocity=0 time=0
note_on channel=0 note=55 velocity=44 time=0
note_on channel=0 note=58 velocity=44 time=0
note_on channel=0 note=64 velocity=44 time=0
note_on channel=0 note=79 velocity=74 time=86
note_off channel=0 note=55 velocity=0 time=0
note_off channel=0 note=58 velocity=0 time=0
note_off channel=0 note=64 velocity=0 time=0
note_on channel=0 note=55 velocity=43 time=0
note_on channel=0 note=58 velocity=43 time=0
note_on channel=0 note=64 velocity=43 time=0
note_off channel=0 note=85 velocity=0 time=12
note_off channel=0 note=55 velocity=0 time=73
note_off channel=0 note=58 velocity=0 time=0
note_off channel=0 note=64 velocity=0 time=0
note_on channel=0 note=55 velocity=41 time=0
note_on channel=0 note=58 velocity=41 time=0
note_on channel=0 note=64 velocity=41 time=0
note_off channel=0 note=55 velocity=0 time=85
note_off channel=0 note=58 velocity=0 time=0
note_off channel=0 note=64 velocity=0 time=0
note_on channel=0 note=55 velocity=44 time=0
note_on channel=0 note=58 velocity=44 time=0
note_on channel=0 note=64 velocity=44 time=0
note_off channel=0 note=76 velocity=0 time=35
note_on channel=0 note=84 velocity=79 time=51
note_off channel=0 note=55 velocity=0 time=0
note_off channel=0 note=58 velocity=0 time=0
note_off channel=0 note=64 velocity=0 time=0
note_on channel=0 note=55 velocity=40 time=0
note_on channel=0 note=56 velocity=40 time=0
note_on channel=0 note=60 velocity=40 time=0
note_off channel=0 note=79 velocity=0 time=9
note_off channel=0 note=55 velocity=0 time=76
note_off channel=0 note=56 velocity=0 time=0
note_off channel=0 note=60 velocity=0 time=0
note_on channel=0 note=55 velocity=42 time=0
note_on channel=0 note=56 velocity=42 time=0
note_on channel=0 note=60 velocity=42 time=0
note_off channel=0 note=55 velocity=0 time=85
note_off channel=0 note=56 velocity=0 time=0
note_off channel=0 note=60 velocity=0 time=0
note_on channel=0 note=55 velocity=46 time=0
note_on channel=0 note=56 velocity=46 time=0
note_on channel=0 note=60 velocity=46 time=0
note_on channel=0 note=72 velocity=59 time=86
note_off channel=0 note=55 velocity=0 time=0
note_off channel=0 note=56 velocity=0 time=0
note_off channel=0 note=60 velocity=0 time=0
note_on channel=0 note=53 velocity=44 time=0
note_on channel=0 note=56 velocity=44 time=0
note_on channel=0 note=60 velocity=44 time=0
note_off channel=0 note=53 velocity=0 time=85
note_off channel=0 note=56 velocity=0 time=0
note_off channel=0 note=60 velocity=0 time=0
note_on channel=0 note=53 velocity=43 time=0
note_on channel=0 note=56 velocity=43 time=0
note_on channel=0 note=60 velocity=43 time=0
note_off channel=0 note=53 velocity=0 time=85
note_off channel=0 note=56 velocity=0 time=0
note_off channel=0 note=60 velocity=0 time=0
note_on channel=0 note=53 velocity=41 time=0
note_on channel=0 note=56 velocity=41 time=0
note_on channel=0 note=60 velocity=41 time=0
note_on channel=0 note=77 velocity=64 time=86
note_off channel=0 note=53 velocity=0 time=0
note_off channel=0 note=56 velocity=0 time=0
note_off channel=0 note=60 velocity=0 time=0
note_on channel=0 note=53 velocity=44 time=0
note_on channel=0 note=56 velocity=44 time=0
note_on channel=0 note=60 velocity=44 time=0
note_off channel=0 note=72 velocity=0 time=10
note_off channel=0 note=53 velocity=0 time=75
note_off channel=0 note=56 velocity=0 time=0
note_off channel=0 note=60 velocity=0 time=0
note_on channel=0 note=53 velocity=44 time=0
note_on channel=0 note=56 velocity=44 time=0
note_on channel=0 note=60 velocity=44 time=0
note_off channel=0 note=53 velocity=0 time=85
note_off channel=0 note=56 velocity=0 time=0
note_off channel=0 note=60 velocity=0 time=0
note_on channel=0 note=53 velocity=43 time=0
note_on channel=0 note=56 velocity=43 time=0
note_on channel=0 note=60 velocity=43 time=0
note_off channel=0 note=77 velocity=0 time=60
note_on channel=0 note=77 velocity=73 time=26
note_off channel=0 note=53 velocity=0 time=0
note_off channel=0 note=56 velocity=0 time=0
note_off channel=0 note=60 velocity=0 time=0
note_on channel=0 note=53 velocity=44 time=0
note_on channel=0 note=56 velocity=44 time=0
note_on channel=0 note=60 velocity=44 time=0
note_off channel=0 note=84 velocity=0 time=12
note_off channel=0 note=53 velocity=0 time=73
note_off channel=0 note=56 velocity=0 time=0
note_off channel=0 note=60 velocity=0 time=0
note_on channel=0 note=53 velocity=42 time=0
note_on channel=0 note=56 velocity=42 time=0
note_on channel=0 note=60 velocity=42 time=0
note_off channel=0 note=53 velocity=0 time=85
note_off channel=0 note=56 velocity=0 time=0
note_off channel=0 note=60 velocity=0 time=0
note_on channel=0 note=53 velocity=45 time=0
note_on channel=0 note=56 velocity=45 time=0
note_on channel=0 note=60 velocity=45 time=0
note_on channel=0 note=82 velocity=82 time=86
note_off channel=0 note=53 velocity=0 time=0
note_off channel=0 note=56 velocity=0 time=0
note_off channel=0 note=60 velocity=0 time=0
note_on channel=0 note=56 velocity=46 time=0
note_on channel=0 note=61 velocity=46 time=0
note_on channel=0 note=64 velocity=46 time=0
note_off channel=0 note=77 velocity=0 time=9
note_off channel=0 note=56 velocity=0 time=76
note_off channel=0 note=61 velocity=0 time=0
note_off channel=0 note=64 velocity=0 time=0
note_on channel=0 note=56 velocity=44 time=0
note_on channel=0 note=61 velocity=44 time=0
note_on channel=0 note=64 velocity=44 time=0
note_off channel=0 note=56 velocity=0 time=85
note_off channel=0 note=61 velocity=0 time=0
note_off channel=0 note=64 velocity=0 time=0
note_on channel=0 note=56 velocity=42 time=0
note_on channel=0 note=61 velocity=42 time=0
note_on channel=0 note=64 velocity=42 time=0
note_on channel=0 note=70 velocity=61 time=86
note_off channel=0 note=56 velocity=0 time=0
note_off channel=0 note=61 velocity=0 time=0
note_off channel=0 note=64 velocity=0 time=0
note_on channel=0 note=56 velocity=44 time=0
note_on channel=0 note=61 velocity=44 time=0
note_on channel=0 note=64 velocity=44 time=0
note_off channel=0 note=56 velocity=0 time=85
note_off channel=0 note=61 velocity=0 time=0
note_off channel=0 note=64 velocity=0 time=0
note_on channel=0 note=56 velocity=43 time=0
note_on channel=0 note=61 velocity=43 time=0
note_on channel=0 note=64 velocity=43 time=0
note_off channel=0 note=56 velocity=0 time=85
note_off channel=0 note=61 velocity=0 time=0
note_off channel=0 note=64 velocity=0 time=0
note_on channel=0 note=56 velocity=42 time=0
note_on channel=0 note=61 velocity=42 time=0
note_on channel=0 note=64 velocity=42 time=0
note_on channel=0 note=72 velocity=62 time=86
note_off channel=0 note=56 velocity=0 time=0
note_off channel=0 note=61 velocity=0 time=0
note_off channel=0 note=64 velocity=0 time=0
note_on channel=0 note=55 velocity=44 time=0
note_on channel=0 note=60 velocity=44 time=0
note_on channel=0 note=64 velocity=44 time=0
note_off channel=0 note=70 velocity=0 time=10
note_off channel=0 note=55 velocity=0 time=75
note_off channel=0 note=60 velocity=0 time=0
note_off channel=0 note=64 velocity=0 time=0
note_on channel=0 note=55 velocity=44 time=0
note_on channel=0 note=60 velocity=44 time=0
note_on channel=0 note=64 velocity=44 time=0
note_off channel=0 note=55 velocity=0 time=85
note_off channel=0 note=60 velocity=0 time=0
note_off channel=0 note=64 velocity=0 time=0
note_on channel=0 note=55 velocity=41 time=0
note_on channel=0 note=60 velocity=41 time=0
note_on channel=0 note=64 velocity=41 time=0
note_on channel=0 note=76 velocity=75 time=86
note_off channel=0 note=55 velocity=0 time=0
note_off channel=0 note=60 velocity=0 time=0
note_off channel=0 note=64 velocity=0 time=0
note_on channel=0 note=58 velocity=44 time=0
note_on channel=0 note=60 velocity=44 time=0
note_on channel=0 note=64 velocity=44 time=0
note_off channel=0 note=82 velocity=0 time=12
note_off channel=0 note=58 velocity=0 time=73
note_off channel=0 note=60 velocity=0 time=0
note_off channel=0 note=64 velocity=0 time=0
note_on channel=0 note=58 velocity=43 time=0
note_on channel=0 note=60 velocity=43 time=0
note_on channel=0 note=64 velocity=43 time=0
note_off channel=0 note=58 velocity=0 time=85
note_off channel=0 note=60 velocity=0 time=0
note_off channel=0 note=64 velocity=0 time=0
note_on channel=0 note=58 velocity=45 time=0
note_on channel=0 note=60 velocity=45 time=0
note_on channel=0 note=64 velocity=45 time=0
note_off channel=0 note=72 velocity=0 time=35
note_on channel=0 note=80 velocity=79 time=51
note_off channel=0 note=58 velocity=0 time=0
note_off channel=0 note=60 velocity=0 time=0
note_off channel=0 note=64 velocity=0 time=0
note_on channel=0 note=58 velocity=43 time=0
note_on channel=0 note=59 velocity=43 time=0
note_on channel=0 note=65 velocity=43 time=0
note_off channel=0 note=76 velocity=0 time=9
note_off channel=0 note=58 velocity=0 time=76
note_off channel=0 note=59 velocity=0 time=0
note_off channel=0 note=65 velocity=0 time=0
note_on channel=0 note=58 velocity=41 time=0
note_on channel=0 note=59 velocity=41 time=0
note_on channel=0 note=65 velocity=41 time=0
note_off channel=0 note=58 velocity=0 time=85
note_off channel=0 note=59 velocity=0 time=0
note_off channel=0 note=65 velocity=0 time=0
note_on channel=0 note=58 velocity=44 time=0
note_on channel=0 note=59 velocity=44 time=0
note_on channel=0 note=65 velocity=44 time=0
note_on channel=0 note=68 velocity=61 time=86
note_off channel=0 note=58 velocity=0 time=0
note_off channel=0 note=59 velocity=0 time=0
note_off channel=0 note=65 velocity=0 time=0
note_on channel=0 note=58 velocity=41 time=0
note_on channel=0 note=59 velocity=41 time=0
note_on channel=0 note=65 velocity=41 time=0
note_off channel=0 note=58 velocity=0 time=85
note_off channel=0 note=59 velocity=0 time=0
note_off channel=0 note=65 velocity=0 time=0
note_on channel=0 note=58 velocity=45 time=0
note_on channel=0 note=59 velocity=45 time=0
note_on channel=0 note=65 velocity=45 time=0
note_off channel=0 note=58 velocity=0 time=85
note_off channel=0 note=59 velocity=0 time=0
note_off channel=0 note=65 velocity=0 time=0
note_on channel=0 note=58 velocity=41 time=0
note_on channel=0 note=59 velocity=41 time=0
note_on channel=0 note=65 velocity=41 time=0
note_on channel=0 note=71 velocity=63 time=86
note_off channel=0 note=58 velocity=0 time=0
note_off channel=0 note=59 velocity=0 time=0
note_off channel=0 note=65 velocity=0 time=0
note_on channel=0 note=56 velocity=43 time=0
note_on channel=0 note=59 velocity=43 time=0
note_on channel=0 note=65 velocity=43 time=0
note_off channel=0 note=68 velocity=0 time=10
note_off channel=0 note=56 velocity=0 time=75
note_off channel=0 note=59 velocity=0 time=0
note_off channel=0 note=65 velocity=0 time=0
note_on channel=0 note=56 velocity=43 time=0
note_on channel=0 note=59 velocity=43 time=0
note_on channel=0 note=65 velocity=43 time=0
note_off channel=0 note=56 velocity=0 time=85
note_off channel=0 note=59 velocity=0 time=0
note_off channel=0 note=65 velocity=0 time=0
note_on channel=0 note=56 velocity=43 time=0
note_on channel=0 note=59 velocity=43 time=0
note_on channel=0 note=65 velocity=43 time=0
note_on channel=0 note=74 velocity=71 time=86
note_off channel=0 note=56 velocity=0 time=0
note_off channel=0 note=59 velocity=0 time=0
note_off channel=0 note=65 velocity=0 time=0
note_on channel=0 note=56 velocity=45 time=0
note_on channel=0 note=62 velocity=45 time=0
note_on channel=0 note=65 velocity=45 time=0
note_off channel=0 note=80 velocity=0 time=12
note_off channel=0 note=56 velocity=0 time=73
note_off channel=0 note=62 velocity=0 time=0
note_off channel=0 note=65 velocity=0 time=0
note_on channel=0 note=56 velocity=45 time=0
note_on channel=0 note=62 velocity=45 time=0
note_on channel=0 note=65 velocity=45 time=0
note_off channel=0 note=56 velocity=0 time=85
note_off channel=0 note=62 velocity=0 time=0
note_off channel=0 note=65 velocity=0 time=0
note_on channel=0 note=56 velocity=43 time=0
note_on channel=0 note=62 velocity=43 time=0
note_on channel=0 note=65 velocity=43 time=0
note_off channel=0 note=71 velocity=0 time=35
note_on channel=0 note=79 velocity=81 time=51
note_off channel=0 note=56 velocity=0 time=0
note_off channel=0 note=62 velocity=0 time=0
note_off channel=0 note=65 velocity=0 time=0
note_on channel=0 note=55 velocity=43 time=0
note_on channel=0 note=60 velocity=43 time=0
note_on channel=0 note=65 velocity=43 time=0
note_off channel=0 note=74 velocity=0 time=9
note_off channel=0 note=55 velocity=0 time=76
note_off channel=0 note=60 velocity=0 time=0
note_off channel=0 note=65 velocity=0 time=0
note_on channel=0 note=55 velocity=42 time=0
note_on channel=0 note=60 velocity=42 time=0
note_on channel=0 note=65 velocity=42 time=0
note_off channel=0 note=55 velocity=0 time=85
note_off channel=0 note=60 velocity=0 time=0
note_off channel=0 note=65 velocity=0 time=0
note_on channel=0 note=55 velocity=43 time=0
note_on channel=0 note=60 velocity=43 time=0
note_on channel=0 note=65 velocity=43 time=0
note_on channel=0 note=67 velocity=63 time=86
note_off channel=0 note=55 velocity=0 time=0
note_off channel=0 note=60 velocity=0 time=0
note_off channel=0 note=65 velocity=0 time=0
note_on channel=0 note=55 velocity=45 time=0
note_on channel=0 note=61 velocity=45 time=0
note_on channel=0 note=65 velocity=45 time=0
note_off channel=0 note=55 velocity=0 time=85
note_off channel=0 note=61 velocity=0 time=0
note_off channel=0 note=65 velocity=0 time=0
note_on channel=0 note=55 velocity=43 time=0
note_on channel=0 note=61 velocity=43 time=0
note_on channel=0 note=65 velocity=43 time=0
note_off channel=0 note=55 velocity=0 time=85
note_off channel=0 note=61 velocity=0 time=0
note_off channel=0 note=65 velocity=0 time=0
note_on channel=0 note=55 velocity=44 time=0
note_on channel=0 note=61 velocity=44 time=0
note_on channel=0 note=65 velocity=44 time=0
note_on channel=0 note=72 velocity=63 time=86
note_off channel=0 note=55 velocity=0 time=0
note_off channel=0 note=61 velocity=0 time=0
note_off channel=0 note=65 velocity=0 time=0
note_on channel=0 note=55 velocity=41 time=0
note_on channel=0 note=60 velocity=41 time=0
note_on channel=0 note=64 velocity=41 time=0
note_off channel=0 note=67 velocity=0 time=10
note_off channel=0 note=55 velocity=0 time=75
note_off channel=0 note=60 velocity=0 time=0
note_off channel=0 note=64 velocity=0 time=0
note_on channel=0 note=55 velocity=44 time=0
note_on channel=0 note=60 velocity=44 time=0
note_on channel=0 note=64 velocity=44 time=0
note_off channel=0 note=55 velocity=0 time=85
note_off channel=0 note=60 velocity=0 time=0
note_off channel=0 note=64 velocity=0 time=0
note_on channel=0 note=55 velocity=45 time=0
note_on channel=0 note=60 velocity=45 time=0
note_on channel=0 note=64 velocity=45 time=0
note_off channel=0 note=72 velocity=0 time=60
note_on channel=0 note=72 velocity=75 time=26
note_off channel=0 note=55 velocity=0 time=0
note_off channel=0 note=60 velocity=0 time=0
note_off channel=0 note=64 velocity=0 time=0
note_on channel=0 note=55 velocity=42 time=0
note_on channel=0 note=60 velocity=42 time=0
note_on channel=0 note=64 velocity=42 time=0
note_off channel=0 note=79 velocity=0 time=12
note_off channel=0 note=55 velocity=0 time=73
note_off channel=0 note=60 velocity=0 time=0
note_off channel=0 note=64 velocity=0 time=0
note_on channel=0 note=55 velocity=44 time=0
note_on channel=0 note=60 velocity=44 time=0
note_on channel=0 note=64 velocity=44 time=0
note_off channel=0 note=55 velocity=0 time=85
note_off channel=0 note=60 velocity=0 time=0
note_off channel=0 note=64 velocity=0 time=0
note_on channel=0 note=55 velocity=44 time=0
note_on channel=0 note=60 velocity=44 time=0
note_on channel=0 note=64 velocity=44 time=0
note_on channel=0 note=77 velocity=79 time=86
note_off channel=0 note=55 velocity=0 time=0
note_off channel=0 note=60 velocity=0 time=0
note_off channel=0 note=64 velocity=0 time=0
note_on channel=0 note=57 velocity=45 time=0
note_on channel=0 note=60 velocity=45 time=0
note_on channel=0 note=65 velocity=45 time=0
note_off channel=0 note=72 velocity=0 time=9
note_off channel=0 note=57 velocity=0 time=76
note_off channel=0 note=60 velocity=0 time=0
note_off channel=0 note=65 velocity=0 time=0
note_on channel=0 note=57 velocity=43 time=0
note_on channel=0 note=60 velocity=43 time=0
note_on channel=0 note=65 velocity=43 time=0
note_off channel=0 note=57 velocity=0 time=85
note_off channel=0 note=60 velocity=0 time=0
note_off channel=0 note=65 velocity=0 time=0
note_on channel=0 note=57 velocity=44 time=0
note_on channel=0 note=60 velocity=44 time=0
note_on channel=0 note=65 velocity=44 time=0
note_off channel=0 note=57 velocity=0 time=86
note_off channel=0 note=60 velocity=0 time=0
note_off channel=0 note=65 velocity=0 time=0
note_on channel=0 note=57 velocity=44 time=0
note_on channel=0 note=60 velocity=44 time=0
note_on channel=0 note=65 velocity=44 time=0
note_off channel=0 note=57 velocity=0 time=85
note_off channel=0 note=60 velocity=0 time=0
note_off channel=0 note=65 velocity=0 time=0
note_on channel=0 note=57 velocity=44 time=0
note_on channel=0 note=60 velocity=44 time=0
note_on channel=0 note=65 velocity=44 time=0
note_off channel=0 note=57 velocity=0 time=85
note_off channel=0 note=60 velocity=0 time=0
note_off channel=0 note=65 velocity=0 time=0
note_on channel=0 note=57 velocity=41 time=0
note_on channel=0 note=60 velocity=41 time=0
note_on channel=0 note=65 velocity=41 time=0
note_off channel=0 note=77 velocity=0 time=86
note_on channel=0 note=76 velocity=74 time=0
note_off channel=0 note=57 velocity=0 time=0
note_off channel=0 note=60 velocity=0 time=0
note_off channel=0 note=65 velocity=0 time=0
note_on channel=0 note=55 velocity=44 time=0
note_on channel=0 note=62 velocity=44 time=0
note_on channel=0 note=65 velocity=44 time=0
note_off channel=0 note=55 velocity=0 time=85
note_off channel=0 note=62 velocity=0 time=0
note_off channel=0 note=65 velocity=0 time=0
note_on channel=0 note=55 velocity=43 time=0
note_on channel=0 note=62 velocity=43 time=0
note_on channel=0 note=65 velocity=43 time=0
note_on channel=0 note=74 velocity=71 time=43
note_off channel=0 note=76 velocity=0 time=2
note_off channel=0 note=55 velocity=0 time=40
note_off channel=0 note=62 velocity=0 time=0
note_off channel=0 note=65 velocity=0 time=0
note_on channel=0 note=55 velocity=43 time=0
note_on channel=0 note=62 velocity=43 time=0
note_on channel=0 note=65 velocity=43 time=0
note_off channel=0 note=74 velocity=0 time=79
note_on channel=0 note=72 velocity=74 time=7
note_off channel=0 note=55 velocity=0 time=0
note_off channel=0 note=62 velocity=0 time=0
note_off channel=0 note=65 velocity=0 time=0
note_on channel=0 note=55 velocity=45 time=0
note_on channel=0 note=62 velocity=45 time=0
note_on channel=0 note=65 velocity=45 time=0
note_off channel=0 note=55 velocity=0 time=85
note_off channel=0 note=62 velocity=0 time=0
note_off channel=0 note=65 velocity=0 time=0
note_on channel=0 note=55 velocity=40 time=0
note_on channel=0 note=62 velocity=40 time=0
note_on channel=0 note=65 velocity=40 time=0
note_on channel=0 note=70 velocity=72 time=43
note_off channel=0 note=72 velocity=0 time=2
note_off channel=0 note=55 velocity=0 time=40
note_off channel=0 note=62 velocity=0 time=0
note_off channel=0 note=65 velocity=0 time=0
note_on channel=0 note=55 velocity=43 time=0
note_on channel=0 note=62 velocity=43 time=0
note_on channel=0 note=65 velocity=43 time=0
note_off channel=0 note=70 velocity=0 time=76
note_on channel=0 note=69 velocity=74 time=0
note_off channel=0 note=55 velocity=0 time=10
note_off channel=0 note=62 velocity=0 time=0
note_off channel=0 note=65 velocity=0 time=0
note_on channel=0 note=55 velocity=44 time=0
note_on channel=0 note=60 velocity=44 time=0
note_on channel=0 note=65 velocity=44 time=0
note_off channel=0 note=55 velocity=0 time=85
note_off channel=0 note=60 velocity=0 time=0
note_off channel=0 note=65 velocity=0 time=0
note_on channel=0 note=55 velocity=44 time=0
note_on channel=0 note=60 velocity=44 time=0
note_on channel=0 note=65 velocity=44 time=0
note_off channel=0 note=69 velocity=0 time=33
note_on channel=0 note=67 velocity=74 time=10
note_off channel=0 note=55 velocity=0 time=42
note_off channel=0 note=60 velocity=0 time=0
note_off channel=0 note=65 velocity=0 time=0
note_on channel=0 note=55 velocity=44 time=0
note_on channel=0 note=60 velocity=44 time=0
note_on channel=0 note=65 velocity=44 time=0
note_off channel=0 note=55 velocity=0 time=86
note_off channel=0 note=60 velocity=0 time=0
note_off channel=0 note=65 velocity=0 time=0
note_on channel=0 note=55 velocity=45 time=0
note_on channel=0 note=62 velocity=45 time=0
note_on channel=0 note=65 velocity=45 time=0
note_off channel=0 note=55 velocity=0 time=85
note_off channel=0 note=62 velocity=0 time=0
note_off channel=0 note=65 velocity=0 time=0
note_on channel=0 note=55 velocity=42 time=0
note_on channel=0 note=62 velocity=42 time=0
note_on channel=0 note=65 velocity=42 time=0
note_off channel=0 note=55 velocity=0 time=85
note_off channel=0 note=62 velocity=0 time=0
note_off channel=0 note=65 velocity=0 time=0
note_on channel=0 note=55 velocity=43 time=0
note_on channel=0 note=62 velocity=43 time=0
note_on channel=0 note=65 velocity=43 time=0
note_off channel=0 note=55 velocity=0 time=86
note_off channel=0 note=62 velocity=0 time=0
note_off channel=0 note=65 velocity=0 time=0
note_on channel=0 note=55 velocity=45 time=0
note_on channel=0 note=60 velocity=45 time=0
note_on channel=0 note=65 velocity=45 time=0
note_off channel=0 note=55 velocity=0 time=85
note_off channel=0 note=60 velocity=0 time=0
note_off channel=0 note=65 velocity=0 time=0
note_on channel=0 note=55 velocity=44 time=0
note_on channel=0 note=60 velocity=44 time=0
note_on channel=0 note=65 velocity=44 time=0
note_off channel=0 note=55 velocity=0 time=85
note_off channel=0 note=60 velocity=0 time=0
note_off channel=0 note=65 velocity=0 time=0
note_on channel=0 note=55 velocity=42 time=0
note_on channel=0 note=60 velocity=42 time=0
note_on channel=0 note=65 velocity=42 time=0
note_off channel=0 note=67 velocity=0 time=86
note_on channel=0 note=72 velocity=82 time=0
note_off channel=0 note=55 velocity=0 time=0
note_off channel=0 note=60 velocity=0 time=0
note_off channel=0 note=65 velocity=0 time=0
note_on channel=0 note=55 velocity=41 time=0
note_on channel=0 note=60 velocity=41 time=0
note_on channel=0 note=64 velocity=41 time=0
note_off channel=0 note=55 velocity=0 time=85
note_off channel=0 note=60 velocity=0 time=0
note_off channel=0 note=64 velocity=0 time=0
note_on channel=0 note=55 velocity=42 time=0
note_on channel=0 note=60 velocity=42 time=0
note_on channel=0 note=64 velocity=42 time=0
note_off channel=0 note=55 velocity=0 time=85
note_off channel=0 note=60 velocity=0 time=0
note_off channel=0 note=64 velocity=0 time=0
note_on channel=0 note=55 velocity=44 time=0
note_on channel=0 note=60 velocity=44 time=0
note_on channel=0 note=64 velocity=44 time=0
note_off channel=0 note=72 velocity=0 time=73
note_on channel=0 note=70 velocity=76 time=13
note_off channel=0 note=55 velocity=0 time=0
note_off channel=0 note=60 velocity=0 time=0
note_off channel=0 note=64 velocity=0 time=0
note_on channel=0 note=55 velocity=43 time=0
note_on channel=0 note=61 velocity=43 time=0
note_on channel=0 note=64 velocity=43 time=0
note_off channel=0 note=55 velocity=0 time=85
note_off channel=0 note=61 velocity=0 time=0
note_off channel=0 note=64 velocity=0 time=0
note_on channel=0 note=55 velocity=42 time=0
note_on channel=0 note=61 velocity=42 time=0
note_on channel=0 note=64 velocity=42 time=0
note_off channel=0 note=55 velocity=0 time=85
note_off channel=0 note=61 velocity=0 time=0
note_off channel=0 note=64 velocity=0 time=0
note_on channel=0 note=55 velocity=40 time=0
note_on channel=0 note=61 velocity=40 time=0
note_on channel=0 note=64 velocity=40 time=0
note_on channel=0 note=69 velocity=72 time=86
note_off channel=0 note=55 velocity=0 time=0
note_off channel=0 note=61 velocity=0 time=0
note_off channel=0 note=64 velocity=0 time=0
note_on channel=0 note=57 velocity=44 time=0
note_on channel=0 note=62 velocity=44 time=0
note_on channel=0 note=65 velocity=44 time=0
note_off channel=0 note=70 velocity=0 time=5
note_off channel=0 note=57 velocity=0 time=80
note_off channel=0 note=62 velocity=0 time=0
note_off channel=0 note=65 velocity=0 time=0
note_on channel=0 note=57 velocity=44 time=0
note_on channel=0 note=62 velocity=44 time=0
note_on channel=0 note=65 velocity=44 time=0
note_off channel=0 note=57 velocity=0 time=85
note_off channel=0 note=62 velocity=0 time=0
note_off channel=0 note=65 velocity=0 time=0
note_on channel=0 note=57 velocity=44 time=0
note_on channel=0 note=62 velocity=44 time=0
note_on channel=0 note=65 velocity=44 time=0
note_off channel=0 note=69 velocity=0 time=73
note_off channel=0 note=57 velocity=0 time=13
note_off channel=0 note=62 velocity=0 time=0
note_off channel=0 note=65 velocity=0 time=0
note_on channel=0 note=57 velocity=44 time=0
note_on channel=0 note=60 velocity=44 time=0
note_on channel=0 note=65 velocity=44 time=0
note_on channel=0 note=72 velocity=72 time=85
note_off channel=0 note=57 velocity=0 time=0
note_off channel=0 note=60 velocity=0 time=0
note_off channel=0 note=65 velocity=0 time=0
note_on channel=0 note=57 velocity=41 time=0
note_on channel=0 note=60 velocity=41 time=0
note_on channel=0 note=65 velocity=41 time=0
note_on channel=0 note=73 velocity=74 time=85
note_off channel=0 note=57 velocity=0 time=0
note_off channel=0 note=60 velocity=0 time=0
note_off channel=0 note=65 velocity=0 time=0
note_on channel=0 note=57 velocity=43 time=0
note_on channel=0 note=60 velocity=43 time=0
note_on channel=0 note=65 velocity=43 time=0
note_off channel=0 note=72 velocity=0 time=1
note_on channel=0 note=74 velocity=78 time=85
note_off channel=0 note=57 velocity=0 time=0
note_off channel=0 note=60 velocity=0 time=0
note_off channel=0 note=65 velocity=0 time=0
note_on channel=0 note=58 velocity=45 time=0
note_on channel=0 note=60 velocity=45 time=0
note_on channel=0 note=67 velocity=45 time=0
note_off channel=0 note=73 velocity=0 time=1
note_on channel=0 note=75 velocity=79 time=84
note_off channel=0 note=58 velocity=0 time=0
note_off channel=0 note=60 velocity=0 time=0
note_off channel=0 note=67 velocity=0 time=0
note_on channel=0 note=58 velocity=43 time=0
note_on channel=0 note=60 velocity=43 time=0
note_on channel=0 note=67 velocity=43 time=0
note_off channel=0 note=74 velocity=0 time=1
note_on channel=0 note=76 velocity=79 time=84
note_off channel=0 note=58 velocity=0 time=0
note_off channel=0 note=60 velocity=0 time=0
note_off channel=0 note=67 velocity=0 time=0
note_on channel=0 note=58 velocity=43 time=0
note_on channel=0 note=60 velocity=43 time=0
note_on channel=0 note=67 velocity=43 time=0
note_off channel=0 note=75 velocity=0 time=1
note_off channel=0 note=76 velocity=0 time=80
note_on channel=0 note=77 velocity=81 time=5
note_off channel=0 note=58 velocity=0 time=0
note_off channel=0 note=60 velocity=0 time=0
note_off channel=0 note=67 velocity=0 time=0
note_on channel=0 note=57 velocity=44 time=0
note_on channel=0 note=60 velocity=44 time=0
note_on channel=0 note=65 velocity=44 time=0
note_off channel=0 note=57 velocity=0 time=85
note_off channel=0 note=60 velocity=0 time=0
note_off channel=0 note=65 velocity=0 time=0
note_on channel=0 note=57 velocity=42 time=0
note_on channel=0 note=60 velocity=42 time=0
note_on channel=0 note=65 velocity=42 time=0
note_off channel=0 note=57 velocity=0 time=85
note_off channel=0 note=60 velocity=0 time=0
note_off channel=0 note=65 velocity=0 time=0
note_on channel=0 note=57 velocity=43 time=0
note_on channel=0 note=60 velocity=43 time=0
note_on channel=0 note=65 velocity=43 time=0
note_off channel=0 note=57 velocity=0 time=86
note_off channel=0 note=60 velocity=0 time=0
note_off channel=0 note=65 velocity=0 time=0
note_on channel=0 note=57 velocity=44 time=0
note_on channel=0 note=60 velocity=44 time=0
note_on channel=0 note=65 velocity=44 time=0
note_off channel=0 note=57 velocity=0 time=85
note_off channel=0 note=60 velocity=0 time=0
note_off channel=0 note=65 velocity=0 time=0
note_on channel=0 note=57 velocity=43 time=0
note_on channel=0 note=60 velocity=43 time=0
note_on channel=0 note=65 velocity=43 time=0
note_off channel=0 note=57 velocity=0 time=85
note_off channel=0 note=60 velocity=0 time=0
note_off channel=0 note=65 velocity=0 time=0
note_on channel=0 note=57 velocity=45 time=0
note_on channel=0 note=60 velocity=45 time=0
note_on channel=0 note=65 velocity=45 time=0
note_off channel=0 note=77 velocity=0 time=86
note_on channel=0 note=76 velocity=71 time=0
note_off channel=0 note=57 velocity=0 time=0
note_off channel=0 note=60 velocity=0 time=0
note_off channel=0 note=65 velocity=0 time=0
note_on channel=0 note=55 velocity=44 time=0
note_on channel=0 note=62 velocity=44 time=0
note_on channel=0 note=65 velocity=44 time=0
note_off channel=0 note=55 velocity=0 time=85
note_off channel=0 note=62 velocity=0 time=0
note_off channel=0 note=65 velocity=0 time=0
note_on channel=0 note=55 velocity=43 time=0
note_on channel=0 note=62 velocity=43 time=0
note_on channel=0 note=65 velocity=43 time=0
note_on channel=0 note=74 velocity=68 time=43
note_off channel=0 note=76 velocity=0 time=2
note_off channel=0 note=55 velocity=0 time=40
note_off channel=0 note=62 velocity=0 time=0
note_off channel=0 note=65 velocity=0 time=0
note_on channel=0 note=55 velocity=43 time=0
note_on channel=0 note=62 velocity=43 time=0
note_on channel=0 note=65 velocity=43 time=0
note_on channel=0 note=72 velocity=77 time=86
note_off channel=0 note=55 velocity=0 time=0
note_off channel=0 note=62 velocity=0 time=0
note_off channel=0 note=65 velocity=0 time=0
note_on channel=0 note=55 velocity=44 time=0
note_on channel=0 note=62 velocity=44 time=0
note_on channel=0 note=65 velocity=44 time=0
note_off channel=0 note=74 velocity=0 time=2
note_off channel=0 note=55 velocity=0 time=83
note_off channel=0 note=62 velocity=0 time=0
note_off channel=0 note=65 velocity=0 time=0
note_on channel=0 note=55 velocity=44 time=0
note_on channel=0 note=62 velocity=44 time=0
note_on channel=0 note=65 velocity=44 time=0
note_on channel=0 note=70 velocity=74 time=43
note_off channel=0 note=72 velocity=0 time=2
note_off channel=0 note=55 velocity=0 time=40
note_off channel=0 note=62 velocity=0 time=0
note_off channel=0 note=65 velocity=0 time=0
note_on channel=0 note=55 velocity=44 time=0
note_on channel=0 note=62 velocity=44 time=0
note_on channel=0 note=65 velocity=44 time=0
note_off channel=0 note=70 velocity=0 time=76
note_on channel=0 note=69 velocity=75 time=0
note_off channel=0 note=55 velocity=0 time=10
note_off channel=0 note=62 velocity=0 time=0
note_off channel=0 note=65 velocity=0 time=0
note_on channel=0 note=55 velocity=44 time=0
note_on channel=0 note=60 velocity=44 time=0
note_on channel=0 note=65 velocity=44 time=0
note_off channel=0 note=55 velocity=0 time=85
note_off channel=0 note=60 velocity=0 time=0
note_off channel=0 note=65 velocity=0 time=0
note_on channel=0 note=55 velocity=44 time=0
note_on channel=0 note=60 velocity=44 time=0
note_on channel=0 note=65 velocity=44 time=0
note_off channel=0 note=69 velocity=0 time=33
note_on channel=0 note=67 velocity=75 time=10
note_off channel=0 note=55 velocity=0 time=42
note_off channel=0 note=60 velocity=0 time=0
note_off channel=0 note=65 velocity=0 time=0
note_on channel=0 note=55 velocity=43 time=0
note_on channel=0 note=60 velocity=43 time=0
note_on channel=0 note=65 velocity=43 time=0
note_off channel=0 note=55 velocity=0 time=86
note_off channel=0 note=60 velocity=0 time=0
note_off channel=0 note=65 velocity=0 time=0
note_on channel=0 note=55 velocity=44 time=0
note_on channel=0 note=62 velocity=44 time=0
note_on channel=0 note=65 velocity=44 time=0
note_off channel=0 note=55 velocity=0 time=85
note_off channel=0 note=62 velocity=0 time=0
note_off channel=0 note=65 velocity=0 time=0
note_on channel=0 note=55 velocity=43 time=0
note_on channel=0 note=62 velocity=43 time=0
note_on channel=0 note=65 velocity=43 time=0
note_off channel=0 note=55 velocity=0 time=85
note_off channel=0 note=62 velocity=0 time=0
note_off channel=0 note=65 velocity=0 time=0
note_on channel=0 note=55 velocity=43 time=0
note_on channel=0 note=62 velocity=43 time=0
note_on channel=0 note=65 velocity=43 time=0
note_off channel=0 note=55 velocity=0 time=86
note_off channel=0 note=62 velocity=0 time=0
note_off channel=0 note=65 velocity=0 time=0
note_on channel=0 note=55 velocity=42 time=0
note_on channel=0 note=60 velocity=42 time=0
note_on channel=0 note=65 velocity=42 time=0
note_off channel=0 note=55 velocity=0 time=85
note_off channel=0 note=60 velocity=0 time=0
note_off channel=0 note=65 velocity=0 time=0
note_on channel=0 note=55 velocity=42 time=0
note_on channel=0 note=60 velocity=42 time=0
note_on channel=0 note=65 velocity=42 time=0
note_on channel=0 note=69 velocity=80 time=43
note_off channel=0 note=69 velocity=0 time=32
note_on channel=0 note=67 velocity=75 time=0
note_off channel=0 note=55 velocity=0 time=10
note_off channel=0 note=60 velocity=0 time=0
note_off channel=0 note=65 velocity=0 time=0
note_on channel=0 note=55 velocity=44 time=0
note_on channel=0 note=60 velocity=44 time=0
note_on channel=0 note=65 velocity=44 time=0
note_off channel=0 note=67 velocity=0 time=22
note_on channel=0 note=66 velocity=76 time=0
note_off channel=0 note=67 velocity=0 time=32
note_off channel=0 note=66 velocity=0 time=0
note_on channel=0 note=67 velocity=77 time=0
note_off channel=0 note=67 velocity=0 time=32
note_on channel=0 note=72 velocity=78 time=0
note_off channel=0 note=55 velocity=0 time=0
note_off channel=0 note=60 velocity=0 time=0
note_off channel=0 note=65 velocity=0 time=0
note_on channel=0 note=58 velocity=45 time=0
note_on channel=0 note=60 velocity=45 time=0
note_on channel=0 note=65 velocity=45 time=0
note_off channel=0 note=58 velocity=0 time=85
note_off channel=0 note=60 velocity=0 time=0
note_off channel=0 note=65 velocity=0 time=0
note_on channel=0 note=58 velocity=44 time=0
note_on channel=0 note=60 velocity=44 time=0
note_on channel=0 note=65 velocity=44 time=0
note_off channel=0 note=58 velocity=0 time=85
note_off channel=0 note=60 velocity=0 time=0
note_off channel=0 note=65 velocity=0 time=0
note_on channel=0 note=58 velocity=43 time=0
note_on channel=0 note=60 velocity=43 time=0
note_on channel=0 note=65 velocity=43 time=0
note_off channel=0 note=72 velocity=0 time=73
note_on channel=0 note=65 velocity=60 time=13
note_off channel=0 note=58 velocity=0 time=0
note_off channel=0 note=60 velocity=0 time=0
note_off channel=0 note=65 velocity=0 time=0
note_on channel=0 note=57 velocity=39 time=0
note_on channel=0 note=60 velocity=39 time=0
note_on channel=0 note=69 velocity=58 time=85
note_on channel=0 note=72 velocity=58 time=0
note_off channel=0 note=69 velocity=0 time=85
note_off channel=0 note=72 velocity=0 time=0
note_on channel=0 note=69 velocity=69 time=0
note_on channel=0 note=72 velocity=69 time=0
note_off channel=0 note=65 velocity=0 time=86
note_off channel=0 note=69 velocity=0 time=0
note_off channel=0 note=72 velocity=0 time=0
note_on channel=0 note=69 velocity=70 time=0
note_on channel=0 note=72 velocity=70 time=0
note_off channel=0 note=57 velocity=0 time=0
note_off channel=0 note=60 velocity=0 time=0
note_off channel=0 note=69 velocity=0 time=85
note_off channel=0 note=72 velocity=0 time=0
note_on channel=0 note=65 velocity=65 time=0
note_on channel=0 note=69 velocity=65 time=0
note_off channel=0 note=65 velocity=0 time=85
note_off channel=0 note=69 velocity=0 time=0
note_on channel=0 note=65 velocity=70 time=0
note_on channel=0 note=69 velocity=70 time=0
note_off channel=0 note=65 velocity=0 time=86
note_off channel=0 note=69 velocity=0 time=0
note_on channel=0 note=65 velocity=68 time=0
note_on channel=0 note=69 velocity=68 time=0
note_off channel=0 note=65 velocity=0 time=85
note_off channel=0 note=69 velocity=0 time=0
note_on channel=0 note=60 velocity=66 time=0
note_on channel=0 note=65 velocity=66 time=0
note_off channel=0 note=60 velocity=0 time=85
note_off channel=0 note=65 velocity=0 time=0
note_on channel=0 note=60 velocity=68 time=0
note_on channel=0 note=65 velocity=68 time=0
note_off channel=0 note=60 velocity=0 time=86
note_off channel=0 note=65 velocity=0 time=0
note_on channel=0 note=60 velocity=69 time=0
note_on channel=0 note=65 velocity=69 time=0
note_off channel=0 note=60 velocity=0 time=85
note_off channel=0 note=65 velocity=0 time=0
note_on channel=0 note=60 velocity=69 time=0
note_on channel=0 note=65 velocity=69 time=0
note_off channel=0 note=60 velocity=0 time=85
note_off channel=0 note=65 velocity=0 time=0
note_on channel=0 note=60 velocity=67 time=0
note_on channel=0 note=65 velocity=67 time=0
note_off channel=0 note=60 velocity=0 time=86
note_off channel=0 note=65 velocity=0 time=0
note_on channel=0 note=65 velocity=68 time=0
note_on channel=0 note=53 velocity=61 time=0
note_on channel=0 note=57 velocity=47 time=85
note_on channel=0 note=60 velocity=47 time=0
note_off channel=0 note=57 velocity=0 time=85
note_off channel=0 note=60 velocity=0 time=0
note_on channel=0 note=57 velocity=52 time=0
note_on channel=0 note=60 velocity=52 time=0
note_off channel=0 note=65 velocity=0 time=86
note_off channel=0 note=57 velocity=0 time=0
note_off channel=0 note=60 velocity=0 time=0
note_on channel=0 note=57 velocity=51 time=0
note_on channel=0 note=60 velocity=51 time=0
note_off channel=0 note=57 velocity=0 time=85
note_off channel=0 note=60 velocity=0 time=0
note_on channel=0 note=57 velocity=49 time=0
note_on channel=0 note=60 velocity=49 time=0
note_off channel=0 note=57 velocity=0 time=85
note_off channel=0 note=60 velocity=0 time=0
note_on channel=0 note=57 velocity=50 time=0
note_on channel=0 note=60 velocity=50 time=0
note_off channel=0 note=53 velocity=0 time=86
note_off channel=0 note=57 velocity=0 time=0
note_off channel=0 note=60 velocity=0 time=0
note_on channel=0 note=53 velocity=51 time=0
note_on channel=0 note=57 velocity=46 time=85
note_on channel=0 note=60 velocity=46 time=0
note_off channel=0 note=57 velocity=0 time=85
note_off channel=0 note=60 velocity=0 time=0
note_on channel=0 note=57 velocity=48 time=0
note_on channel=0 note=60 velocity=48 time=0
note_off channel=0 note=57 velocity=0 time=86
note_off channel=0 note=60 velocity=0 time=0
note_on channel=0 note=57 velocity=50 time=0
note_on channel=0 note=60 velocity=50 time=0
note_off channel=0 note=57 velocity=0 time=85
note_off channel=0 note=60 velocity=0 time=0
note_on channel=0 note=57 velocity=51 time=0
note_on channel=0 note=60 velocity=51 time=0
note_off channel=0 note=57 velocity=0 time=85
note_off channel=0 note=60 velocity=0 time=0
note_on channel=0 note=57 velocity=54 time=0
note_on channel=0 note=60 velocity=54 time=0
note_on channel=0 note=77 velocity=68 time=86
note_off channel=0 note=53 velocity=0 time=0
note_off channel=0 note=57 velocity=0 time=0
note_off channel=0 note=60 velocity=0 time=0
note_on channel=0 note=53 velocity=51 time=0
note_on channel=0 note=57 velocity=39 time=85
note_on channel=0 note=60 velocity=39 time=0
note_off channel=0 note=57 velocity=0 time=85
note_off channel=0 note=60 velocity=0 time=0
note_on channel=0 note=57 velocity=42 time=0
note_on channel=0 note=60 velocity=42 time=0
note_off channel=0 note=57 velocity=0 time=86
note_off channel=0 note=60 velocity=0 time=0
note_on channel=0 note=57 velocity=42 time=0
note_on channel=0 note=60 velocity=42 time=0
note_off channel=0 note=57 velocity=0 time=85
note_off channel=0 note=60 velocity=0 time=0
note_on channel=0 note=57 velocity=43 time=0
note_on channel=0 note=60 velocity=43 time=0
note_off channel=0 note=57 velocity=0 time=85
note_off channel=0 note=60 velocity=0 time=0
note_on channel=0 note=57 velocity=43 time=0
note_on channel=0 note=60 velocity=43 time=0
note_off channel=0 note=77 velocity=0 time=22
note_on channel=0 note=72 velocity=69 time=0
note_off channel=0 note=72 velocity=0 time=64
note_on channel=0 note=81 velocity=85 time=0
note_off channel=0 note=53 velocity=0 time=0
note_off channel=0 note=57 velocity=0 time=0
note_off channel=0 note=60 velocity=0 time=0
note_on channel=0 note=53 velocity=52 time=0
note_on channel=0 note=57 velocity=38 time=85
note_on channel=0 note=60 velocity=38 time=0
note_off channel=0 note=57 velocity=0 time=85
note_off channel=0 note=60 velocity=0 time=0
note_on channel=0 note=57 velocity=43 time=0
note_on channel=0 note=60 velocity=43 time=0
note_off channel=0 note=57 velocity=0 time=86
note_off channel=0 note=60 velocity=0 time=0
note_on channel=0 note=57 velocity=43 time=0
note_on channel=0 note=60 velocity=43 time=0
note_off channel=0 note=57 velocity=0 time=85
note_off channel=0 note=60 velocity=0 time=0
note_on channel=0 note=57 velocity=45 time=0
note_on channel=0 note=60 velocity=45 time=0
note_off channel=0 note=57 velocity=0 time=85
note_off channel=0 note=60 velocity=0 time=0
note_on channel=0 note=57 velocity=42 time=0
note_on channel=0 note=60 velocity=42 time=0
note_off channel=0 note=81 velocity=0 time=22
note_on channel=0 note=77 velocity=73 time=0
note_off channel=0 note=77 velocity=0 time=64
note_on channel=0 note=84 velocity=82 time=0
note_off channel=0 note=53 velocity=0 time=0
note_off channel=0 note=57 velocity=0 time=0
note_off channel=0 note=60 velocity=0 time=0
note_on channel=0 note=53 velocity=50 time=0
note_on channel=0 note=57 velocity=40 time=85
note_on channel=0 note=60 velocity=40 time=0
note_off channel=0 note=57 velocity=0 time=85
note_off channel=0 note=60 velocity=0 time=0
note_on channel=0 note=57 velocity=41 time=0
note_on channel=0 note=60 velocity=41 time=0
note_off channel=0 note=57 velocity=0 time=86
note_off channel=0 note=60 velocity=0 time=0
note_on channel=0 note=57 velocity=42 time=0
note_on channel=0 note=60 velocity=42 time=0
note_off channel=0 note=57 velocity=0 time=85
note_off channel=0 note=60 velocity=0 time=0
note_on channel=0 note=57 velocity=43 time=0
note_on channel=0 note=60 velocity=43 time=0
note_off channel=0 note=57 velocity=0 time=85
note_off channel=0 note=60 velocity=0 time=0
note_on channel=0 note=57 velocity=44 time=0
note_on channel=0 note=60 velocity=44 time=0
note_off channel=0 note=53 velocity=0 time=86
note_off channel=0 note=57 velocity=0 time=0
note_off channel=0 note=60 velocity=0 time=0
note_on channel=0 note=53 velocity=50 time=0
note_on channel=0 note=57 velocity=36 time=85
note_on channel=0 note=60 velocity=36 time=0
note_off channel=0 note=57 velocity=0 time=85
note_off channel=0 note=60 velocity=0 time=0
note_on channel=0 note=57 velocity=43 time=0
note_on channel=0 note=60 velocity=43 time=0
note_off channel=0 note=84 velocity=0 time=86
note_on channel=0 note=82 velocity=75 time=0
note_off channel=0 note=57 velocity=0 time=0
note_off channel=0 note=60 velocity=0 time=0
note_on channel=0 note=57 velocity=43 time=0
note_on channel=0 note=60 velocity=43 time=0
note_off channel=0 note=82 velocity=0 time=64
note_on channel=0 note=81 velocity=72 time=3
note_off channel=0 note=57 velocity=0 time=18
note_off channel=0 note=60 velocity=0 time=0
note_on channel=0 note=57 velocity=46 time=0
note_on channel=0 note=60 velocity=46 time=0
note_on channel=0 note=79 velocity=75 time=45
note_off channel=0 note=81 velocity=0 time=1
note_off channel=0 note=57 velocity=0 time=39
note_off channel=0 note=60 velocity=0 time=0
note_on channel=0 note=57 velocity=44 time=0
note_on channel=0 note=60 velocity=44 time=0
note_on channel=0 note=77 velocity=74 time=23
note_off channel=0 note=79 velocity=0 time=1
note_on channel=0 note=78 velocity=78 time=62
note_off channel=0 note=53 velocity=0 time=0
note_off channel=0 note=57 velocity=0 time=0
note_off channel=0 note=60 velocity=0 time=0
note_on channel=0 note=48 velocity=49 time=0
note_off channel=0 note=77 velocity=0 time=1
note_on channel=0 note=52 velocity=30 time=84
note_on channel=0 note=55 velocity=30 time=0
note_on channel=0 note=58 velocity=30 time=0
note_off channel=0 note=52 velocity=0 time=85
note_off channel=0 note=55 velocity=0 time=0
note_off channel=0 note=58 velocity=0 time=0
note_on channel=0 note=52 velocity=30 time=0
note_on channel=0 note=55 velocity=30 time=0
note_on channel=0 note=58 velocity=30 time=0
note_on channel=0 note=79 velocity=81 time=86
note_off channel=0 note=52 velocity=0 time=0
note_off channel=0 note=55 velocity=0 time=0
note_off channel=0 note=58 velocity=0 time=0
note_on channel=0 note=52 velocity=30 time=0
note_on channel=0 note=55 velocity=30 time=0
note_on channel=0 note=58 velocity=30 time=0
note_off channel=0 note=78 velocity=0 time=5
note_off channel=0 note=52 velocity=0 time=80
note_off channel=0 note=55 velocity=0 time=0
note_off channel=0 note=58 velocity=0 time=0
note_on channel=0 note=52 velocity=30 time=0
note_on channel=0 note=55 velocity=30 time=0
note_on channel=0 note=58 velocity=30 time=0
note_off channel=0 note=52 velocity=0 time=85
note_off channel=0 note=55 velocity=0 time=0
note_off channel=0 note=58 velocity=0 time=0
note_on channel=0 note=52 velocity=30 time=0
note_on channel=0 note=55 velocity=30 time=0
note_on channel=0 note=58 velocity=30 time=0
note_off channel=0 note=79 velocity=0 time=73
note_off channel=0 note=48 velocity=0 time=13
note_off channel=0 note=52 velocity=0 time=0
note_off channel=0 note=55 velocity=0 time=0
note_off channel=0 note=58 velocity=0 time=0
note_on channel=0 note=48 velocity=52 time=0
note_on channel=0 note=52 velocity=30 time=85
note_on channel=0 note=55 velocity=30 time=0
note_on channel=0 note=58 velocity=30 time=0
note_off channel=0 note=52 velocity=0 time=85
note_off channel=0 note=55 velocity=0 time=0
note_off channel=0 note=58 velocity=0 time=0
note_on channel=0 note=52 velocity=30 time=0
note_on channel=0 note=55 velocity=30 time=0
note_on channel=0 note=58 velocity=30 time=0
note_off channel=0 note=52 velocity=0 time=86
note_off channel=0 note=55 velocity=0 time=0
note_off channel=0 note=58 velocity=0 time=0
note_on channel=0 note=52 velocity=30 time=0
note_on channel=0 note=55 velocity=30 time=0
note_on channel=0 note=58 velocity=30 time=0
note_off channel=0 note=52 velocity=0 time=85
note_off channel=0 note=55 velocity=0 time=0
note_off channel=0 note=58 velocity=0 time=0
note_on channel=0 note=52 velocity=30 time=0
note_on channel=0 note=55 velocity=30 time=0
note_on channel=0 note=58 velocity=30 time=0
note_off channel=0 note=52 velocity=0 time=85
note_off channel=0 note=55 velocity=0 time=0
note_off channel=0 note=58 velocity=0 time=0
note_on channel=0 note=52 velocity=30 time=0
note_on channel=0 note=55 velocity=30 time=0
note_on channel=0 note=58 velocity=30 time=0
note_on channel=0 note=72 velocity=70 time=86
note_off channel=0 note=48 velocity=0 time=0
note_off channel=0 note=52 velocity=0 time=0
note_off channel=0 note=55 velocity=0 time=0
note_off channel=0 note=58 velocity=0 time=0
note_on channel=0 note=48 velocity=55 time=0
note_on channel=0 note=52 velocity=30 time=85
note_on channel=0 note=55 velocity=30 time=0
note_on channel=0 note=58 velocity=30 time=0
note_off channel=0 note=52 velocity=0 time=85
note_off channel=0 note=55 velocity=0 time=0
note_off channel=0 note=58 velocity=0 time=0
note_on channel=0 note=52 velocity=30 time=0
note_on channel=0 note=55 velocity=30 time=0
note_on channel=0 note=58 velocity=30 time=0
note_off channel=0 note=52 velocity=0 time=86
note_off channel=0 note=55 velocity=0 time=0
note_off channel=0 note=58 velocity=0 time=0
note_on channel=0 note=52 velocity=30 time=0
note_on channel=0 note=55 velocity=30 time=0
note_on channel=0 note=58 velocity=30 time=0
note_off channel=0 note=52 velocity=0 time=85
note_off channel=0 note=55 velocity=0 time=0
note_off channel=0 note=58 velocity=0 time=0
note_on channel=0 note=52 velocity=30 time=0
note_on channel=0 note=55 velocity=30 time=0
note_on channel=0 note=58 velocity=30 time=0
note_off channel=0 note=52 velocity=0 time=85
note_off channel=0 note=55 velocity=0 time=0
note_off channel=0 note=58 velocity=0 time=0
note_on channel=0 note=52 velocity=30 time=0
note_on channel=0 note=55 velocity=30 time=0
note_on channel=0 note=58 velocity=30 time=0
note_on channel=0 note=76 velocity=73 time=86
note_off channel=0 note=48 velocity=0 time=0
note_off channel=0 note=52 velocity=0 time=0
note_off channel=0 note=55 velocity=0 time=0
note_off channel=0 note=58 velocity=0 time=0
note_on channel=0 note=48 velocity=52 time=0
note_off channel=0 note=72 velocity=0 time=10
note_on channel=0 note=52 velocity=30 time=75
note_on channel=0 note=55 velocity=30 time=0
note_on channel=0 note=58 velocity=30 time=0
note_off channel=0 note=52 velocity=0 time=85
note_off channel=0 note=55 velocity=0 time=0
note_off channel=0 note=58 velocity=0 time=0
note_on channel=0 note=52 velocity=30 time=0
note_on channel=0 note=55 velocity=30 time=0
note_on channel=0 note=58 velocity=30 time=0
note_on channel=0 note=79 velocity=77 time=86
note_off channel=0 note=52 velocity=0 time=0
note_off channel=0 note=55 velocity=0 time=0
note_off channel=0 note=58 velocity=0 time=0
note_on channel=0 note=52 velocity=30 time=0
note_on channel=0 note=55 velocity=30 time=0
note_on channel=0 note=58 velocity=30 time=0
note_off channel=0 note=76 velocity=0 time=5
note_off channel=0 note=52 velocity=0 time=80
note_off channel=0 note=55 velocity=0 time=0
note_off channel=0 note=58 velocity=0 time=0
note_on channel=0 note=52 velocity=30 time=0
note_on channel=0 note=55 velocity=30 time=0
note_on channel=0 note=58 velocity=30 time=0
note_off channel=0 note=52 velocity=0 time=85
note_off channel=0 note=55 velocity=0 time=0
note_off channel=0 note=58 velocity=0 time=0
note_on channel=0 note=52 velocity=30 time=0
note_on channel=0 note=55 velocity=30 time=0
note_on channel=0 note=58 velocity=30 time=0
note_off channel=0 note=79 velocity=0 time=73
note_on channel=0 note=82 velocity=80 time=13
note_off channel=0 note=48 velocity=0 time=0
note_off channel=0 note=52 velocity=0 time=0
note_off channel=0 note=55 velocity=0 time=0
note_off channel=0 note=58 velocity=0 time=0
note_on channel=0 note=48 velocity=48 time=0
note_on channel=0 note=52 velocity=30 time=85
note_on channel=0 note=55 velocity=30 time=0
note_on channel=0 note=58 velocity=30 time=0
note_off channel=0 note=52 velocity=0 time=85
note_off channel=0 note=55 velocity=0 time=0
note_off channel=0 note=58 velocity=0 time=0
note_on channel=0 note=52 velocity=30 time=0
note_on channel=0 note=55 velocity=30 time=0
note_on channel=0 note=58 velocity=30 time=0
note_off channel=0 note=52 velocity=0 time=86
note_off channel=0 note=55 velocity=0 time=0
note_off channel=0 note=58 velocity=0 time=0
note_on channel=0 note=52 velocity=30 time=0
note_on channel=0 note=55 velocity=30 time=0
note_on channel=0 note=58 velocity=30 time=0
note_off channel=0 note=52 velocity=0 time=85
note_off channel=0 note=55 velocity=0 time=0
note_off channel=0 note=58 velocity=0 time=0
note_on channel=0 note=52 velocity=30 time=0
note_on channel=0 note=55 velocity=30 time=0
note_on channel=0 note=58 velocity=30 time=0
note_off channel=0 note=52 velocity=0 time=85
note_off channel=0 note=55 velocity=0 time=0
note_off channel=0 note=58 velocity=0 time=0
note_on channel=0 note=52 velocity=30 time=0
note_on channel=0 note=55 velocity=30 time=0
note_on channel=0 note=58 velocity=30 time=0
note_off channel=0 note=48 velocity=0 time=86
note_off channel=0 note=52 velocity=0 time=0
note_off channel=0 note=55 velocity=0 time=0
note_off channel=0 note=58 velocity=0 time=0
note_on channel=0 note=48 velocity=50 time=0
note_on channel=0 note=52 velocity=30 time=85
note_on channel=0 note=55 velocity=30 time=0
note_on channel=0 note=58 velocity=30 time=0
note_on channel=0 note=86 velocity=82 time=40
note_off channel=0 note=82 velocity=0 time=3
note_off channel=0 note=52 velocity=0 time=42
note_off channel=0 note=55 velocity=0 time=0
note_off channel=0 note=58 velocity=0 time=0
note_on channel=0 note=52 velocity=30 time=0
note_on channel=0 note=55 velocity=30 time=0
note_on channel=0 note=58 velocity=30 time=0
note_on channel=0 note=84 velocity=80 time=84
note_off channel=0 note=86 velocity=0 time=1
note_off channel=0 note=52 velocity=0 time=1
note_off channel=0 note=55 velocity=0 time=0
note_off channel=0 note=58 velocity=0 time=0
note_on channel=0 note=52 velocity=30 time=0
note_on channel=0 note=55 velocity=30 time=0
note_on channel=0 note=58 velocity=30 time=0
note_off channel=0 note=52 velocity=0 time=85
note_off channel=0 note=55 velocity=0 time=0
note_off channel=0 note=58 velocity=0 time=0
note_on channel=0 note=52 velocity=30 time=0
note_on channel=0 note=55 velocity=30 time=0
note_on channel=0 note=58 velocity=30 time=0
note_off channel=0 note=84 velocity=0 time=43
note_on channel=0 note=82 velocity=72 time=0
note_off channel=0 note=52 velocity=0 time=42
note_off channel=0 note=55 velocity=0 time=0
note_off channel=0 note=58 velocity=0 time=0
note_on channel=0 note=52 velocity=30 time=0
note_on channel=0 note=55 velocity=30 time=0
note_on channel=0 note=58 velocity=30 time=0
note_off channel=0 note=82 velocity=0 time=79
note_on channel=0 note=80 velocity=75 time=7
note_off channel=0 note=48 velocity=0 time=0
note_off channel=0 note=52 velocity=0 time=0
note_off channel=0 note=55 velocity=0 time=0
note_off channel=0 note=58 velocity=0 time=0
note_on channel=0 note=53 velocity=50 time=0
note_on channel=0 note=57 velocity=41 time=85
note_on channel=0 note=60 velocity=41 time=0
note_on channel=0 note=81 velocity=78 time=43
note_off channel=0 note=80 velocity=0 time=2
note_off channel=0 note=57 velocity=0 time=40
note_off channel=0 note=60 velocity=0 time=0
note_on channel=0 note=57 velocity=42 time=0
note_on channel=0 note=60 velocity=42 time=0
note_off channel=0 note=81 velocity=0 time=79
note_on channel=0 note=81 velocity=73 time=7
note_off channel=0 note=57 velocity=0 time=0
note_off channel=0 note=60 velocity=0 time=0
note_on channel=0 note=57 velocity=44 time=0
note_on channel=0 note=60 velocity=44 time=0
note_off channel=0 note=57 velocity=0 time=85
note_off channel=0 note=60 velocity=0 time=0
note_on channel=0 note=57 velocity=44 time=0
note_on channel=0 note=60 velocity=44 time=0
note_off channel=0 note=57 velocity=0 time=85
note_off channel=0 note=60 velocity=0 time=0
note_on channel=0 note=57 velocity=44 time=0
note_on channel=0 note=60 velocity=44 time=0
note_off channel=0 note=81 velocity=0 time=86
note_off channel=0 note=53 velocity=0 time=0
note_off channel=0 note=57 velocity=0 time=0
note_off channel=0 note=60 velocity=0 time=0
note_on channel=0 note=53 velocity=52 time=0
note_on channel=0 note=57 velocity=40 time=85
note_on channel=0 note=60 velocity=40 time=0
note_off channel=0 note=57 velocity=0 time=85
note_off channel=0 note=60 velocity=0 time=0
note_on channel=0 note=57 velocity=45 time=0
note_on channel=0 note=60 velocity=45 time=0
note_off channel=0 note=57 velocity=0 time=86
note_off channel=0 note=60 velocity=0 time=0
note_on channel=0 note=57 velocity=44 time=0
note_on channel=0 note=60 velocity=44 time=0
note_off channel=0 note=57 velocity=0 time=85
note_off channel=0 note=60 velocity=0 time=0
note_on channel=0 note=57 velocity=45 time=0
note_on channel=0 note=60 velocity=45 time=0
note_off channel=0 note=57 velocity=0 time=85
note_off channel=0 note=60 velocity=0 time=0
note_on channel=0 note=57 velocity=44 time=0
note_on channel=0 note=60 velocity=44 time=0
note_on channel=0 note=84 velocity=87 time=86
note_off channel=0 note=53 velocity=0 time=0
note_off channel=0 note=57 velocity=0 time=0
note_off channel=0 note=60 velocity=0 time=0
note_on channel=0 note=57 velocity=77 time=0
note_on channel=0 note=60 velocity=48 time=85
note_on channel=0 note=63 velocity=48 time=0
note_on channel=0 note=65 velocity=48 time=0
note_off channel=0 note=60 velocity=0 time=85
note_off channel=0 note=63 velocity=0 time=0
note_off channel=0 note=65 velocity=0 time=0
note_on channel=0 note=60 velocity=51 time=0
note_on channel=0 note=63 velocity=51 time=0
note_on channel=0 note=65 velocity=51 time=0
note_off channel=0 note=60 velocity=0 time=86
note_off channel=0 note=63 velocity=0 time=0
note_off channel=0 note=65 velocity=0 time=0
note_on channel=0 note=60 velocity=49 time=0
note_on channel=0 note=63 velocity=49 time=0
note_on channel=0 note=65 velocity=49 time=0
note_off channel=0 note=60 velocity=0 time=85
note_off channel=0 note=63 velocity=0 time=0
note_off channel=0 note=65 velocity=0 time=0
note_on channel=0 note=60 velocity=50 time=0
note_on channel=0 note=63 velocity=50 time=0
note_on channel=0 note=65 velocity=50 time=0
note_off channel=0 note=60 velocity=0 time=85
note_off channel=0 note=63 velocity=0 time=0
note_off channel=0 note=65 velocity=0 time=0
note_on channel=0 note=60 velocity=54 time=0
note_on channel=0 note=63 velocity=54 time=0
note_on channel=0 note=65 velocity=54 time=0
note_off channel=0 note=84 velocity=0 time=86
note_on channel=0 note=45 velocity=76 time=0
note_off channel=0 note=57 velocity=0 time=0
note_off channel=0 note=60 velocity=0 time=0
note_off channel=0 note=63 velocity=0 time=0
note_off channel=0 note=65 velocity=0 time=0
note_on channel=0 note=57 velocity=76 time=0
note_on channel=0 note=60 velocity=45 time=85
note_on channel=0 note=63 velocity=45 time=0
note_on channel=0 note=65 velocity=45 time=0
note_off channel=0 note=60 velocity=0 time=85
note_off channel=0 note=63 velocity=0 time=0
note_off channel=0 note=65 velocity=0 time=0
note_on channel=0 note=60 velocity=50 time=0
note_on channel=0 note=63 velocity=50 time=0
note_on channel=0 note=65 velocity=50 time=0
note_off channel=0 note=60 velocity=0 time=86
note_off channel=0 note=63 velocity=0 time=0
note_off channel=0 note=65 velocity=0 time=0
note_on channel=0 note=60 velocity=52 time=0
note_on channel=0 note=63 velocity=52 time=0
note_on channel=0 note=65 velocity=52 time=0
note_off channel=0 note=60 velocity=0 time=85
note_off channel=0 note=63 velocity=0 time=0
note_off channel=0 note=65 velocity=0 time=0
note_on channel=0 note=60 velocity=51 time=0
note_on channel=0 note=63 velocity=51 time=0
note_on channel=0 note=65 velocity=51 time=0
note_off channel=0 note=45 velocity=0 time=43
note_on channel=0 note=45 velocity=84 time=0
note_off channel=0 note=60 velocity=0 time=42
note_off channel=0 note=63 velocity=0 time=0
note_off channel=0 note=65 velocity=0 time=0
note_on channel=0 note=60 velocity=51 time=0
note_on channel=0 note=63 velocity=51 time=0
note_on channel=0 note=65 velocity=51 time=0
note_off channel=0 note=45 velocity=0 time=86
note_on channel=0 note=48 velocity=84 time=0
note_off channel=0 note=57 velocity=0 time=0
note_off channel=0 note=60 velocity=0 time=0
note_off channel=0 note=63 velocity=0 time=0
note_off channel=0 note=65 velocity=0 time=0
note_on channel=0 note=58 velocity=76 time=0
note_on channel=0 note=62 velocity=45 time=85
note_on channel=0 note=65 velocity=45 time=0
note_on channel=0 note=46 velocity=85 time=43
note_off channel=0 note=48 velocity=0 time=2
note_off channel=0 note=62 velocity=0 time=40
note_off channel=0 note=65 velocity=0 time=0
note_on channel=0 note=62 velocity=50 time=0
note_on channel=0 note=65 velocity=50 time=0
note_off channel=0 note=46 velocity=0 time=79
note_on channel=0 note=46 velocity=85 time=7
note_off channel=0 note=62 velocity=0 time=0
note_off channel=0 note=65 velocity=0 time=0
note_on channel=0 note=62 velocity=52 time=0
note_on channel=0 note=65 velocity=52 time=0
note_off channel=0 note=62 velocity=0 time=85
note_off channel=0 note=65 velocity=0 time=0
note_on channel=0 note=62 velocity=50 time=0
note_on channel=0 note=65 velocity=50 time=0
note_off channel=0 note=62 velocity=0 time=85
note_off channel=0 note=65 velocity=0 time=0
note_on channel=0 note=62 velocity=50 time=0
note_on channel=0 note=65 velocity=50 time=0
note_off channel=0 note=46 velocity=0 time=86
note_off channel=0 note=58 velocity=0 time=0
note_off channel=0 note=62 velocity=0 time=0
note_off channel=0 note=65 velocity=0 time=0
note_on channel=0 note=58 velocity=78 time=0
note_on channel=0 note=62 velocity=43 time=85
note_on channel=0 note=65 velocity=43 time=0
note_off channel=0 note=62 velocity=0 time=85
note_off channel=0 note=65 velocity=0 time=0
note_on channel=0 note=62 velocity=52 time=0
note_on channel=0 note=65 velocity=52 time=0
note_off channel=0 note=62 velocity=0 time=86
note_off channel=0 note=65 velocity=0 time=0
note_on channel=0 note=62 velocity=51 time=0
note_on channel=0 note=65 velocity=51 time=0
note_off channel=0 note=62 velocity=0 time=85
note_off channel=0 note=65 velocity=0 time=0
note_on channel=0 note=62 velocity=50 time=0
note_on channel=0 note=65 velocity=50 time=0
note_off channel=0 note=62 velocity=0 time=85
note_off channel=0 note=65 velocity=0 time=0
note_on channel=0 note=62 velocity=50 time=0
note_on channel=0 note=65 velocity=50 time=0
note_on channel=0 note=86 velocity=88 time=86
note_off channel=0 note=58 velocity=0 time=0
note_off channel=0 note=62 velocity=0 time=0
note_off channel=0 note=65 velocity=0 time=0
note_on channel=0 note=59 velocity=77 time=0
note_on channel=0 note=62 velocity=48 time=85
note_on channel=0 note=65 velocity=48 time=0
note_on channel=0 note=68 velocity=48 time=0
note_off channel=0 note=62 velocity=0 time=85
note_off channel=0 note=65 velocity=0 time=0
note_off channel=0 note=68 velocity=0 time=0
note_on channel=0 note=62 velocity=51 time=0
note_on channel=0 note=65 velocity=51 time=0
note_on channel=0 note=68 velocity=51 time=0
note_off channel=0 note=62 velocity=0 time=86
note_off channel=0 note=65 velocity=0 time=0
note_off channel=0 note=68 velocity=0 time=0
note_on channel=0 note=62 velocity=52 time=0
note_on channel=0 note=65 velocity=52 time=0
note_on channel=0 note=68 velocity=52 time=0
note_off channel=0 note=62 velocity=0 time=85
note_off channel=0 note=65 velocity=0 time=0
note_off channel=0 note=68 velocity=0 time=0
note_on channel=0 note=62 velocity=52 time=0
note_on channel=0 note=65 velocity=52 time=0
note_on channel=0 note=68 velocity=52 time=0
note_off channel=0 note=62 velocity=0 time=85
note_off channel=0 note=65 velocity=0 time=0
note_off channel=0 note=68 velocity=0 time=0
note_on channel=0 note=62 velocity=49 time=0
note_on channel=0 note=65 velocity=49 time=0
note_on channel=0 note=68 velocity=49 time=0
note_off channel=0 note=86 velocity=0 time=86
note_on channel=0 note=47 velocity=79 time=0
note_off channel=0 note=59 velocity=0 time=0
note_off channel=0 note=62 velocity=0 time=0
note_off channel=0 note=65 velocity=0 time=0
note_off channel=0 note=68 velocity=0 time=0
note_on channel=0 note=59 velocity=75 time=0
note_on channel=0 note=62 velocity=45 time=85
note_on channel=0 note=65 velocity=45 time=0
note_on channel=0 note=68 velocity=45 time=0
note_off channel=0 note=62 velocity=0 time=85
note_off channel=0 note=65 velocity=0 time=0
note_off channel=0 note=68 velocity=0 time=0
note_on channel=0 note=62 velocity=49 time=0
note_on channel=0 note=65 velocity=49 time=0
note_on channel=0 note=68 velocity=49 time=0
note_off channel=0 note=62 velocity=0 time=86
note_off channel=0 note=65 velocity=0 time=0
note_off channel=0 note=68 velocity=0 time=0
note_on channel=0 note=62 velocity=51 time=0
note_on channel=0 note=65 velocity=51 time=0
note_on channel=0 note=68 velocity=51 time=0
note_off channel=0 note=62 velocity=0 time=85
note_off channel=0 note=65 velocity=0 time=0
note_off channel=0 note=68 velocity=0 time=0
note_on channel=0 note=62 velocity=50 time=0
note_on channel=0 note=65 velocity=50 time=0
note_on channel=0 note=68 velocity=50 time=0
note_off channel=0 note=47 velocity=0 time=43
note_on channel=0 note=47 velocity=82 time=0
note_off channel=0 note=62 velocity=0 time=42
note_off channel=0 note=65 velocity=0 time=0
note_off channel=0 note=68 velocity=0 time=0
note_on channel=0 note=62 velocity=51 time=0
note_on channel=0 note=65 velocity=51 time=0
note_on channel=0 note=68 velocity=51 time=0
note_off channel=0 note=47 velocity=0 time=86
note_on channel=0 note=48 velocity=85 time=0
note_off channel=0 note=59 velocity=0 time=0
note_off channel=0 note=62 velocity=0 time=0
note_off channel=0 note=65 velocity=0 time=0
note_off channel=0 note=68 velocity=0 time=0
note_on channel=0 note=60 velocity=77 time=0
note_on channel=0 note=65 velocity=47 time=85
note_on channel=0 note=69 velocity=47 time=0
note_off channel=0 note=65 velocity=0 time=85
note_off channel=0 note=69 velocity=0 time=0
note_on channel=0 note=65 velocity=49 time=0
note_on channel=0 note=69 velocity=49 time=0
note_off channel=0 note=48 velocity=0 time=86
note_on channel=0 note=84 velocity=93 time=0
note_off channel=0 note=65 velocity=0 time=0
note_off channel=0 note=69 velocity=0 time=0
note_on channel=0 note=65 velocity=50 time=0
note_on channel=0 note=69 velocity=50 time=0
note_off channel=0 note=65 velocity=0 time=85
note_off channel=0 note=69 velocity=0 time=0
note_on channel=0 note=65 velocity=50 time=0
note_on channel=0 note=69 velocity=50 time=0
note_off channel=0 note=65 velocity=0 time=85
note_off channel=0 note=69 velocity=0 time=0
note_on channel=0 note=65 velocity=50 time=0
note_on channel=0 note=69 velocity=50 time=0
note_off channel=0 note=60 velocity=0 time=86
note_off channel=0 note=65 velocity=0 time=0
note_off channel=0 note=69 velocity=0 time=0
note_on channel=0 note=60 velocity=75 time=0
note_on channel=0 note=65 velocity=47 time=85
note_on channel=0 note=69 velocity=47 time=0
note_off channel=0 note=65 velocity=0 time=85
note_off channel=0 note=69 velocity=0 time=0
note_on channel=0 note=65 velocity=48 time=0
note_on channel=0 note=69 velocity=48 time=0
note_off channel=0 note=84 velocity=0 time=86
note_on channel=0 note=82 velocity=83 time=0
note_off channel=0 note=65 velocity=0 time=0
note_off channel=0 note=69 velocity=0 time=0
note_on channel=0 note=65 velocity=51 time=0
note_on channel=0 note=69 velocity=51 time=0
note_off channel=0 note=82 velocity=0 time=64
note_on channel=0 note=81 velocity=82 time=3
note_off channel=0 note=65 velocity=0 time=18
note_off channel=0 note=69 velocity=0 time=0
note_on channel=0 note=65 velocity=51 time=0
note_on channel=0 note=69 velocity=51 time=0
note_on channel=0 note=79 velocity=82 time=45
note_off channel=0 note=81 velocity=0 time=1
note_off channel=0 note=65 velocity=0 time=39
note_off channel=0 note=69 velocity=0 time=0
note_on channel=0 note=65 velocity=52 time=0
note_on channel=0 note=69 velocity=52 time=0
note_on channel=0 note=77 velocity=82 time=23
note_off channel=0 note=79 velocity=0 time=1
note_on channel=0 note=76 velocity=81 time=62
note_off channel=0 note=60 velocity=0 time=0
note_off channel=0 note=65 velocity=0 time=0
note_off channel=0 note=69 velocity=0 time=0
note_on channel=0 note=60 velocity=78 time=0
note_off channel=0 note=77 velocity=0 time=1
note_off channel=0 note=76 velocity=0 time=19
note_on channel=0 note=77 velocity=81 time=5
note_off channel=0 note=77 velocity=0 time=20
note_on channel=0 note=76 velocity=81 time=5
note_off channel=0 note=76 velocity=0 time=20
note_on channel=0 note=77 velocity=81 time=5
note_on channel=0 note=67 velocity=46 time=10
note_on channel=0 note=70 velocity=46 time=0
note_off channel=0 note=77 velocity=0 time=10
note_on channel=0 note=76 velocity=81 time=5
note_off channel=0 note=76 velocity=0 time=20
note_on channel=0 note=77 velocity=81 time=5
note_off channel=0 note=77 velocity=0 time=20
note_on channel=0 note=76 velocity=81 time=5
note_off channel=0 note=76 velocity=0 time=20
note_off channel=0 note=67 velocity=0 time=0
note_off channel=0 note=70 velocity=0 time=0
note_on channel=0 note=67 velocity=51 time=0
note_on channel=0 note=70 velocity=51 time=0
note_on channel=0 note=77 velocity=81 time=4
note_off channel=0 note=77 velocity=0 time=19
note_on channel=0 note=76 velocity=81 time=5
note_off channel=0 note=76 velocity=0 time=19
note_on channel=0 note=77 velocity=81 time=5
note_off channel=0 note=77 velocity=0 time=19
note_on channel=0 note=76 velocity=81 time=5
note_off channel=0 note=67 velocity=0 time=10
note_off channel=0 note=70 velocity=0 time=0
note_on channel=0 note=67 velocity=48 time=0
note_on channel=0 note=70 velocity=48 time=0
note_off channel=0 note=76 velocity=0 time=9
note_on channel=0 note=77 velocity=81 time=5
note_off channel=0 note=77 velocity=0 time=19
note_on channel=0 note=76 velocity=81 time=5
note_off channel=0 note=76 velocity=0 time=19
note_on channel=0 note=77 velocity=81 time=4
note_off channel=0 note=77 velocity=0 time=18
note_on channel=0 note=76 velocity=81 time=5
note_off channel=0 note=67 velocity=0 time=1
note_off channel=0 note=70 velocity=0 time=0
note_on channel=0 note=67 velocity=50 time=0
note_on channel=0 note=70 velocity=50 time=0
note_off channel=0 note=76 velocity=0 time=17
note_on channel=0 note=77 velocity=81 time=5
note_off channel=0 note=77 velocity=0 time=18
note_on channel=0 note=76 velocity=81 time=5
note_off channel=0 note=76 velocity=0 time=18
note_on channel=0 note=77 velocity=81 time=5
note_off channel=0 note=67 velocity=0 time=17
note_off channel=0 note=70 velocity=0 time=0
note_on channel=0 note=67 velocity=51 time=0
note_on channel=0 note=70 velocity=51 time=0
note_off channel=0 note=77 velocity=0 time=1
note_on channel=0 note=76 velocity=81 time=5
note_off channel=0 note=76 velocity=0 time=18
note_on channel=0 note=77 velocity=81 time=4
note_off channel=0 note=77 velocity=0 time=17
note_on channel=0 note=76 velocity=81 time=5
note_off channel=0 note=76 velocity=0 time=17
note_on channel=0 note=77 velocity=81 time=5
note_off channel=0 note=60 velocity=0 time=14
note_off channel=0 note=67 velocity=0 time=0
note_off channel=0 note=70 velocity=0 time=0
note_on channel=0 note=60 velocity=76 time=0
note_off channel=0 note=77 velocity=0 time=3
note_on channel=0 note=76 velocity=81 time=5
note_off channel=0 note=76 velocity=0 time=17
note_on channel=0 note=77 velocity=81 time=5
note_off channel=0 note=77 velocity=0 time=17
note_on channel=0 note=76 velocity=81 time=5
note_off channel=0 note=76 velocity=0 time=17
note_on channel=0 note=77 velocity=81 time=5
note_on channel=0 note=67 velocity=44 time=11
note_on channel=0 note=70 velocity=44 time=0
note_off channel=0 note=77 velocity=0 time=6
note_on channel=0 note=76 velocity=81 time=6
note_off channel=0 note=76 velocity=0 time=18
note_on channel=0 note=77 velocity=81 time=5
note_off channel=0 note=77 velocity=0 time=18
note_on channel=0 note=76 velocity=81 time=5
note_off channel=0 note=76 velocity=0 time=18
note_on channel=0 note=77 velocity=81 time=5
note_off channel=0 note=67 velocity=0 time=4
note_off channel=0 note=70 velocity=0 time=0
note_on channel=0 note=67 velocity=51 time=0
note_on channel=0 note=70 velocity=51 time=0
note_off channel=0 note=77 velocity=0 time=14
note_on channel=0 note=76 velocity=81 time=5
note_off channel=0 note=76 velocity=0 time=18
note_on channel=0 note=77 velocity=81 time=5
note_off channel=0 note=77 velocity=0 time=18
note_on channel=0 note=76 velocity=81 time=5
note_off channel=0 note=76 velocity=0 time=18
note_off channel=0 note=67 velocity=0 time=3
note_off channel=0 note=70 velocity=0 time=0
note_on channel=0 note=67 velocity=48 time=0
note_on channel=0 note=70 velocity=48 time=0
note_on channel=0 note=77 velocity=81 time=3
note_off channel=0 note=77 velocity=0 time=19
note_on channel=0 note=76 velocity=81 time=5
note_off channel=0 note=76 velocity=0 time=19
note_on channel=0 note=77 velocity=81 time=5
note_off channel=0 note=77 velocity=0 time=19
note_on channel=0 note=76 velocity=81 time=5
note_off channel=0 note=67 velocity=0 time=10
note_off channel=0 note=70 velocity=0 time=0
note_on channel=0 note=67 velocity=49 time=0
note_on channel=0 note=70 velocity=49 time=0
note_off channel=0 note=76 velocity=0 time=9
note_on channel=0 note=77 velocity=81 time=5
note_off channel=0 note=77 velocity=0 time=19
note_on channel=0 note=76 velocity=81 time=5
note_off channel=0 note=76 velocity=0 time=12
note_on channel=0 note=74 velocity=88 time=1
note_off channel=0 note=67 velocity=0 time=34
note_off channel=0 note=70 velocity=0 time=0
note_on channel=0 note=67 velocity=51 time=0
note_on channel=0 note=70 velocity=51 time=0
note_off channel=0 note=74 velocity=0 time=26
note_on channel=0 note=76 velocity=88 time=0
note_on channel=0 note=77 velocity=88 time=60
note_off channel=0 note=76 velocity=0 time=0
note_off channel=0 note=60 velocity=0 time=0
note_off channel=0 note=67 velocity=0 time=0
note_off channel=0 note=70 velocity=0 time=0
note_on channel=0 note=65 velocity=67 time=0
note_on channel=0 note=69 velocity=67 time=0
note_on channel=0 note=69 velocity=46 time=85
note_on channel=0 note=72 velocity=46 time=0
note_off channel=0 note=69 velocity=0 time=85
note_off channel=0 note=72 velocity=0 time=0
note_on channel=0 note=69 velocity=50 time=0
note_on channel=0 note=72 velocity=50 time=0
note_off channel=0 note=77 velocity=0 time=86
note_off channel=0 note=69 velocity=0 time=0
note_off channel=0 note=72 velocity=0 time=0
note_on channel=0 note=69 velocity=51 time=0
note_on channel=0 note=72 velocity=51 time=0
note_off channel=0 note=65 velocity=0 time=0
note_off channel=0 note=69 velocity=0 time=0
note_on channel=0 note=57 velocity=64 time=0
note_off channel=0 note=69 velocity=0 time=85
note_off channel=0 note=72 velocity=0 time=0
note_on channel=0 note=69 velocity=50 time=0
note_on channel=0 note=72 velocity=50 time=0
note_off channel=0 note=57 velocity=0 time=43
note_off channel=0 note=69 velocity=0 time=42
note_off channel=0 note=72 velocity=0 time=0
note_on channel=0 note=69 velocity=49 time=0
note_on channel=0 note=72 velocity=49 time=0
note_off channel=0 note=69 velocity=0 time=86
note_off channel=0 note=72 velocity=0 time=0
note_on channel=0 note=69 velocity=49 time=0
note_on channel=0 note=72 velocity=49 time=0
note_on channel=0 note=60 velocity=62 time=0
note_off channel=0 note=69 velocity=0 time=85
note_off channel=0 note=72 velocity=0 time=0
note_on channel=0 note=65 velocity=49 time=0
note_on channel=0 note=69 velocity=49 time=0
note_off channel=0 note=60 velocity=0 time=43
note_off channel=0 note=65 velocity=0 time=42
note_off channel=0 note=69 velocity=0 time=0
note_on channel=0 note=65 velocity=53 time=0
note_on channel=0 note=69 velocity=53 time=0
note_off channel=0 note=65 velocity=0 time=86
note_off channel=0 note=69 velocity=0 time=0
note_on channel=0 note=65 velocity=52 time=0
note_on channel=0 note=69 velocity=52 time=0
note_off channel=0 note=65 velocity=0 time=85
note_off channel=0 note=69 velocity=0 time=0
note_on channel=0 note=65 velocity=53 time=0
note_on channel=0 note=69 velocity=53 time=0
note_off channel=0 note=65 velocity=0 time=85
note_off channel=0 note=69 velocity=0 time=0
note_on channel=0 note=65 velocity=51 time=0
note_on channel=0 note=69 velocity=51 time=0
note_off channel=0 note=65 velocity=0 time=86
note_off channel=0 note=69 velocity=0 time=0
note_on channel=0 note=67 velocity=47 time=0
note_on channel=0 note=70 velocity=47 time=0
note_on channel=0 note=52 velocity=61 time=0
note_off channel=0 note=67 velocity=0 time=85
note_off channel=0 note=70 velocity=0 time=0
note_on channel=0 note=67 velocity=49 time=0
note_on channel=0 note=70 velocity=49 time=0
note_off channel=0 note=52 velocity=0 time=43
note_off channel=0 note=67 velocity=0 time=42
note_off channel=0 note=70 velocity=0 time=0
note_on channel=0 note=67 velocity=51 time=0
note_on channel=0 note=70 velocity=51 time=0
note_off channel=0 note=67 velocity=0 time=86
note_off channel=0 note=70 velocity=0 time=0
note_on channel=0 note=70 velocity=52 time=0
note_on channel=0 note=73 velocity=52 time=0
note_on channel=0 note=55 velocity=64 time=0
note_off channel=0 note=70 velocity=0 time=85
note_off channel=0 note=73 velocity=0 time=0
note_on channel=0 note=70 velocity=50 time=0
note_on channel=0 note=73 velocity=50 time=0
note_off channel=0 note=55 velocity=0 time=43
note_off channel=0 note=70 velocity=0 time=42
note_off channel=0 note=73 velocity=0 time=0
note_on channel=0 note=70 velocity=52 time=0
note_on channel=0 note=73 velocity=52 time=0
note_off channel=0 note=70 velocity=0 time=86
note_off channel=0 note=73 velocity=0 time=0
note_on channel=0 note=73 velocity=55 time=0
note_on channel=0 note=76 velocity=55 time=0
note_on channel=0 note=61 velocity=59 time=0
note_off channel=0 note=73 velocity=0 time=85
note_off channel=0 note=76 velocity=0 time=0
note_on channel=0 note=73 velocity=52 time=0
note_on channel=0 note=76 velocity=52 time=0
note_off channel=0 note=61 velocity=0 time=43
note_off channel=0 note=73 velocity=0 time=42
note_off channel=0 note=76 velocity=0 time=0
note_on channel=0 note=73 velocity=53 time=0
note_on channel=0 note=76 velocity=53 time=0
note_off channel=0 note=73 velocity=0 time=86
note_off channel=0 note=76 velocity=0 time=0
note_on channel=0 note=76 velocity=54 time=0
note_on channel=0 note=79 velocity=54 time=0
note_on channel=0 note=57 velocity=63 time=0
note_off channel=0 note=76 velocity=0 time=85
note_off channel=0 note=79 velocity=0 time=0
note_on channel=0 note=76 velocity=51 time=0
note_on channel=0 note=79 velocity=51 time=0
note_off channel=0 note=57 velocity=0 time=43
note_off channel=0 note=76 velocity=0 time=42
note_off channel=0 note=79 velocity=0 time=0
note_on channel=0 note=76 velocity=51 time=0
note_on channel=0 note=79 velocity=51 time=0
note_off channel=0 note=76 velocity=0 time=73
note_off channel=0 note=79 velocity=0 time=0
note_on channel=0 note=69 velocity=96 time=0
note_on channel=0 note=81 velocity=96 time=13
note_off channel=0 note=69 velocity=0 time=0
note_on channel=0 note=50 velocity=68 time=0
note_off channel=0 note=81 velocity=0 time=243
note_on channel=0 note=81 velocity=85 time=13
note_off channel=0 note=50 velocity=0 time=0
note_on channel=0 note=62 velocity=68 time=256
note_off channel=0 note=81 velocity=0 time=85
note_on channel=0 note=77 velocity=81 time=0
note_off channel=0 note=77 velocity=0 time=85
note_on channel=0 note=74 velocity=82 time=0
note_off channel=0 note=74 velocity=0 time=86
note_on channel=0 note=79 velocity=87 time=0
note_off channel=0 note=62 velocity=0 time=0
note_on channel=0 note=57 velocity=73 time=0
note_off channel=0 note=79 velocity=0 time=85
note_on channel=0 note=76 velocity=83 time=0
note_off channel=0 note=76 velocity=0 time=85
note_on channel=0 note=73 velocity=81 time=0
note_off channel=0 note=73 velocity=0 time=86
note_on channel=0 note=74 velocity=55 time=0
note_off channel=0 note=57 velocity=0 time=0
note_on channel=0 note=50 velocity=73 time=0
note_off channel=0 note=74 velocity=0 time=64
note_on channel=0 note=76 velocity=53 time=0
note_off channel=0 note=76 velocity=0 time=21
note_on channel=0 note=74 velocity=49 time=0
note_off channel=0 note=74 velocity=0 time=21
note_on channel=0 note=73 velocity=49 time=0
note_off channel=0 note=73 velocity=0 time=22
note_on channel=0 note=74 velocity=51 time=0
note_off channel=0 note=74 velocity=0 time=64
note_on channel=0 note=76 velocity=86 time=0
note_off channel=0 note=76 velocity=0 time=64
note_on channel=0 note=77 velocity=86 time=0
note_off channel=0 note=50 velocity=0 time=0
note_off channel=0 note=77 velocity=0 time=256
note_on channel=0 note=50 velocity=68 time=0
note_on channel=0 note=77 velocity=76 time=128
note_off channel=0 note=77 velocity=0 time=128
note_on channel=0 note=79 velocity=85 time=0
note_off channel=0 note=50 velocity=0 time=0
note_off channel=0 note=79 velocity=0 time=128
note_on channel=0 note=81 velocity=87 time=0
note_off channel=0 note=81 velocity=0 time=104
note_on channel=0 note=76 velocity=89 time=0
note_on channel=0 note=79 velocity=89 time=11
note_on channel=0 note=82 velocity=89 time=13
note_off channel=0 note=76 velocity=0 time=0
note_off channel=0 note=79 velocity=0 time=0
note_on channel=0 note=48 velocity=70 time=0
note_on channel=0 note=60 velocity=70 time=0
note_off channel=0 note=82 velocity=0 time=128
note_on channel=0 note=82 velocity=73 time=128
note_off channel=0 note=48 velocity=0 time=0
note_off channel=0 note=60 velocity=0 time=0
note_on channel=0 note=48 velocity=70 time=256
note_on channel=0 note=60 velocity=70 time=0
note_off channel=0 note=82 velocity=0 time=64
note_on channel=0 note=79 velocity=80 time=0
note_off channel=0 note=79 velocity=0 time=60
note_on channel=0 note=79 velocity=87 time=4
note_on channel=0 note=76 velocity=83 time=64
note_off channel=0 note=79 velocity=0 time=1
note_off channel=0 note=76 velocity=0 time=59
note_on channel=0 note=76 velocity=83 time=4
note_off channel=0 note=48 velocity=0 time=0
note_off channel=0 note=60 velocity=0 time=0
note_on channel=0 note=72 velocity=77 time=64
note_off channel=0 note=76 velocity=0 time=1
note_off channel=0 note=72 velocity=0 time=59
note_on channel=0 note=79 velocity=91 time=4
note_on channel=0 note=70 velocity=82 time=64
note_off channel=0 note=79 velocity=0 time=1
note_off channel=0 note=70 velocity=0 time=59
note_on channel=0 note=72 velocity=86 time=4
note_on channel=0 note=53 velocity=68 time=0
note_on channel=0 note=60 velocity=68 time=0
note_on channel=0 note=70 velocity=84 time=128
note_off channel=0 note=72 velocity=0 time=2
note_off channel=0 note=70 velocity=0 time=14
note_on channel=0 note=72 velocity=84 time=4
note_off channel=0 note=72 velocity=0 time=16
note_on channel=0 note=70 velocity=84 time=4
note_off channel=0 note=70 velocity=0 time=16
note_on channel=0 note=72 velocity=84 time=4
note_off channel=0 note=72 velocity=0 time=16
note_on channel=0 note=70 velocity=84 time=3
note_off channel=0 note=70 velocity=0 time=15
note_on channel=0 note=72 velocity=84 time=4
note_off channel=0 note=72 velocity=0 time=15
note_on channel=0 note=70 velocity=84 time=4
note_off channel=0 note=70 velocity=0 time=3
note_on channel=0 note=69 velocity=82 time=8
note_off channel=0 note=53 velocity=0 time=0
note_off channel=0 note=60 velocity=0 time=0
note_on channel=0 note=53 velocity=69 time=256
note_on channel=0 note=60 velocity=69 time=0
note_off channel=0 note=69 velocity=0 time=128
note_on channel=0 note=72 velocity=86 time=0
note_off channel=0 note=72 velocity=0 time=128
note_on channel=0 note=77 velocity=89 time=0
note_off channel=0 note=53 velocity=0 time=0
note_off channel=0 note=60 velocity=0 time=0
note_off channel=0 note=77 velocity=0 time=128
note_on channel=0 note=81 velocity=87 time=0
note_off channel=0 note=81 velocity=0 time=128
note_on channel=0 note=84 velocity=89 time=0
note_on channel=0 note=52 velocity=65 time=0
note_on channel=0 note=79 velocity=86 time=128
note_off channel=0 note=52 velocity=0 time=0
note_off channel=0 note=84 velocity=0 time=2
note_off channel=0 note=79 velocity=0 time=119
note_on channel=0 note=79 velocity=84 time=7
note_on channel=0 note=55 velocity=60 time=0
note_off channel=0 note=55 velocity=0 time=128
note_on channel=0 note=60 velocity=61 time=128
note_off channel=0 note=60 velocity=0 time=128
note_on channel=0 note=77 velocity=81 time=128
note_off channel=0 note=79 velocity=0 time=10
note_on channel=0 note=76 velocity=82 time=118
note_off channel=0 note=77 velocity=0 time=2
note_off channel=0 note=76 velocity=0 time=119
note_on channel=0 note=73 velocity=82 time=7
note_on channel=0 note=53 velocity=62 time=0
note_off channel=0 note=53 velocity=0 time=128
note_on channel=0 note=74 velocity=83 time=128
note_on channel=0 note=57 velocity=63 time=0
note_off channel=0 note=73 velocity=0 time=5
note_off channel=0 note=57 velocity=0 time=123
note_off channel=0 note=74 velocity=0 time=115
note_on channel=0 note=62 velocity=61 time=13
note_on channel=0 note=74 velocity=77 time=128
note_off channel=0 note=62 velocity=0 time=0
note_off channel=0 note=74 velocity=0 time=128
note_on channel=0 note=74 velocity=83 time=0
note_off channel=0 note=74 velocity=0 time=128
note_on channel=0 note=74 velocity=82 time=0
note_off channel=0 note=74 velocity=0 time=128
note_on channel=0 note=74 velocity=85 time=0
note_on channel=0 note=54 velocity=62 time=0
note_off channel=0 note=54 velocity=0 time=128
note_off channel=0 note=74 velocity=0 time=64
note_on channel=0 note=76 velocity=83 time=0
note_off channel=0 note=76 velocity=0 time=64
note_on channel=0 note=78 velocity=87 time=0
note_on channel=0 note=57 velocity=62 time=0
note_off channel=0 note=57 velocity=0 time=128
note_off channel=0 note=78 velocity=0 time=64
note_on channel=0 note=79 velocity=87 time=0
note_off channel=0 note=79 velocity=0 time=64
note_on channel=0 note=81 velocity=87 time=0
note_on channel=0 note=62 velocity=64 time=0
note_off channel=0 note=62 velocity=0 time=128
note_off channel=0 note=81 velocity=0 time=64
note_on channel=0 note=83 velocity=87 time=0
note_off channel=0 note=83 velocity=0 time=64
note_on channel=0 note=84 velocity=85 time=0
note_off channel=0 note=84 velocity=0 time=192
note_on channel=0 note=72 velocity=73 time=0
note_off channel=0 note=72 velocity=0 time=64
note_on channel=0 note=72 velocity=82 time=0
note_on channel=0 note=55 velocity=63 time=0
note_off channel=0 note=72 velocity=0 time=65
note_on channel=0 note=71 velocity=81 time=3
note_on channel=0 note=69 velocity=78 time=62
note_off channel=0 note=71 velocity=0 time=3
note_on channel=0 note=67 velocity=74 time=60
note_off channel=0 note=69 velocity=0 time=2
note_off channel=0 note=67 velocity=0 time=58
note_on channel=0 note=67 velocity=86 time=3
note_on channel=0 note=79 velocity=86 time=0
note_off channel=0 note=55 velocity=0 time=0
note_off channel=0 note=67 velocity=0 time=256
note_off channel=0 note=79 velocity=0 time=0
note_on channel=0 note=75 velocity=72 time=0
note_off channel=0 note=75 velocity=0 time=256
note_on channel=0 note=72 velocity=80 time=0
note_on channel=0 note=79 velocity=80 time=0
note_off channel=0 note=72 velocity=0 time=256
note_off channel=0 note=79 velocity=0 time=0
note_on channel=0 note=80 velocity=86 time=0
note_on channel=0 note=55 velocity=65 time=0
note_off channel=0 note=55 velocity=0 time=160
note_on channel=0 note=77 velocity=63 time=96
note_on channel=0 note=62 velocity=63 time=0
note_off channel=0 note=62 velocity=0 time=160
note_on channel=0 note=74 velocity=66 time=96
note_on channel=0 note=65 velocity=61 time=0
note_off channel=0 note=77 velocity=0 time=5
note_off channel=0 note=74 velocity=0 time=75
note_off channel=0 note=80 velocity=0 time=5
note_on channel=0 note=74 velocity=76 time=0
note_off channel=0 note=65 velocity=0 time=75
note_off channel=0 note=74 velocity=0 time=10
note_on channel=0 note=73 velocity=81 time=0
note_off channel=0 note=73 velocity=0 time=86
note_on channel=0 note=74 velocity=85 time=0
note_off channel=0 note=74 velocity=0 time=85
note_on channel=0 note=75 velocity=84 time=0
note_off channel=0 note=75 velocity=0 time=85
note_on channel=0 note=77 velocity=89 time=0
note_off channel=0 note=77 velocity=0 time=86
note_on channel=0 note=79 velocity=86 time=0
note_on channel=0 note=55 velocity=61 time=0
note_off channel=0 note=55 velocity=0 time=160
note_on channel=0 note=75 velocity=63 time=96
note_on channel=0 note=63 velocity=60 time=0
note_off channel=0 note=63 velocity=0 time=160
note_on channel=0 note=72 velocity=59 time=96
note_on channel=0 note=67 velocity=61 time=0
note_off channel=0 note=75 velocity=0 time=5
note_off channel=0 note=72 velocity=0 time=75
note_off channel=0 note=79 velocity=0 time=5
note_on channel=0 note=72 velocity=77 time=0
note_off channel=0 note=67 velocity=0 time=75
note_off channel=0 note=72 velocity=0 time=10
note_on channel=0 note=71 velocity=80 time=0
note_off channel=0 note=71 velocity=0 time=86
note_on channel=0 note=72 velocity=88 time=0
note_off channel=0 note=72 velocity=0 time=85
note_on channel=0 note=74 velocity=86 time=0
note_off channel=0 note=74 velocity=0 time=85
note_on channel=0 note=75 velocity=84 time=0
note_off channel=0 note=75 velocity=0 time=86
note_on channel=0 note=77 velocity=86 time=0
note_on channel=0 note=55 velocity=62 time=0
note_off channel=0 note=55 velocity=0 time=160
note_on channel=0 note=74 velocity=62 time=96
note_on channel=0 note=59 velocity=61 time=0
note_off channel=0 note=59 velocity=0 time=160
note_on channel=0 note=71 velocity=59 time=96
note_on channel=0 note=62 velocity=60 time=0
note_off channel=0 note=74 velocity=0 time=5
note_off channel=0 note=71 velocity=0 time=74
note_off channel=0 note=77 velocity=0 time=6
note_on channel=0 note=71 velocity=79 time=0
note_off channel=0 note=62 velocity=0 time=75
note_off channel=0 note=71 velocity=0 time=10
note_on channel=0 note=69 velocity=82 time=0
note_off channel=0 note=69 velocity=0 time=86
note_on channel=0 note=71 velocity=85 time=0
note_off channel=0 note=71 velocity=0 time=85
note_on channel=0 note=72 velocity=87 time=0
note_off channel=0 note=72 velocity=0 time=85
note_on channel=0 note=74 velocity=86 time=0
note_off channel=0 note=74 velocity=0 time=86
note_on channel=0 note=75 velocity=86 time=0
note_on channel=0 note=55 velocity=61 time=0
note_off channel=0 note=55 velocity=0 time=160
note_on channel=0 note=72 velocity=62 time=96
note_on channel=0 note=60 velocity=64 time=0
note_off channel=0 note=60 velocity=0 time=160
note_on channel=0 note=69 velocity=58 time=96
note_on channel=0 note=63 velocity=62 time=0
note_off channel=0 note=72 velocity=0 time=5
note_off channel=0 note=69 velocity=0 time=74
note_off channel=0 note=75 velocity=0 time=6
note_on channel=0 note=69 velocity=79 time=0
note_off channel=0 note=63 velocity=0 time=75
note_off channel=0 note=69 velocity=0 time=10
note_on channel=0 note=68 velocity=82 time=0
note_off channel=0 note=68 velocity=0 time=86
note_on channel=0 note=69 velocity=84 time=0
note_off channel=0 note=69 velocity=0 time=85
note_on channel=0 note=71 velocity=85 time=0
note_off channel=0 note=71 velocity=0 time=85
note_on channel=0 note=72 velocity=86 time=0
note_off channel=0 note=72 velocity=0 time=86
note_on channel=0 note=74 velocity=86 time=0
note_on channel=0 note=55 velocity=62 time=0
note_off channel=0 note=55 velocity=0 time=160
note_on channel=0 note=68 velocity=63 time=96
note_on channel=0 note=62 velocity=62 time=0
note_off channel=0 note=62 velocity=0 time=160
note_on channel=0 note=67 velocity=61 time=96
note_on channel=0 note=65 velocity=61 time=0
note_off channel=0 note=68 velocity=0 time=5
note_off channel=0 note=67 velocity=0 time=75
note_off channel=0 note=74 velocity=0 time=5
note_on channel=0 note=67 velocity=78 time=0
note_off channel=0 note=65 velocity=0 time=75
note_off channel=0 note=67 velocity=0 time=10
note_on channel=0 note=66 velocity=83 time=0
note_off channel=0 note=66 velocity=0 time=86
note_on channel=0 note=67 velocity=88 time=0
note_on channel=0 note=53 velocity=60 time=0
note_off channel=0 note=67 velocity=0 time=85
note_on channel=0 note=69 velocity=85 time=0
note_off channel=0 note=53 velocity=0 time=75
note_off channel=0 note=69 velocity=0 time=10
note_on channel=0 note=71 velocity=87 time=0
note_off channel=0 note=71 velocity=0 time=72
note_on channel=0 note=72 velocity=96 time=0
note_on channel=0 note=84 velocity=84 time=14
note_off channel=0 note=72 velocity=0 time=0
note_on channel=0 note=52 velocity=60 time=0
note_off channel=0 note=52 velocity=0 time=85
note_on channel=0 note=55 velocity=66 time=0
note_off channel=0 note=55 velocity=0 time=85
note_on channel=0 note=60 velocity=74 time=0
note_off channel=0 note=60 velocity=0 time=86
note_on channel=0 note=48 velocity=67 time=0
note_off channel=0 note=48 velocity=0 time=85
note_on channel=0 note=52 velocity=71 time=0
note_off channel=0 note=52 velocity=0 time=85
note_on channel=0 note=60 velocity=75 time=0
note_off channel=0 note=84 velocity=0 time=86
note_on channel=0 note=83 velocity=84 time=0
note_off channel=0 note=60 velocity=0 time=0
note_on channel=0 note=53 velocity=67 time=0
note_off channel=0 note=53 velocity=0 time=85
note_on channel=0 note=57 velocity=70 time=0
note_on channel=0 note=81 velocity=80 time=43
note_off channel=0 note=83 velocity=0 time=2
note_off channel=0 note=57 velocity=0 time=40
note_on channel=0 note=60 velocity=72 time=0
note_off channel=0 note=81 velocity=0 time=79
note_on channel=0 note=79 velocity=81 time=7
note_off channel=0 note=60 velocity=0 time=0
note_on channel=0 note=50 velocity=64 time=0
note_off channel=0 note=50 velocity=0 time=85
note_on channel=0 note=57 velocity=69 time=0
note_on channel=0 note=77 velocity=76 time=43
note_off channel=0 note=79 velocity=0 time=2
note_off channel=0 note=57 velocity=0 time=40
note_on channel=0 note=60 velocity=72 time=0
note_off channel=0 note=77 velocity=0 time=75
note_on channel=0 note=76 velocity=81 time=0
note_off channel=0 note=60 velocity=0 time=11
note_on channel=0 note=55 velocity=68 time=0
note_off channel=0 note=55 velocity=0 time=85
note_on channel=0 note=60 velocity=71 time=0
note_off channel=0 note=76 velocity=0 time=32
note_on channel=0 note=74 velocity=81 time=11
note_off channel=0 note=60 velocity=0 time=42
note_on channel=0 note=62 velocity=72 time=0
note_off channel=0 note=62 velocity=0 time=86
note_on channel=0 note=53 velocity=64 time=0
note_off channel=0 note=53 velocity=0 time=85
note_on channel=0 note=60 velocity=75 time=0
note_off channel=0 note=60 velocity=0 time=85
note_on channel=0 note=62 velocity=70 time=0
note_off channel=0 note=62 velocity=0 time=86
note_on channel=0 note=55 velocity=67 time=0
note_off channel=0 note=55 velocity=0 time=85
note_on channel=0 note=60 velocity=73 time=0
note_off channel=0 note=60 velocity=0 time=85
note_on channel=0 note=62 velocity=72 time=0
note_off channel=0 note=74 velocity=0 time=86
note_on channel=0 note=79 velocity=90 time=0
note_off channel=0 note=62 velocity=0 time=0
note_on channel=0 note=55 velocity=69 time=0
note_off channel=0 note=55 velocity=0 time=85
note_on channel=0 note=59 velocity=70 time=0
note_off channel=0 note=59 velocity=0 time=85
note_on channel=0 note=62 velocity=70 time=0
note_off channel=0 note=79 velocity=0 time=73
note_on channel=0 note=77 velocity=81 time=13
note_off channel=0 note=62 velocity=0 time=0
note_on channel=0 note=56 velocity=68 time=0
note_off channel=0 note=56 velocity=0 time=85
note_on channel=0 note=59 velocity=69 time=0
note_off channel=0 note=59 velocity=0 time=85
note_on channel=0 note=62 velocity=71 time=0
note_on channel=0 note=76 velocity=79 time=86
note_off channel=0 note=62 velocity=0 time=0
note_on channel=0 note=57 velocity=64 time=0
note_off channel=0 note=77 velocity=0 time=5
note_off channel=0 note=57 velocity=0 time=80
note_on channel=0 note=60 velocity=71 time=0
note_off channel=0 note=60 velocity=0 time=85
note_on channel=0 note=64 velocity=74 time=0
note_off channel=0 note=76 velocity=0 time=73
note_off channel=0 note=64 velocity=0 time=13
note_on channel=0 note=55 velocity=64 time=0
note_off channel=0 note=55 velocity=0 time=85
note_on channel=0 note=60 velocity=73 time=0
note_off channel=0 note=60 velocity=0 time=85
note_on channel=0 note=64 velocity=74 time=0
note_off channel=0 note=64 velocity=0 time=86
note_on channel=0 note=53 velocity=64 time=0
note_off channel=0 note=53 velocity=0 time=85
note_on channel=0 note=59 velocity=72 time=0
note_off channel=0 note=59 velocity=0 time=85
note_on channel=0 note=62 velocity=72 time=0
note_on channel=0 note=72 velocity=93 time=72
note_on channel=0 note=84 velocity=93 time=14
note_off channel=0 note=72 velocity=0 time=0
note_off channel=0 note=62 velocity=0 time=0
note_on channel=0 note=52 velocity=65 time=0
note_off channel=0 note=52 velocity=0 time=85
note_on channel=0 note=55 velocity=69 time=0
note_off channel=0 note=55 velocity=0 time=85
note_on channel=0 note=60 velocity=72 time=0
note_off channel=0 note=60 velocity=0 time=86
note_on channel=0 note=48 velocity=64 time=0
note_off channel=0 note=48 velocity=0 time=85
note_on channel=0 note=52 velocity=73 time=0
note_off channel=0 note=52 velocity=0 time=85
note_on channel=0 note=60 velocity=75 time=0
note_off channel=0 note=84 velocity=0 time=86
note_on channel=0 note=83 velocity=83 time=0
note_off channel=0 note=60 velocity=0 time=0
note_on channel=0 note=53 velocity=65 time=0
note_off channel=0 note=53 velocity=0 time=85
note_on channel=0 note=57 velocity=70 time=0
note_on channel=0 note=81 velocity=82 time=43
note_off channel=0 note=83 velocity=0 time=2
note_off channel=0 note=57 velocity=0 time=40
note_on channel=0 note=60 velocity=71 time=0
note_off channel=0 note=81 velocity=0 time=79
note_on channel=0 note=79 velocity=83 time=7
note_off channel=0 note=60 velocity=0 time=0
note_on channel=0 note=50 velocity=63 time=0
note_off channel=0 note=50 velocity=0 time=85
note_on channel=0 note=57 velocity=70 time=0
note_on channel=0 note=77 velocity=79 time=43
note_off channel=0 note=79 velocity=0 time=2
note_off channel=0 note=57 velocity=0 time=40
note_on channel=0 note=60 velocity=72 time=0
note_off channel=0 note=77 velocity=0 time=75
note_on channel=0 note=76 velocity=80 time=0
note_off channel=0 note=60 velocity=0 time=11
note_on channel=0 note=55 velocity=67 time=0
note_off channel=0 note=55 velocity=0 time=85
note_on channel=0 note=60 velocity=72 time=0
note_off channel=0 note=76 velocity=0 time=32
note_on channel=0 note=74 velocity=80 time=11
note_off channel=0 note=60 velocity=0 time=42
note_on channel=0 note=62 velocity=71 time=0
note_off channel=0 note=62 velocity=0 time=86
note_on channel=0 note=53 velocity=67 time=0
note_off channel=0 note=53 velocity=0 time=85
note_on channel=0 note=60 velocity=73 time=0
note_off channel=0 note=60 velocity=0 time=85
note_on channel=0 note=62 velocity=72 time=0
note_off channel=0 note=62 velocity=0 time=86
note_on channel=0 note=55 velocity=65 time=0
note_off channel=0 note=55 velocity=0 time=85
note_on channel=0 note=60 velocity=74 time=0
note_off channel=0 note=60 velocity=0 time=85
note_on channel=0 note=62 velocity=72 time=0
note_off channel=0 note=74 velocity=0 time=86
note_on channel=0 note=79 velocity=89 time=0
note_off channel=0 note=62 velocity=0 time=0
note_on channel=0 note=55 velocity=67 time=0
note_off channel=0 note=55 velocity=0 time=85
note_on channel=0 note=59 velocity=72 time=0
note_off channel=0 note=59 velocity=0 time=85
note_on channel=0 note=65 velocity=75 time=0
note_off channel=0 note=79 velocity=0 time=73
note_on channel=0 note=72 velocity=77 time=13
note_off channel=0 note=65 velocity=0 time=0
note_on channel=0 note=60 velocity=51 time=0
note_on channel=0 note=64 velocity=51 time=0
note_off channel=0 note=60 velocity=0 time=85
note_off channel=0 note=64 velocity=0 time=0
note_on channel=0 note=55 velocity=48 time=0
note_on channel=0 note=60 velocity=48 time=0
note_off channel=0 note=55 velocity=0 time=85
note_off channel=0 note=60 velocity=0 time=0
note_on channel=0 note=55 velocity=52 time=0
note_on channel=0 note=60 velocity=52 time=0
note_off channel=0 note=72 velocity=0 time=86
note_off channel=0 note=55 velocity=0 time=0
note_off channel=0 note=60 velocity=0 time=0
note_on channel=0 note=55 velocity=50 time=0
note_on channel=0 note=60 velocity=50 time=0
note_off channel=0 note=55 velocity=0 time=85
note_off channel=0 note=60 velocity=0 time=0
note_on channel=0 note=55 velocity=51 time=0
note_on channel=0 note=60 velocity=51 time=0
note_off channel=0 note=55 velocity=0 time=85
note_off channel=0 note=60 velocity=0 time=0
note_on channel=0 note=55 velocity=51 time=0
note_on channel=0 note=60 velocity=51 time=0
note_on channel=0 note=55 velocity=45 time=86
note_on channel=0 note=60 velocity=45 time=0
note_off channel=0 note=55 velocity=0 time=0
note_off channel=0 note=60 velocity=0 time=0
note_on channel=0 note=48 velocity=72 time=0
note_off channel=0 note=55 velocity=0 time=85
note_off channel=0 note=60 velocity=0 time=0
note_on channel=0 note=55 velocity=50 time=0
note_on channel=0 note=60 velocity=50 time=0
note_off channel=0 note=55 velocity=0 time=85
note_off channel=0 note=60 velocity=0 time=0
note_on channel=0 note=55 velocity=50 time=0
note_on channel=0 note=60 velocity=50 time=0
note_off channel=0 note=55 velocity=0 time=86
note_off channel=0 note=60 velocity=0 time=0
note_on channel=0 note=55 velocity=51 time=0
note_on channel=0 note=60 velocity=51 time=0
note_off channel=0 note=48 velocity=0 time=0
note_on channel=0 note=46 velocity=74 time=0
note_off channel=0 note=55 velocity=0 time=85
note_off channel=0 note=60 velocity=0 time=0
note_on channel=0 note=55 velocity=50 time=0
note_on channel=0 note=60 velocity=50 time=0
note_off channel=0 note=55 velocity=0 time=85
note_off channel=0 note=60 velocity=0 time=0
note_on channel=0 note=55 velocity=49 time=0
note_on channel=0 note=60 velocity=49 time=0
note_off channel=0 note=55 velocity=0 time=86
note_off channel=0 note=60 velocity=0 time=0
note_on channel=0 note=57 velocity=51 time=0
note_on channel=0 note=60 velocity=51 time=0
note_off channel=0 note=46 velocity=0 time=0
note_on channel=0 note=45 velocity=74 time=0
note_off channel=0 note=57 velocity=0 time=85
note_off channel=0 note=60 velocity=0 time=0
note_on channel=0 note=60 velocity=55 time=0
note_on channel=0 note=66 velocity=55 time=0
note_off channel=0 note=60 velocity=0 time=85
note_off channel=0 note=66 velocity=0 time=0
note_on channel=0 note=60 velocity=51 time=0
note_on channel=0 note=66 velocity=51 time=0
note_off channel=0 note=60 velocity=0 time=86
note_off channel=0 note=66 velocity=0 time=0
note_on channel=0 note=60 velocity=50 time=0
note_on channel=0 note=66 velocity=50 time=0
note_off channel=0 note=60 velocity=0 time=85
note_off channel=0 note=66 velocity=0 time=0
note_on channel=0 note=60 velocity=51 time=0
note_on channel=0 note=66 velocity=51 time=0
note_off channel=0 note=60 velocity=0 time=85
note_off channel=0 note=66 velocity=0 time=0
note_on channel=0 note=60 velocity=50 time=0
note_on channel=0 note=66 velocity=50 time=0
note_off channel=0 note=60 velocity=0 time=86
note_off channel=0 note=66 velocity=0 time=0
note_on channel=0 note=60 velocity=51 time=0
note_on channel=0 note=66 velocity=51 time=0
note_off channel=0 note=60 velocity=0 time=85
note_off channel=0 note=66 velocity=0 time=0
note_on channel=0 note=60 velocity=52 time=0
note_on channel=0 note=66 velocity=52 time=0
note_off channel=0 note=60 velocity=0 time=85
note_off channel=0 note=66 velocity=0 time=0
note_on channel=0 note=60 velocity=51 time=0
note_on channel=0 note=66 velocity=51 time=0
note_off channel=0 note=60 velocity=0 time=86
note_off channel=0 note=66 velocity=0 time=0
note_on channel=0 note=63 velocity=53 time=0
note_on channel=0 note=67 velocity=53 time=0
note_off channel=0 note=45 velocity=0 time=0
note_on channel=0 note=43 velocity=75 time=0
note_off channel=0 note=63 velocity=0 time=85
note_off channel=0 note=67 velocity=0 time=0
note_on channel=0 note=63 velocity=53 time=0
note_on channel=0 note=67 velocity=53 time=0
note_off channel=0 note=63 velocity=0 time=85
note_off channel=0 note=67 velocity=0 time=0
note_on channel=0 note=63 velocity=53 time=0
note_on channel=0 note=67 velocity=53 time=0
note_off channel=0 note=63 velocity=0 time=86
note_off channel=0 note=67 velocity=0 time=0
note_on channel=0 note=62 velocity=53 time=0
note_on channel=0 note=69 velocity=53 time=0
note_off channel=0 note=43 velocity=0 time=0
note_on channel=0 note=42 velocity=76 time=0
note_off channel=0 note=62 velocity=0 time=85
note_off channel=0 note=69 velocity=0 time=0
note_on channel=0 note=62 velocity=51 time=0
note_on channel=0 note=69 velocity=51 time=0
note_off channel=0 note=62 velocity=0 time=85
note_off channel=0 note=69 velocity=0 time=0
note_on channel=0 note=62 velocity=50 time=0
note_on channel=0 note=69 velocity=50 time=0
note_off channel=0 note=62 velocity=0 time=86
note_off channel=0 note=69 velocity=0 time=0
note_on channel=0 note=62 velocity=49 time=0
note_on channel=0 note=69 velocity=49 time=0
note_off channel=0 note=42 velocity=0 time=0
note_on channel=0 note=45 velocity=78 time=0
note_off channel=0 note=62 velocity=0 time=85
note_off channel=0 note=69 velocity=0 time=0
note_on channel=0 note=62 velocity=50 time=0
note_on channel=0 note=69 velocity=50 time=0
note_off channel=0 note=62 velocity=0 time=85
note_off channel=0 note=69 velocity=0 time=0
note_on channel=0 note=62 velocity=51 time=0
note_on channel=0 note=69 velocity=51 time=0
note_off channel=0 note=62 velocity=0 time=86
note_off channel=0 note=69 velocity=0 time=0
note_on channel=0 note=62 velocity=51 time=0
note_on channel=0 note=69 velocity=51 time=0
note_off channel=0 note=45 velocity=0 time=0
note_on channel=0 note=50 velocity=78 time=0
note_off channel=0 note=62 velocity=0 time=85
note_off channel=0 note=69 velocity=0 time=0
note_on channel=0 note=62 velocity=49 time=0
note_on channel=0 note=69 velocity=49 time=0
note_off channel=0 note=62 velocity=0 time=85
note_off channel=0 note=69 velocity=0 time=0
note_on channel=0 note=62 velocity=50 time=0
note_on channel=0 note=69 velocity=50 time=0
note_off channel=0 note=62 velocity=0 time=86
note_off channel=0 note=69 velocity=0 time=0
note_on channel=0 note=62 velocity=53 time=0
note_on channel=0 note=69 velocity=53 time=0
note_off channel=0 note=50 velocity=0 time=0
note_on channel=0 note=54 velocity=79 time=0
note_off channel=0 note=62 velocity=0 time=85
note_off channel=0 note=69 velocity=0 time=0
note_on channel=0 note=62 velocity=53 time=0
note_on channel=0 note=70 velocity=53 time=0
note_off channel=0 note=62 velocity=0 time=85
note_off channel=0 note=70 velocity=0 time=0
note_on channel=0 note=62 velocity=53 time=0
note_on channel=0 note=72 velocity=53 time=0
note_off channel=0 note=62 velocity=0 time=86
note_off channel=0 note=72 velocity=0 time=0
note_on channel=0 note=70 velocity=80 time=0
note_on channel=0 note=67 velocity=68 time=0
note_off channel=0 note=54 velocity=0 time=0
note_on channel=0 note=55 velocity=54 time=0
note_off channel=0 note=55 velocity=0 time=85
note_on channel=0 note=58 velocity=48 time=0
note_off channel=0 note=58 velocity=0 time=85
note_on channel=0 note=62 velocity=53 time=0
note_off channel=0 note=70 velocity=0 time=86
note_on channel=0 note=79 velocity=94 time=0
note_off channel=0 note=62 velocity=0 time=0
note_on channel=0 note=55 velocity=49 time=0
note_off channel=0 note=55 velocity=0 time=85
note_on channel=0 note=58 velocity=53 time=0
note_off channel=0 note=58 velocity=0 time=85
note_on channel=0 note=62 velocity=54 time=0
note_off channel=0 note=62 velocity=0 time=86
note_on channel=0 note=55 velocity=49 time=0
note_off channel=0 note=55 velocity=0 time=85
note_on channel=0 note=58 velocity=50 time=0
note_off channel=0 note=58 velocity=0 time=85
note_on channel=0 note=62 velocity=53 time=0
note_off channel=0 note=79 velocity=0 time=86
note_on channel=0 note=77 velocity=84 time=0
note_off channel=0 note=62 velocity=0 time=0
note_on channel=0 note=55 velocity=51 time=0
note_off channel=0 note=55 velocity=0 time=85
note_on channel=0 note=58 velocity=52 time=0
note_off channel=0 note=58 velocity=0 time=85
note_on channel=0 note=62 velocity=53 time=0
note_off channel=0 note=67 velocity=0 time=86
note_off channel=0 note=77 velocity=0 time=0
note_on channel=0 note=82 velocity=88 time=0
note_on channel=0 note=75 velocity=82 time=0
note_off channel=0 note=62 velocity=0 time=0
note_on channel=0 note=55 velocity=49 time=0
note_off channel=0 note=55 velocity=0 time=85
note_on channel=0 note=58 velocity=54 time=0
note_off channel=0 note=58 velocity=0 time=85
note_on channel=0 note=61 velocity=54 time=0
note_off channel=0 note=61 velocity=0 time=86
note_on channel=0 note=55 velocity=50 time=0
note_off channel=0 note=55 velocity=0 time=85
note_on channel=0 note=58 velocity=51 time=0
note_off channel=0 note=58 velocity=0 time=85
note_on channel=0 note=61 velocity=55 time=0
note_off channel=0 note=61 velocity=0 time=86
note_on channel=0 note=55 velocity=50 time=0
note_off channel=0 note=55 velocity=0 time=85
note_on channel=0 note=58 velocity=52 time=0
note_off channel=0 note=58 velocity=0 time=85
note_on channel=0 note=61 velocity=53 time=0
note_off channel=0 note=75 velocity=0 time=86
note_on channel=0 note=70 velocity=73 time=0
note_off channel=0 note=61 velocity=0 time=0
note_on channel=0 note=55 velocity=47 time=0
note_off channel=0 note=55 velocity=0 time=85
note_on channel=0 note=58 velocity=51 time=0
note_off channel=0 note=58 velocity=0 time=85
note_on channel=0 note=62 velocity=54 time=0
note_off channel=0 note=82 velocity=0 time=86
note_off channel=0 note=70 velocity=0 time=0
note_on channel=0 note=81 velocity=80 time=0
note_on channel=0 note=73 velocity=80 time=0
note_off channel=0 note=62 velocity=0 time=0
note_on channel=0 note=55 velocity=51 time=0
note_off channel=0 note=55 velocity=0 time=85
note_on channel=0 note=57 velocity=55 time=0
note_off channel=0 note=57 velocity=0 time=85
note_on channel=0 note=64 velocity=54 time=0
note_off channel=0 note=73 velocity=0 time=86
note_on channel=0 note=76 velocity=79 time=0
note_off channel=0 note=64 velocity=0 time=0
note_on channel=0 note=55 velocity=47 time=0
note_off channel=0 note=55 velocity=0 time=85
note_on channel=0 note=57 velocity=52 time=0
note_off channel=0 note=57 velocity=0 time=85
note_on channel=0 note=64 velocity=56 time=0
note_off channel=0 note=81 velocity=0 time=86
note_off channel=0 note=76 velocity=0 time=0
note_on channel=0 note=79 velocity=79 time=0
note_on channel=0 note=69 velocity=72 time=0
note_off channel=0 note=64 velocity=0 time=0
note_on channel=0 note=57 velocity=50 time=0
note_off channel=0 note=57 velocity=0 time=85
note_on channel=0 note=61 velocity=54 time=0
note_off channel=0 note=61 velocity=0 time=85
note_on channel=0 note=64 velocity=51 time=0
note_off channel=0 note=69 velocity=0 time=86
note_on channel=0 note=73 velocity=78 time=0
note_off channel=0 note=64 velocity=0 time=0
note_on channel=0 note=57 velocity=47 time=0
note_off channel=0 note=79 velocity=0 time=85
note_on channel=0 note=77 velocity=82 time=0
note_off channel=0 note=57 velocity=0 time=0
note_on channel=0 note=61 velocity=54 time=0
note_off channel=0 note=77 velocity=0 time=85
note_on channel=0 note=79 velocity=87 time=0
note_off channel=0 note=61 velocity=0 time=0
note_on channel=0 note=64 velocity=52 time=0
note_off channel=0 note=73 velocity=0 time=86
note_off channel=0 note=79 velocity=0 time=0
note_on channel=0 note=69 velocity=76 time=0
note_on channel=0 note=74 velocity=76 time=0
note_on channel=0 note=77 velocity=76 time=0
note_off channel=0 note=64 velocity=0 time=0
note_on channel=0 note=62 velocity=70 time=0
note_off channel=0 note=69 velocity=0 time=85
note_off channel=0 note=74 velocity=0 time=0
note_off channel=0 note=77 velocity=0 time=0
note_on channel=0 note=69 velocity=77 time=0
note_on channel=0 note=74 velocity=77 time=0
note_on channel=0 note=77 velocity=77 time=0
note_off channel=0 note=62 velocity=0 time=0
note_on channel=0 note=62 velocity=77 time=0
note_off channel=0 note=69 velocity=0 time=85
note_off channel=0 note=74 velocity=0 time=0
note_off channel=0 note=77 velocity=0 time=0
note_on channel=0 note=69 velocity=76 time=0
note_on channel=0 note=74 velocity=76 time=0
note_on channel=0 note=77 velocity=76 time=0
note_off channel=0 note=62 velocity=0 time=0
note_on channel=0 note=62 velocity=74 time=0
note_off channel=0 note=69 velocity=0 time=86
note_off channel=0 note=74 velocity=0 time=0
note_off channel=0 note=77 velocity=0 time=0
note_on channel=0 note=69 velocity=77 time=0
note_on channel=0 note=74 velocity=77 time=0
note_on channel=0 note=77 velocity=77 time=0
note_off channel=0 note=62 velocity=0 time=0
note_on channel=0 note=62 velocity=75 time=0
note_off channel=0 note=69 velocity=0 time=85
note_off channel=0 note=74 velocity=0 time=0
note_off channel=0 note=77 velocity=0 time=0
note_on channel=0 note=69 velocity=74 time=0
note_on channel=0 note=74 velocity=74 time=0
note_on channel=0 note=77 velocity=74 time=0
note_off channel=0 note=62 velocity=0 time=0
note_on channel=0 note=62 velocity=76 time=0
note_off channel=0 note=69 velocity=0 time=85
note_off channel=0 note=74 velocity=0 time=0
note_off channel=0 note=77 velocity=0 time=0
note_on channel=0 note=69 velocity=77 time=0
note_on channel=0 note=74 velocity=77 time=0
note_on channel=0 note=77 velocity=77 time=0
note_off channel=0 note=62 velocity=0 time=0
note_on channel=0 note=62 velocity=77 time=0
note_off channel=0 note=69 velocity=0 time=86
note_off channel=0 note=74 velocity=0 time=0
note_off channel=0 note=77 velocity=0 time=0
note_on channel=0 note=69 velocity=75 time=0
note_on channel=0 note=75 velocity=75 time=0
note_on channel=0 note=77 velocity=75 time=0
note_off channel=0 note=62 velocity=0 time=0
note_on channel=0 note=60 velocity=76 time=0
note_off channel=0 note=69 velocity=0 time=85
note_off channel=0 note=75 velocity=0 time=0
note_off channel=0 note=77 velocity=0 time=0
note_on channel=0 note=69 velocity=78 time=0
note_on channel=0 note=75 velocity=78 time=0
note_on channel=0 note=77 velocity=78 time=0
note_off channel=0 note=60 velocity=0 time=0
note_on channel=0 note=60 velocity=75 time=0
note_off channel=0 note=69 velocity=0 time=85
note_off channel=0 note=75 velocity=0 time=0
note_off channel=0 note=77 velocity=0 time=0
note_on channel=0 note=69 velocity=73 time=0
note_on channel=0 note=75 velocity=73 time=0
note_on channel=0 note=77 velocity=73 time=0
note_off channel=0 note=60 velocity=0 time=0
note_on channel=0 note=60 velocity=75 time=0
note_off channel=0 note=69 velocity=0 time=86
note_off channel=0 note=75 velocity=0 time=0
note_off channel=0 note=77 velocity=0 time=0
note_on channel=0 note=69 velocity=78 time=0
note_on channel=0 note=75 velocity=78 time=0
note_on channel=0 note=77 velocity=78 time=0
note_off channel=0 note=60 velocity=0 time=0
note_on channel=0 note=60 velocity=77 time=0
note_off channel=0 note=69 velocity=0 time=85
note_off channel=0 note=75 velocity=0 time=0
note_off channel=0 note=77 velocity=0 time=0
note_on channel=0 note=69 velocity=76 time=0
note_on channel=0 note=75 velocity=76 time=0
note_on channel=0 note=77 velocity=76 time=0
note_off channel=0 note=60 velocity=0 time=0
note_on channel=0 note=60 velocity=77 time=0
note_off channel=0 note=69 velocity=0 time=85
note_off channel=0 note=75 velocity=0 time=0
note_off channel=0 note=77 velocity=0 time=0
note_on channel=0 note=72 velocity=76 time=0
note_on channel=0 note=75 velocity=76 time=0
note_on channel=0 note=77 velocity=76 time=0
note_off channel=0 note=60 velocity=0 time=0
note_on channel=0 note=60 velocity=75 time=0
note_off channel=0 note=72 velocity=0 time=86
note_off channel=0 note=75 velocity=0 time=0
note_off channel=0 note=77 velocity=0 time=0
note_on channel=0 note=74 velocity=83 time=0
note_on channel=0 note=77 velocity=83 time=0
note_on channel=0 note=82 velocity=83 time=0
note_off channel=0 note=60 velocity=0 time=0
note_on channel=0 note=58 velocity=75 time=0
note_off channel=0 note=58 velocity=0 time=85
note_on channel=0 note=58 velocity=56 time=0
note_on channel=0 note=62 velocity=56 time=0
note_on channel=0 note=60 velocity=59 time=85
note_on channel=0 note=63 velocity=59 time=0
note_off channel=0 note=58 velocity=0 time=1
note_off channel=0 note=62 velocity=0 time=0
note_on channel=0 note=62 velocity=53 time=85
note_on channel=0 note=65 velocity=53 time=0
note_off channel=0 note=60 velocity=0 time=1
note_off channel=0 note=63 velocity=0 time=0
note_off channel=0 note=62 velocity=0 time=79
note_off channel=0 note=65 velocity=0 time=0
note_on channel=0 note=62 velocity=47 time=5
note_on channel=0 note=65 velocity=47 time=0
note_off channel=0 note=62 velocity=0 time=85
note_off channel=0 note=65 velocity=0 time=0
note_on channel=0 note=62 velocity=50 time=0
note_on channel=0 note=65 velocity=50 time=0
note_off channel=0 note=74 velocity=0 time=86
note_off channel=0 note=77 velocity=0 time=0
note_off channel=0 note=82 velocity=0 time=0
note_on channel=0 note=77 velocity=81 time=0
note_off channel=0 note=62 velocity=0 time=0
note_off channel=0 note=65 velocity=0 time=0
note_on channel=0 note=58 velocity=46 time=85
note_on channel=0 note=62 velocity=46 time=0
note_on channel=0 note=60 velocity=45 time=85
note_on channel=0 note=63 velocity=45 time=0
note_off channel=0 note=58 velocity=0 time=1
note_off channel=0 note=62 velocity=0 time=0
note_on channel=0 note=79 velocity=86 time=21
note_off channel=0 note=77 velocity=0 time=3
note_off channel=0 note=79 velocity=0 time=18
note_on channel=0 note=77 velocity=75 time=0
note_off channel=0 note=77 velocity=0 time=21
note_on channel=0 note=76 velocity=74 time=0
note_off channel=0 note=76 velocity=0 time=22
note_on channel=0 note=77 velocity=78 time=0
note_on channel=0 note=62 velocity=50 time=0
note_on channel=0 note=65 velocity=50 time=0
note_off channel=0 note=60 velocity=0 time=1
note_off channel=0 note=63 velocity=0 time=0
note_off channel=0 note=62 velocity=0 time=79
note_off channel=0 note=65 velocity=0 time=0
note_on channel=0 note=62 velocity=51 time=5
note_on channel=0 note=65 velocity=51 time=0
note_on channel=0 note=79 velocity=75 time=43
note_off channel=0 note=77 velocity=0 time=2
note_off channel=0 note=62 velocity=0 time=40
note_off channel=0 note=65 velocity=0 time=0
note_on channel=0 note=62 velocity=50 time=0
note_on channel=0 note=65 velocity=50 time=0
note_off channel=0 note=79 velocity=0 time=79
note_on channel=0 note=70 velocity=67 time=7
note_off channel=0 note=62 velocity=0 time=0
note_off channel=0 note=65 velocity=0 time=0
note_on channel=0 note=57 velocity=44 time=85
note_on channel=0 note=60 velocity=44 time=0
note_on channel=0 note=58 velocity=46 time=85
note_on channel=0 note=62 velocity=46 time=0
note_off channel=0 note=57 velocity=0 time=1
note_off channel=0 note=60 velocity=0 time=0
note_off channel=0 note=70 velocity=0 time=85
note_on channel=0 note=69 velocity=76 time=0
note_on channel=0 note=60 velocity=52 time=0
note_on channel=0 note=63 velocity=52 time=0
note_off channel=0 note=58 velocity=0 time=1
note_off channel=0 note=62 velocity=0 time=0
note_off channel=0 note=60 velocity=0 time=79
note_off channel=0 note=63 velocity=0 time=0
note_on channel=0 note=60 velocity=53 time=5
note_on channel=0 note=63 velocity=53 time=0
note_off channel=0 note=60 velocity=0 time=85
note_off channel=0 note=63 velocity=0 time=0
note_on channel=0 note=60 velocity=52 time=0
note_on channel=0 note=63 velocity=52 time=0
note_off channel=0 note=69 velocity=0 time=86
note_off channel=0 note=60 velocity=0 time=0
note_off channel=0 note=63 velocity=0 time=0
note_on channel=0 note=57 velocity=48 time=85
note_on channel=0 note=60 velocity=48 time=0
note_on channel=0 note=58 velocity=49 time=85
note_on channel=0 note=62 velocity=49 time=0
note_off channel=0 note=57 velocity=0 time=1
note_off channel=0 note=60 velocity=0 time=0
note_on channel=0 note=75 velocity=69 time=21
note_on channel=0 note=84 velocity=77 time=64
note_on channel=0 note=60 velocity=52 time=0
note_on channel=0 note=63 velocity=52 time=0
note_off channel=0 note=75 velocity=0 time=1
note_off channel=0 note=58 velocity=0 time=0
note_off channel=0 note=62 velocity=0 time=0
note_off channel=0 note=60 velocity=0 time=79
note_off channel=0 note=63 velocity=0 time=0
note_on channel=0 note=60 velocity=51 time=5
note_on channel=0 note=63 velocity=51 time=0
note_off channel=0 note=60 velocity=0 time=85
note_off channel=0 note=63 velocity=0 time=0
note_on channel=0 note=60 velocity=49 time=0
note_on channel=0 note=63 velocity=49 time=0
note_on channel=0 note=81 velocity=73 time=22
note_off channel=0 note=84 velocity=0 time=3
note_off channel=0 note=81 velocity=0 time=57
note_on channel=0 note=87 velocity=83 time=4
note_off channel=0 note=60 velocity=0 time=0
note_off channel=0 note=63 velocity=0 time=0
note_on channel=0 note=53 velocity=44 time=85
note_on channel=0 note=57 velocity=44 time=0
note_off channel=0 note=87 velocity=0 time=43
note_on channel=0 note=84 velocity=74 time=0
note_on channel=0 note=55 velocity=45 time=42
note_on channel=0 note=58 velocity=45 time=0
note_off channel=0 note=53 velocity=0 time=1
note_off channel=0 note=57 velocity=0 time=0
note_on channel=0 note=57 velocity=52 time=85
note_on channel=0 note=60 velocity=52 time=0
note_off channel=0 note=55 velocity=0 time=1
note_off channel=0 note=58 velocity=0 time=0
note_off channel=0 note=57 velocity=0 time=79
note_off channel=0 note=60 velocity=0 time=0
note_on channel=0 note=57 velocity=52 time=5
note_on channel=0 note=60 velocity=52 time=0
note_off channel=0 note=84 velocity=0 time=43
note_on channel=0 note=81 velocity=73 time=0
note_off channel=0 note=57 velocity=0 time=42
note_off channel=0 note=60 velocity=0 time=0
note_on channel=0 note=57 velocity=53 time=0
note_on channel=0 note=60 velocity=53 time=0
note_off channel=0 note=57 velocity=0 time=86
note_off channel=0 note=60 velocity=0 time=0
note_on channel=0 note=53 velocity=47 time=85
note_on channel=0 note=57 velocity=47 time=0
note_off channel=0 note=81 velocity=0 time=43
note_on channel=0 note=77 velocity=72 time=0
note_on channel=0 note=55 velocity=46 time=42
note_on channel=0 note=58 velocity=46 time=0
note_off channel=0 note=53 velocity=0 time=1
note_off channel=0 note=57 velocity=0 time=0
note_on channel=0 note=57 velocity=54 time=85
note_on channel=0 note=60 velocity=54 time=0
note_off channel=0 note=55 velocity=0 time=1
note_off channel=0 note=58 velocity=0 time=0
note_off channel=0 note=57 velocity=0 time=79
note_off channel=0 note=60 velocity=0 time=0
note_on channel=0 note=57 velocity=51 time=5
note_on channel=0 note=60 velocity=51 time=0
note_off channel=0 note=77 velocity=0 time=43
note_on channel=0 note=75 velocity=71 time=0
note_off channel=0 note=57 velocity=0 time=42
note_off channel=0 note=60 velocity=0 time=0
note_on channel=0 note=57 velocity=50 time=0
note_on channel=0 note=60 velocity=50 time=0
note_off channel=0 note=75 velocity=0 time=86
note_on channel=0 note=77 velocity=80 time=0
note_off channel=0 note=57 velocity=0 time=0
note_off channel=0 note=60 velocity=0 time=0
note_on channel=0 note=58 velocity=47 time=85
note_on channel=0 note=62 velocity=47 time=0
note_on channel=0 note=75 velocity=79 time=43
note_off channel=0 note=77 velocity=0 time=2
note_off channel=0 note=75 velocity=0 time=16
note_on channel=0 note=77 velocity=76 time=4
note_off channel=0 note=77 velocity=0 time=17
note_on channel=0 note=60 velocity=46 time=3
note_on channel=0 note=63 velocity=46 time=0
note_on channel=0 note=75 velocity=76 time=1
note_off channel=0 note=58 velocity=0 time=0
note_off channel=0 note=62 velocity=0 time=0
note_off channel=0 note=75 velocity=0 time=16
note_on channel=0 note=77 velocity=76 time=4
note_off channel=0 note=77 velocity=0 time=16
note_on channel=0 note=75 velocity=76 time=5
note_off channel=0 note=75 velocity=0 time=16
note_on channel=0 note=77 velocity=76 time=6
note_off channel=0 note=77 velocity=0 time=14
note_on channel=0 note=74 velocity=74 time=8
note_on channel=0 note=62 velocity=54 time=0
note_on channel=0 note=65 velocity=54 time=0
note_off channel=0 note=60 velocity=0 time=1
note_off channel=0 note=63 velocity=0 time=0
note_off channel=0 note=62 velocity=0 time=79
note_off channel=0 note=65 velocity=0 time=0
note_on channel=0 note=62 velocity=50 time=5
note_on channel=0 note=65 velocity=50 time=0
note_off channel=0 note=62 velocity=0 time=85
note_off channel=0 note=65 velocity=0 time=0
note_on channel=0 note=62 velocity=51 time=0
note_on channel=0 note=65 velocity=51 time=0
note_off channel=0 note=74 velocity=0 time=86
note_off channel=0 note=62 velocity=0 time=0
note_off channel=0 note=65 velocity=0 time=0
note_on channel=0 note=58 velocity=47 time=85
note_on channel=0 note=62 velocity=47 time=0
note_on channel=0 note=60 velocity=46 time=85
note_on channel=0 note=63 velocity=46 time=0
note_off channel=0 note=58 velocity=0 time=1
note_off channel=0 note=62 velocity=0 time=0
note_on channel=0 note=62 velocity=51 time=85
note_on channel=0 note=65 velocity=51 time=0
note_off channel=0 note=60 velocity=0 time=1
note_off channel=0 note=63 velocity=0 time=0
note_off channel=0 note=62 velocity=0 time=79
note_off channel=0 note=65 velocity=0 time=0
note_on channel=0 note=62 velocity=53 time=5
note_on channel=0 note=65 velocity=53 time=0
note_off channel=0 note=62 velocity=0 time=85
note_off channel=0 note=65 velocity=0 time=0
note_on channel=0 note=62 velocity=48 time=0
note_on channel=0 note=65 velocity=48 time=0
note_off channel=0 note=62 velocity=0 time=86
note_off channel=0 note=65 velocity=0 time=0
note_on channel=0 note=54 velocity=82 time=0
note_on channel=0 note=57 velocity=82 time=0
note_on channel=0 note=60 velocity=82 time=0
note_on channel=0 note=63 velocity=82 time=0
note_off channel=0 note=54 velocity=0 time=512
note_off channel=0 note=57 velocity=0 time=0
note_off channel=0 note=60 velocity=0 time=0
note_off channel=0 note=63 velocity=0 time=0
note_on channel=0 note=75 velocity=90 time=85
note_off channel=0 note=75 velocity=0 time=85
note_on channel=0 note=78 velocity=100 time=0
note_off channel=0 note=78 velocity=0 time=86
note_on channel=0 note=81 velocity=102 time=0
note_off channel=0 note=81 velocity=0 time=85
note_on channel=0 note=84 velocity=101 time=0
note_off channel=0 note=84 velocity=0 time=85
note_on channel=0 note=87 velocity=101 time=0
note_off channel=0 note=87 velocity=0 time=86
note_on channel=0 note=50 velocity=74 time=0
note_on channel=0 note=55 velocity=74 time=0
note_on channel=0 note=58 velocity=74 time=0
note_on channel=0 note=62 velocity=74 time=0
note_off channel=0 note=50 velocity=0 time=512
note_off channel=0 note=55 velocity=0 time=0
note_off channel=0 note=58 velocity=0 time=0
note_off channel=0 note=62 velocity=0 time=0
note_on channel=0 note=70 velocity=89 time=85
note_off channel=0 note=70 velocity=0 time=85
note_on channel=0 note=74 velocity=102 time=0
note_off channel=0 note=74 velocity=0 time=86
note_on channel=0 note=79 velocity=104 time=0
note_off channel=0 note=79 velocity=0 time=85
note_on channel=0 note=82 velocity=102 time=0
note_off channel=0 note=82 velocity=0 time=85
note_on channel=0 note=86 velocity=105 time=0
note_off channel=0 note=86 velocity=0 time=86
note_on channel=0 note=52 velocity=74 time=0
note_on channel=0 note=55 velocity=74 time=0
note_on channel=0 note=58 velocity=74 time=0
note_on channel=0 note=61 velocity=74 time=0
note_off channel=0 note=52 velocity=0 time=512
note_off channel=0 note=55 velocity=0 time=0
note_off channel=0 note=58 velocity=0 time=0
note_off channel=0 note=61 velocity=0 time=0
note_on channel=0 note=73 velocity=85 time=85
note_off channel=0 note=73 velocity=0 time=85
note_on channel=0 note=76 velocity=101 time=0
note_off channel=0 note=76 velocity=0 time=86
note_on channel=0 note=79 velocity=102 time=0
note_off channel=0 note=79 velocity=0 time=85
note_on channel=0 note=82 velocity=102 time=0
note_off channel=0 note=82 velocity=0 time=85
note_on channel=0 note=85 velocity=102 time=0
note_off channel=0 note=85 velocity=0 time=86
note_on channel=0 note=48 velocity=78 time=0
note_on channel=0 note=53 velocity=78 time=0
note_on channel=0 note=56 velocity=78 time=0
note_on channel=0 note=60 velocity=78 time=0
note_off channel=0 note=48 velocity=0 time=512
note_off channel=0 note=53 velocity=0 time=0
note_off channel=0 note=56 velocity=0 time=0
note_off channel=0 note=60 velocity=0 time=0
note_on channel=0 note=68 velocity=88 time=85
note_off channel=0 note=68 velocity=0 time=85
note_on channel=0 note=72 velocity=103 time=0
note_off channel=0 note=72 velocity=0 time=86
note_on channel=0 note=77 velocity=90 time=0
note_off channel=0 note=77 velocity=0 time=85
note_on channel=0 note=80 velocity=89 time=0
note_off channel=0 note=80 velocity=0 time=85
note_on channel=0 note=84 velocity=89 time=0
note_off channel=0 note=84 velocity=0 time=86
note_on channel=0 note=84 velocity=83 time=0
note_on channel=0 note=56 velocity=76 time=0
note_on channel=0 note=49 velocity=73 time=0
note_on channel=0 note=53 velocity=73 time=0
note_on channel=0 note=83 velocity=82 time=128
note_off channel=0 note=84 velocity=0 time=2
note_off channel=0 note=83 velocity=0 time=119
note_on channel=0 note=80 velocity=82 time=7
note_off channel=0 note=56 velocity=0 time=256
note_on channel=0 note=59 velocity=77 time=0
note_on channel=0 note=79 velocity=79 time=256
note_off channel=0 note=80 velocity=0 time=10
note_on channel=0 note=77 velocity=83 time=118
note_off channel=0 note=79 velocity=0 time=2
note_off channel=0 note=77 velocity=0 time=119
note_on channel=0 note=77 velocity=75 time=7
note_off channel=0 note=49 velocity=0 time=0
note_off channel=0 note=59 velocity=0 time=0
note_on channel=0 note=60 velocity=79 time=0
note_on channel=0 note=48 velocity=69 time=0
note_on channel=0 note=76 velocity=72 time=128
note_off channel=0 note=77 velocity=0 time=2
note_on channel=0 note=74 velocity=73 time=126
note_off channel=0 note=53 velocity=0 time=0
note_off channel=0 note=60 velocity=0 time=0
note_off channel=0 note=48 velocity=0 time=0
note_off channel=0 note=76 velocity=0 time=2
note_on channel=0 note=72 velocity=70 time=126
note_off channel=0 note=74 velocity=0 time=2
note_on channel=0 note=71 velocity=75 time=126
note_off channel=0 note=72 velocity=0 time=2
note_on channel=0 note=72 velocity=78 time=126
note_off channel=0 note=71 velocity=0 time=2
note_on channel=0 note=73 velocity=77 time=126
note_off channel=0 note=72 velocity=0 time=2
note_on channel=0 note=72 velocity=75 time=126
note_off channel=0 note=73 velocity=0 time=2
note_off channel=0 note=72 velocity=0 time=119
note_on channel=0 note=72 velocity=80 time=7
note_on channel=0 note=63 velocity=62 time=0
note_on channel=0 note=60 velocity=62 time=0
note_off channel=0 note=72 velocity=0 time=128
note_on channel=0 note=73 velocity=86 time=0
note_off channel=0 note=73 velocity=0 time=32
note_on channel=0 note=72 velocity=81 time=0
note_off channel=0 note=72 velocity=0 time=32
note_on channel=0 note=71 velocity=81 time=0
note_off channel=0 note=71 velocity=0 time=32
note_on channel=0 note=72 velocity=86 time=0
note_off channel=0 note=72 velocity=0 time=32
note_on channel=0 note=75 velocity=78 time=0
note_off channel=0 note=75 velocity=0 time=192
note_on channel=0 note=73 velocity=74 time=0
note_off channel=0 note=73 velocity=0 time=64
note_on channel=0 note=73 velocity=76 time=0
note_off channel=0 note=60 velocity=0 time=0
note_on channel=0 note=58 velocity=66 time=0
note_on channel=0 note=61 velocity=66 time=0
note_off channel=0 note=73 velocity=0 time=128
note_on channel=0 note=75 velocity=86 time=0
note_off channel=0 note=75 velocity=0 time=32
note_on channel=0 note=73 velocity=81 time=0
note_off channel=0 note=73 velocity=0 time=32
note_on channel=0 note=72 velocity=80 time=0
note_off channel=0 note=72 velocity=0 time=32
note_on channel=0 note=73 velocity=87 time=0
note_off channel=0 note=73 velocity=0 time=32
note_on channel=0 note=77 velocity=83 time=0
note_off channel=0 note=77 velocity=0 time=192
note_on channel=0 note=75 velocity=73 time=0
note_off channel=0 note=75 velocity=0 time=64
note_on channel=0 note=75 velocity=75 time=0
note_off channel=0 note=58 velocity=0 time=0
note_off channel=0 note=61 velocity=0 time=0
note_on channel=0 note=56 velocity=66 time=0
note_on channel=0 note=60 velocity=66 time=0
note_off channel=0 note=63 velocity=0 time=256
note_off channel=0 note=56 velocity=0 time=0
note_off channel=0 note=60 velocity=0 time=0
note_on channel=0 note=60 velocity=65 time=0
note_off channel=0 note=60 velocity=0 time=128
note_on channel=0 note=72 velocity=70 time=64
note_off channel=0 note=75 velocity=0 time=8
note_off channel=0 note=72 velocity=0 time=52
note_on channel=0 note=80 velocity=85 time=4
note_on channel=0 note=63 velocity=59 time=0
note_off channel=0 note=63 velocity=0 time=128
note_on channel=0 note=75 velocity=80 time=64
note_off channel=0 note=80 velocity=0 time=3
note_off channel=0 note=75 velocity=0 time=57
note_on channel=0 note=84 velocity=84 time=4
note_on channel=0 note=80 velocity=82 time=192
note_off channel=0 note=84 velocity=0 time=3
note_off channel=0 note=80 velocity=0 time=57
note_on channel=0 note=87 velocity=81 time=4
note_on channel=0 note=56 velocity=67 time=0
note_on channel=0 note=60 velocity=47 time=85
note_on channel=0 note=63 velocity=47 time=0
note_off channel=0 note=60 velocity=0 time=85
note_off channel=0 note=63 velocity=0 time=0
note_on channel=0 note=60 velocity=49 time=0
note_on channel=0 note=63 velocity=49 time=0
note_off channel=0 note=60 velocity=0 time=86
note_off channel=0 note=63 velocity=0 time=0
note_on channel=0 note=60 velocity=49 time=0
note_on channel=0 note=63 velocity=49 time=0
note_off channel=0 note=60 velocity=0 time=85
note_off channel=0 note=63 velocity=0 time=0
note_on channel=0 note=60 velocity=51 time=0
note_on channel=0 note=63 velocity=51 time=0
note_off channel=0 note=60 velocity=0 time=85
note_off channel=0 note=63 velocity=0 time=0
note_on channel=0 note=60 velocity=52 time=0
note_on channel=0 note=63 velocity=52 time=0
note_off channel=0 note=56 velocity=0 time=86
note_off channel=0 note=60 velocity=0 time=0
note_off channel=0 note=63 velocity=0 time=0
note_on channel=0 note=56 velocity=67 time=0
note_on channel=0 note=60 velocity=47 time=85
note_on channel=0 note=63 velocity=47 time=0
note_off channel=0 note=60 velocity=0 time=85
note_off channel=0 note=63 velocity=0 time=0
note_on channel=0 note=60 velocity=50 time=0
note_on channel=0 note=63 velocity=50 time=0
note_on channel=0 note=85 velocity=79 time=86
note_off channel=0 note=60 velocity=0 time=0
note_off channel=0 note=63 velocity=0 time=0
note_on channel=0 note=60 velocity=52 time=0
note_on channel=0 note=63 velocity=52 time=0
note_off channel=0 note=87 velocity=0 time=15
note_on channel=0 note=84 velocity=75 time=49
note_off channel=0 note=85 velocity=0 time=1
note_off channel=0 note=60 velocity=0 time=20
note_off channel=0 note=63 velocity=0 time=0
note_on channel=0 note=60 velocity=50 time=0
note_on channel=0 note=63 velocity=50 time=0
note_on channel=0 note=82 velocity=76 time=43
note_off channel=0 note=84 velocity=0 time=1
note_off channel=0 note=60 velocity=0 time=41
note_off channel=0 note=63 velocity=0 time=0
note_on channel=0 note=60 velocity=52 time=0
note_on channel=0 note=63 velocity=52 time=0
note_on channel=0 note=80 velocity=76 time=22
note_off channel=0 note=82 velocity=0 time=1
note_off channel=0 note=80 velocity=0 time=59
note_on channel=0 note=81 velocity=79 time=4
note_off channel=0 note=56 velocity=0 time=0
note_off channel=0 note=60 velocity=0 time=0
note_off channel=0 note=63 velocity=0 time=0
note_on channel=0 note=55 velocity=67 time=0
note_on channel=0 note=58 velocity=30 time=85
note_on channel=0 note=61 velocity=30 time=0
note_on channel=0 note=63 velocity=30 time=0
note_on channel=0 note=82 velocity=81 time=43
note_off channel=0 note=81 velocity=0 time=2
note_off channel=0 note=58 velocity=0 time=40
note_off channel=0 note=61 velocity=0 time=0
note_off channel=0 note=63 velocity=0 time=0
note_on channel=0 note=58 velocity=30 time=0
note_on channel=0 note=61 velocity=30 time=0
note_on channel=0 note=63 velocity=30 time=0
note_off channel=0 note=82 velocity=0 time=79
note_on channel=0 note=82 velocity=76 time=7
note_off channel=0 note=58 velocity=0 time=0
note_off channel=0 note=61 velocity=0 time=0
note_off channel=0 note=63 velocity=0 time=0
note_on channel=0 note=58 velocity=30 time=0
note_on channel=0 note=61 velocity=30 time=0
note_on channel=0 note=63 velocity=30 time=0
note_off channel=0 note=58 velocity=0 time=85
note_off channel=0 note=61 velocity=0 time=0
note_off channel=0 note=63 velocity=0 time=0
note_on channel=0 note=58 velocity=30 time=0
note_on channel=0 note=61 velocity=30 time=0
note_on channel=0 note=63 velocity=30 time=0
note_off channel=0 note=58 velocity=0 time=85
note_off channel=0 note=61 velocity=0 time=0
note_off channel=0 note=63 velocity=0 time=0
note_on channel=0 note=58 velocity=30 time=0
note_on channel=0 note=61 velocity=30 time=0
note_on channel=0 note=63 velocity=30 time=0
note_off channel=0 note=82 velocity=0 time=86
note_off channel=0 note=55 velocity=0 time=0
note_off channel=0 note=58 velocity=0 time=0
note_off channel=0 note=61 velocity=0 time=0
note_off channel=0 note=63 velocity=0 time=0
note_on channel=0 note=55 velocity=69 time=0
note_on channel=0 note=58 velocity=30 time=85
note_on channel=0 note=61 velocity=30 time=0
note_on channel=0 note=63 velocity=30 time=0
note_off channel=0 note=58 velocity=0 time=85
note_off channel=0 note=61 velocity=0 time=0
note_off channel=0 note=63 velocity=0 time=0
note_on channel=0 note=58 velocity=30 time=0
note_on channel=0 note=61 velocity=30 time=0
note_on channel=0 note=63 velocity=30 time=0
note_on channel=0 note=75 velocity=69 time=86
note_off channel=0 note=58 velocity=0 time=0
note_off channel=0 note=61 velocity=0 time=0
note_off channel=0 note=63 velocity=0 time=0
note_on channel=0 note=58 velocity=30 time=0
note_on channel=0 note=61 velocity=30 time=0
note_on channel=0 note=63 velocity=30 time=0
note_off channel=0 note=58 velocity=0 time=85
note_off channel=0 note=61 velocity=0 time=0
note_off channel=0 note=63 velocity=0 time=0
note_on channel=0 note=58 velocity=30 time=0
note_on channel=0 note=61 velocity=30 time=0
note_on channel=0 note=63 velocity=30 time=0
note_off channel=0 note=58 velocity=0 time=85
note_off channel=0 note=61 velocity=0 time=0
note_off channel=0 note=63 velocity=0 time=0
note_on channel=0 note=58 velocity=30 time=0
note_on channel=0 note=61 velocity=30 time=0
note_on channel=0 note=63 velocity=30 time=0
note_off channel=0 note=75 velocity=0 time=86
note_on channel=0 note=75 velocity=77 time=0
note_off channel=0 note=55 velocity=0 time=0
note_off channel=0 note=58 velocity=0 time=0
note_off channel=0 note=61 velocity=0 time=0
note_off channel=0 note=63 velocity=0 time=0
note_on channel=0 note=51 velocity=66 time=0
note_on channel=0 note=55 velocity=30 time=85
note_on channel=0 note=58 velocity=30 time=0
note_on channel=0 note=61 velocity=30 time=0
note_off channel=0 note=55 velocity=0 time=85
note_off channel=0 note=58 velocity=0 time=0
note_off channel=0 note=61 velocity=0 time=0
note_on channel=0 note=55 velocity=30 time=0
note_on channel=0 note=58 velocity=30 time=0
note_on channel=0 note=61 velocity=30 time=0
note_off channel=0 note=55 velocity=0 time=86
note_off channel=0 note=58 velocity=0 time=0
note_off channel=0 note=61 velocity=0 time=0
note_on channel=0 note=55 velocity=30 time=0
note_on channel=0 note=58 velocity=30 time=0
note_on channel=0 note=61 velocity=30 time=0
note_off channel=0 note=55 velocity=0 time=85
note_off channel=0 note=58 velocity=0 time=0
note_off channel=0 note=61 velocity=0 time=0
note_on channel=0 note=55 velocity=30 time=0
note_on channel=0 note=58 velocity=30 time=0
note_on channel=0 note=61 velocity=30 time=0
note_on channel=0 note=77 velocity=85 time=43
note_off channel=0 note=77 velocity=0 time=32
note_on channel=0 note=75 velocity=81 time=0
note_off channel=0 note=55 velocity=0 time=10
note_off channel=0 note=58 velocity=0 time=0
note_off channel=0 note=61 velocity=0 time=0
note_on channel=0 note=55 velocity=30 time=0
note_on channel=0 note=58 velocity=30 time=0
note_on channel=0 note=61 velocity=30 time=0
note_off channel=0 note=75 velocity=0 time=22
note_on channel=0 note=74 velocity=83 time=0
note_off channel=0 note=74 velocity=0 time=32
note_on channel=0 note=75 velocity=88 time=0
note_off channel=0 note=75 velocity=0 time=30
note_on channel=0 note=79 velocity=82 time=2
note_off channel=0 note=51 velocity=0 time=0
note_off channel=0 note=55 velocity=0 time=0
note_off channel=0 note=58 velocity=0 time=0
note_off channel=0 note=61 velocity=0 time=0
note_on channel=0 note=51 velocity=66 time=0
note_off channel=0 note=75 velocity=0 time=10
note_on channel=0 note=55 velocity=30 time=75
note_on channel=0 note=58 velocity=30 time=0
note_on channel=0 note=61 velocity=30 time=0
note_off channel=0 note=55 velocity=0 time=85
note_off channel=0 note=58 velocity=0 time=0
note_off channel=0 note=61 velocity=0 time=0
note_on channel=0 note=55 velocity=30 time=0
note_on channel=0 note=58 velocity=30 time=0
note_on channel=0 note=61 velocity=30 time=0
note_on channel=0 note=82 velocity=80 time=86
note_off channel=0 note=55 velocity=0 time=0
note_off channel=0 note=58 velocity=0 time=0
note_off channel=0 note=61 velocity=0 time=0
note_on channel=0 note=55 velocity=30 time=0
note_on channel=0 note=58 velocity=30 time=0
note_on channel=0 note=61 velocity=30 time=0
note_off channel=0 note=79 velocity=0 time=5
note_off channel=0 note=55 velocity=0 time=80
note_off channel=0 note=58 velocity=0 time=0
note_off channel=0 note=61 velocity=0 time=0
note_on channel=0 note=55 velocity=30 time=0
note_on channel=0 note=58 velocity=30 time=0
note_on channel=0 note=61 velocity=30 time=0
note_off channel=0 note=55 velocity=0 time=85
note_off channel=0 note=58 velocity=0 time=0
note_off channel=0 note=61 velocity=0 time=0
note_on channel=0 note=55 velocity=30 time=0
note_on channel=0 note=58 velocity=30 time=0
note_on channel=0 note=61 velocity=30 time=0
note_off channel=0 note=82 velocity=0 time=73
note_on channel=0 note=85 velocity=82 time=13
note_off channel=0 note=51 velocity=0 time=0
note_off channel=0 note=55 velocity=0 time=0
note_off channel=0 note=58 velocity=0 time=0
note_off channel=0 note=61 velocity=0 time=0
note_on channel=0 note=51 velocity=68 time=0
note_on channel=0 note=55 velocity=30 time=85
note_on channel=0 note=58 velocity=30 time=0
note_on channel=0 note=61 velocity=30 time=0
note_off channel=0 note=55 velocity=0 time=85
note_off channel=0 note=58 velocity=0 time=0
note_off channel=0 note=61 velocity=0 time=0
note_on channel=0 note=55 velocity=30 time=0
note_on channel=0 note=58 velocity=30 time=0
note_on channel=0 note=61 velocity=30 time=0
note_off channel=0 note=55 velocity=0 time=86
note_off channel=0 note=58 velocity=0 time=0
note_off channel=0 note=61 velocity=0 time=0
note_on channel=0 note=55 velocity=30 time=0
note_on channel=0 note=58 velocity=30 time=0
note_on channel=0 note=61 velocity=30 time=0
note_off channel=0 note=55 velocity=0 time=85
note_off channel=0 note=58 velocity=0 time=0
note_off channel=0 note=61 velocity=0 time=0
note_on channel=0 note=55 velocity=30 time=0
note_on channel=0 note=58 velocity=30 time=0
note_on channel=0 note=61 velocity=30 time=0
note_on channel=0 note=84 velocity=79 time=43
note_off channel=0 note=85 velocity=0 time=7
note_off channel=0 note=55 velocity=0 time=35
note_off channel=0 note=58 velocity=0 time=0
note_off channel=0 note=61 velocity=0 time=0
note_on channel=0 note=55 velocity=30 time=0
note_on channel=0 note=58 velocity=30 time=0
note_on channel=0 note=61 velocity=30 time=0
note_on channel=0 note=82 velocity=74 time=22
note_off channel=0 note=84 velocity=0 time=1
note_on channel=0 note=80 velocity=72 time=63
note_off channel=0 note=51 velocity=0 time=0
note_off channel=0 note=55 velocity=0 time=0
note_off channel=0 note=58 velocity=0 time=0
note_off channel=0 note=61 velocity=0 time=0
note_on channel=0 note=51 velocity=68 time=0
note_off channel=0 note=82 velocity=0 time=1
note_on channel=0 note=79 velocity=76 time=63
note_off channel=0 note=80 velocity=0 time=1
note_on channel=0 note=55 velocity=30 time=20
note_on channel=0 note=58 velocity=30 time=0
note_on channel=0 note=61 velocity=30 time=0
note_on channel=0 note=77 velocity=72 time=43
note_off channel=0 note=79 velocity=0 time=1
note_off channel=0 note=55 velocity=0 time=41
note_off channel=0 note=58 velocity=0 time=0
note_off channel=0 note=61 velocity=0 time=0
note_on channel=0 note=55 velocity=30 time=0
note_on channel=0 note=58 velocity=30 time=0
note_on channel=0 note=61 velocity=30 time=0
note_on channel=0 note=75 velocity=75 time=22
note_off channel=0 note=77 velocity=0 time=1
note_on channel=0 note=74 velocity=73 time=63
note_off channel=0 note=55 velocity=0 time=0
note_off channel=0 note=58 velocity=0 time=0
note_off channel=0 note=61 velocity=0 time=0
note_on channel=0 note=55 velocity=30 time=0
note_on channel=0 note=58 velocity=30 time=0
note_on channel=0 note=61 velocity=30 time=0
note_off channel=0 note=75 velocity=0 time=1
note_on channel=0 note=75 velocity=77 time=63
note_off channel=0 note=74 velocity=0 time=1
note_off channel=0 note=55 velocity=0 time=20
note_off channel=0 note=58 velocity=0 time=0
note_off channel=0 note=61 velocity=0 time=0
note_on channel=0 note=55 velocity=30 time=0
note_on channel=0 note=58 velocity=30 time=0
note_on channel=0 note=61 velocity=30 time=0
note_on channel=0 note=77 velocity=80 time=43
note_off channel=0 note=75 velocity=0 time=1
note_off channel=0 note=55 velocity=0 time=41
note_off channel=0 note=58 velocity=0 time=0
note_off channel=0 note=61 velocity=0 time=0
note_on channel=0 note=55 velocity=30 time=0
note_on channel=0 note=58 velocity=30 time=0
note_on channel=0 note=61 velocity=30 time=0
note_on channel=0 note=73 velocity=72 time=22
note_off channel=0 note=77 velocity=0 time=1
note_off channel=0 note=73 velocity=0 time=59
note_on channel=0 note=75 velocity=77 time=4
note_off channel=0 note=51 velocity=0 time=0
note_off channel=0 note=55 velocity=0 time=0
note_off channel=0 note=58 velocity=0 time=0
note_off channel=0 note=61 velocity=0 time=0
note_on channel=0 note=56 velocity=72 time=0
note_on channel=0 note=60 velocity=30 time=85
note_on channel=0 note=63 velocity=30 time=0
note_on channel=0 note=73 velocity=73 time=43
note_off channel=0 note=75 velocity=0 time=2
note_off channel=0 note=73 velocity=0 time=17
note_on channel=0 note=75 velocity=76 time=4
note_off channel=0 note=75 velocity=0 time=18
note_off channel=0 note=60 velocity=0 time=1
note_off channel=0 note=63 velocity=0 time=0
note_on channel=0 note=60 velocity=30 time=0
note_on channel=0 note=63 velocity=30 time=0
note_on channel=0 note=73 velocity=76 time=3
note_off channel=0 note=73 velocity=0 time=17
note_on channel=0 note=75 velocity=76 time=4
note_off channel=0 note=75 velocity=0 time=16
note_on channel=0 note=73 velocity=76 time=6
note_off channel=0 note=73 velocity=0 time=17
note_on channel=0 note=75 velocity=76 time=6
note_on channel=0 note=72 velocity=75 time=17
note_off channel=0 note=60 velocity=0 time=0
note_off channel=0 note=63 velocity=0 time=0
note_on channel=0 note=60 velocity=30 time=0
note_on channel=0 note=63 velocity=30 time=0
note_off channel=0 note=75 velocity=0 time=1
note_off channel=0 note=60 velocity=0 time=84
note_off channel=0 note=63 velocity=0 time=0
note_on channel=0 note=60 velocity=30 time=0
note_on channel=0 note=63 velocity=30 time=0
note_off channel=0 note=60 velocity=0 time=85
note_off channel=0 note=63 velocity=0 time=0
note_on channel=0 note=60 velocity=30 time=0
note_on channel=0 note=63 velocity=30 time=0
note_off channel=0 note=72 velocity=0 time=73
note_off channel=0 note=56 velocity=0 time=13
note_off channel=0 note=60 velocity=0 time=0
note_off channel=0 note=63 velocity=0 time=0
note_on channel=0 note=56 velocity=70 time=0
note_on channel=0 note=60 velocity=30 time=85
note_on channel=0 note=63 velocity=30 time=0
note_on channel=0 note=75 velocity=68 time=43
note_off channel=0 note=60 velocity=0 time=42
note_off channel=0 note=63 velocity=0 time=0
note_on channel=0 note=60 velocity=30 time=0
note_on channel=0 note=63 velocity=30 time=0
note_off channel=0 note=75 velocity=0 time=22
note_on channel=0 note=74 velocity=73 time=0
note_off channel=0 note=74 velocity=0 time=64
note_on channel=0 note=77 velocity=80 time=0
note_off channel=0 note=56 velocity=0 time=0
note_off channel=0 note=60 velocity=0 time=0
note_off channel=0 note=63 velocity=0 time=0
note_on channel=0 note=54 velocity=67 time=0
note_on channel=0 note=75 velocity=76 time=64
note_off channel=0 note=77 velocity=0 time=1
note_on channel=0 note=60 velocity=30 time=20
note_on channel=0 note=63 velocity=30 time=0
note_on channel=0 note=73 velocity=75 time=43
note_off channel=0 note=75 velocity=0 time=1
note_off channel=0 note=60 velocity=0 time=41
note_off channel=0 note=63 velocity=0 time=0
note_on channel=0 note=60 velocity=30 time=0
note_on channel=0 note=63 velocity=30 time=0
note_on channel=0 note=72 velocity=75 time=22
note_off channel=0 note=73 velocity=0 time=1
note_off channel=0 note=72 velocity=0 time=59
note_on channel=0 note=70 velocity=96 time=4
note_off channel=0 note=54 velocity=0 time=0
note_off channel=0 note=60 velocity=0 time=0
note_off channel=0 note=63 velocity=0 time=0
note_on channel=0 note=53 velocity=68 time=0
note_on channel=0 note=57 velocity=30 time=85
note_on channel=0 note=60 velocity=30 time=0
note_on channel=0 note=63 velocity=30 time=0
note_on channel=0 note=69 velocity=93 time=43
note_off channel=0 note=70 velocity=0 time=2
note_off channel=0 note=57 velocity=0 time=40
note_off channel=0 note=60 velocity=0 time=0
note_off channel=0 note=63 velocity=0 time=0
note_on channel=0 note=57 velocity=30 time=0
note_on channel=0 note=60 velocity=30 time=0
note_on channel=0 note=63 velocity=30 time=0
note_off channel=0 note=69 velocity=0 time=79
note_off channel=0 note=57 velocity=0 time=7
note_off channel=0 note=60 velocity=0 time=0
note_off channel=0 note=63 velocity=0 time=0
note_on channel=0 note=57 velocity=30 time=0
note_on channel=0 note=60 velocity=30 time=0
note_on channel=0 note=63 velocity=30 time=0
note_off channel=0 note=57 velocity=0 time=85
note_off channel=0 note=60 velocity=0 time=0
note_off channel=0 note=63 velocity=0 time=0
note_on channel=0 note=57 velocity=30 time=0
note_on channel=0 note=60 velocity=30 time=0
note_on channel=0 note=63 velocity=30 time=0
note_on channel=0 note=84 velocity=87 time=43
note_off channel=0 note=57 velocity=0 time=42
note_off channel=0 note=60 velocity=0 time=0
note_off channel=0 note=63 velocity=0 time=0
note_on channel=0 note=57 velocity=30 time=0
note_on channel=0 note=60 velocity=30 time=0
note_on channel=0 note=63 velocity=30 time=0
note_off channel=0 note=84 velocity=0 time=86
note_off channel=0 note=53 velocity=0 time=0
note_off channel=0 note=57 velocity=0 time=0
note_off channel=0 note=60 velocity=0 time=0
note_off channel=0 note=63 velocity=0 time=0
note_on channel=0 note=53 velocity=69 time=0
note_on channel=0 note=57 velocity=30 time=85
note_on channel=0 note=60 velocity=30 time=0
note_on channel=0 note=63 velocity=30 time=0
note_on channel=0 note=87 velocity=89 time=43
note_off channel=0 note=57 velocity=0 time=42
note_off channel=0 note=60 velocity=0 time=0
note_off channel=0 note=63 velocity=0 time=0
note_on channel=0 note=57 velocity=30 time=0
note_on channel=0 note=60 velocity=30 time=0
note_on channel=0 note=63 velocity=30 time=0
note_off channel=0 note=87 velocity=0 time=86
note_off channel=0 note=57 velocity=0 time=0
note_off channel=0 note=60 velocity=0 time=0
note_off channel=0 note=63 velocity=0 time=0
note_on channel=0 note=57 velocity=30 time=0
note_on channel=0 note=60 velocity=30 time=0
note_on channel=0 note=63 velocity=30 time=0
note_off channel=0 note=57 velocity=0 time=85
note_off channel=0 note=60 velocity=0 time=0
note_off channel=0 note=63 velocity=0 time=0
note_on channel=0 note=57 velocity=30 time=0
note_on channel=0 note=60 velocity=30 time=0
note_on channel=0 note=63 velocity=30 time=0
note_on channel=0 note=81 velocity=86 time=43
note_off channel=0 note=57 velocity=0 time=42
note_off channel=0 note=60 velocity=0 time=0
note_off channel=0 note=63 velocity=0 time=0
note_on channel=0 note=57 velocity=30 time=0
note_on channel=0 note=60 velocity=30 time=0
note_on channel=0 note=63 velocity=30 time=0
note_off channel=0 note=81 velocity=0 time=86
note_on channel=0 note=84 velocity=101 time=0
note_off channel=0 note=53 velocity=0 time=0
note_off channel=0 note=57 velocity=0 time=0
note_off channel=0 note=60 velocity=0 time=0
note_off channel=0 note=63 velocity=0 time=0
note_on channel=0 note=58 velocity=74 time=0
note_on channel=0 note=61 velocity=30 time=85
note_on channel=0 note=65 velocity=30 time=0
note_off channel=0 note=61 velocity=0 time=85
note_off channel=0 note=65 velocity=0 time=0
note_on channel=0 note=61 velocity=30 time=0
note_on channel=0 note=65 velocity=30 time=0
note_on channel=0 note=82 velocity=98 time=86
note_off channel=0 note=61 velocity=0 time=0
note_off channel=0 note=65 velocity=0 time=0
note_on channel=0 note=61 velocity=30 time=0
note_on channel=0 note=65 velocity=30 time=0
note_off channel=0 note=84 velocity=0 time=5
note_off channel=0 note=61 velocity=0 time=80
note_off channel=0 note=65 velocity=0 time=0
note_on channel=0 note=61 velocity=30 time=0
note_on channel=0 note=65 velocity=30 time=0
note_off channel=0 note=61 velocity=0 time=85
note_off channel=0 note=65 velocity=0 time=0
note_on channel=0 note=61 velocity=30 time=0
note_on channel=0 note=65 velocity=30 time=0
note_off channel=0 note=82 velocity=0 time=73
note_off channel=0 note=58 velocity=0 time=13
note_off channel=0 note=61 velocity=0 time=0
note_off channel=0 note=65 velocity=0 time=0
note_on channel=0 note=58 velocity=69 time=0
note_on channel=0 note=77 velocity=89 time=64
note_on channel=0 note=61 velocity=30 time=21
note_on channel=0 note=65 velocity=30 time=0
note_on channel=0 note=76 velocity=87 time=43
note_off channel=0 note=77 velocity=0 time=1
note_off channel=0 note=61 velocity=0 time=41
note_off channel=0 note=65 velocity=0 time=0
note_on channel=0 note=61 velocity=30 time=0
note_on channel=0 note=65 velocity=30 time=0
note_on channel=0 note=77 velocity=100 time=22
note_off channel=0 note=76 velocity=0 time=1
note_on channel=0 note=78 velocity=102 time=63
note_off channel=0 note=58 velocity=0 time=0
note_off channel=0 note=61 velocity=0 time=0
note_off channel=0 note=65 velocity=0 time=0
note_on channel=0 note=56 velocity=66 time=0
note_off channel=0 note=77 velocity=0 time=1
note_on channel=0 note=77 velocity=96 time=63
note_off channel=0 note=78 velocity=0 time=1
note_on channel=0 note=60 velocity=30 time=20
note_on channel=0 note=65 velocity=30 time=0
note_on channel=0 note=75 velocity=92 time=43
note_off channel=0 note=77 velocity=0 time=1
note_off channel=0 note=60 velocity=0 time=41
note_off channel=0 note=65 velocity=0 time=0
note_on channel=0 note=60 velocity=30 time=0
note_on channel=0 note=65 velocity=30 time=0
note_on channel=0 note=74 velocity=94 time=22
note_off channel=0 note=75 velocity=0 time=1
note_off channel=0 note=74 velocity=0 time=59
note_on channel=0 note=72 velocity=94 time=4
note_off channel=0 note=56 velocity=0 time=0
note_off channel=0 note=60 velocity=0 time=0
note_off channel=0 note=65 velocity=0 time=0
note_on channel=0 note=55 velocity=68 time=0
note_on channel=0 note=59 velocity=30 time=85
note_on channel=0 note=62 velocity=30 time=0
note_on channel=0 note=65 velocity=30 time=0
note_on channel=0 note=71 velocity=93 time=43
note_off channel=0 note=72 velocity=0 time=2
note_off channel=0 note=59 velocity=0 time=40
note_off channel=0 note=62 velocity=0 time=0
note_off channel=0 note=65 velocity=0 time=0
note_on channel=0 note=59 velocity=30 time=0
note_on channel=0 note=62 velocity=30 time=0
note_on channel=0 note=65 velocity=30 time=0
note_off channel=0 note=71 velocity=0 time=79
note_off channel=0 note=59 velocity=0 time=7
note_off channel=0 note=62 velocity=0 time=0
note_off channel=0 note=65 velocity=0 time=0
note_on channel=0 note=59 velocity=30 time=0
note_on channel=0 note=62 velocity=30 time=0
note_on channel=0 note=65 velocity=30 time=0
note_off channel=0 note=59 velocity=0 time=85
note_off channel=0 note=62 velocity=0 time=0
note_off channel=0 note=65 velocity=0 time=0
note_on channel=0 note=59 velocity=30 time=0
note_on channel=0 note=62 velocity=30 time=0
note_on channel=0 note=65 velocity=30 time=0
note_on channel=0 note=86 velocity=87 time=43
note_off channel=0 note=59 velocity=0 time=42
note_off channel=0 note=62 velocity=0 time=0
note_off channel=0 note=65 velocity=0 time=0
note_on channel=0 note=59 velocity=30 time=0
note_on channel=0 note=62 velocity=30 time=0
note_on channel=0 note=65 velocity=30 time=0
note_off channel=0 note=86 velocity=0 time=86
note_off channel=0 note=55 velocity=0 time=0
note_off channel=0 note=59 velocity=0 time=0
note_off channel=0 note=62 velocity=0 time=0
note_off channel=0 note=65 velocity=0 time=0
note_on channel=0 note=55 velocity=71 time=0
note_on channel=0 note=59 velocity=30 time=85
note_on channel=0 note=62 velocity=30 time=0
note_on channel=0 note=65 velocity=30 time=0
note_on channel=0 note=89 velocity=87 time=43
note_off channel=0 note=59 velocity=0 time=42
note_off channel=0 note=62 velocity=0 time=0
note_off channel=0 note=65 velocity=0 time=0
note_on channel=0 note=59 velocity=30 time=0
note_on channel=0 note=62 velocity=30 time=0
note_on channel=0 note=65 velocity=30 time=0
note_off channel=0 note=89 velocity=0 time=86
note_off channel=0 note=59 velocity=0 time=0
note_off channel=0 note=62 velocity=0 time=0
note_off channel=0 note=65 velocity=0 time=0
note_on channel=0 note=59 velocity=30 time=0
note_on channel=0 note=62 velocity=30 time=0
note_on channel=0 note=65 velocity=30 time=0
note_off channel=0 note=59 velocity=0 time=85
note_off channel=0 note=62 velocity=0 time=0
note_off channel=0 note=65 velocity=0 time=0
note_on channel=0 note=59 velocity=30 time=0
note_on channel=0 note=62 velocity=30 time=0
note_on channel=0 note=65 velocity=30 time=0
note_on channel=0 note=83 velocity=88 time=43
note_off channel=0 note=59 velocity=0 time=42
note_off channel=0 note=62 velocity=0 time=0
note_off channel=0 note=65 velocity=0 time=0
note_on channel=0 note=59 velocity=30 time=0
note_on channel=0 note=62 velocity=30 time=0
note_on channel=0 note=65 velocity=30 time=0
note_off channel=0 note=83 velocity=0 time=86
note_on channel=0 note=86 velocity=100 time=0
note_off channel=0 note=55 velocity=0 time=0
note_off channel=0 note=59 velocity=0 time=0
note_off channel=0 note=62 velocity=0 time=0
note_off channel=0 note=65 velocity=0 time=0
note_on channel=0 note=60 velocity=49 time=0
note_on channel=0 note=64 velocity=49 time=0
note_on channel=0 note=84 velocity=96 time=256
note_off channel=0 note=60 velocity=0 time=0
note_off channel=0 note=64 velocity=0 time=0
note_on channel=0 note=60 velocity=48 time=0
note_off channel=0 note=86 velocity=0 time=5
note_off channel=0 note=84 velocity=0 time=238
note_on channel=0 note=56 velocity=47 time=13
note_on channel=0 note=84 velocity=74 time=256
note_on channel=0 note=53 velocity=48 time=0
note_off channel=0 note=56 velocity=0 time=5
note_off channel=0 note=60 velocity=0 time=212
note_off channel=0 note=84 velocity=0 time=39
note_on channel=0 note=85 velocity=84 time=0
note_on channel=0 note=48 velocity=63 time=0
note_off channel=0 note=53 velocity=0 time=230
note_on channel=0 note=52 velocity=51 time=26
note_off channel=0 note=52 velocity=0 time=256
note_on channel=0 note=55 velocity=51 time=0
note_off channel=0 note=85 velocity=0 time=85
note_on channel=0 note=79 velocity=80 time=0
note_off channel=0 note=79 velocity=0 time=85
note_on channel=0 note=78 velocity=80 time=0
note_off channel=0 note=78 velocity=0 time=86
note_on channel=0 note=79 velocity=86 time=0
note_off channel=0 note=79 velocity=0 time=85
note_on channel=0 note=80 velocity=87 time=0
note_off channel=0 note=80 velocity=0 time=85
note_on channel=0 note=82 velocity=88 time=0
note_off channel=0 note=82 velocity=0 time=86
note_on channel=0 note=84 velocity=87 time=0
note_off channel=0 note=48 velocity=0 time=0
note_on channel=0 note=48 velocity=68 time=0
note_off channel=0 note=55 velocity=0 time=256
note_on channel=0 note=53 velocity=48 time=0
note_on channel=0 note=56 velocity=49 time=256
note_off channel=0 note=53 velocity=0 time=5
note_off channel=0 note=84 velocity=0 time=80
note_on channel=0 note=77 velocity=76 time=0
note_off channel=0 note=77 velocity=0 time=85
note_on channel=0 note=76 velocity=81 time=0
note_off channel=0 note=76 velocity=0 time=86
note_on channel=0 note=77 velocity=85 time=0
note_off channel=0 note=77 velocity=0 time=85
note_on channel=0 note=79 velocity=86 time=0
note_off channel=0 note=79 velocity=0 time=85
note_on channel=0 note=80 velocity=85 time=0
note_off channel=0 note=80 velocity=0 time=86
note_on channel=0 note=82 velocity=86 time=0
note_off channel=0 note=48 velocity=0 time=0
note_on channel=0 note=48 velocity=68 time=0
note_off channel=0 note=56 velocity=0 time=217
note_on channel=0 note=55 velocity=51 time=39
note_off channel=0 note=55 velocity=0 time=243
note_on channel=0 note=58 velocity=51 time=13
note_off channel=0 note=82 velocity=0 time=85
note_on channel=0 note=76 velocity=75 time=0
note_off channel=0 note=76 velocity=0 time=85
note_on channel=0 note=74 velocity=80 time=0
note_off channel=0 note=74 velocity=0 time=86
note_on channel=0 note=76 velocity=86 time=0
note_off channel=0 note=76 velocity=0 time=85
note_on channel=0 note=77 velocity=85 time=0
note_off channel=0 note=77 velocity=0 time=85
note_on channel=0 note=79 velocity=87 time=0
note_off channel=0 note=48 velocity=0 time=34
note_off channel=0 note=79 velocity=0 time=52
note_on channel=0 note=80 velocity=87 time=0
note_on channel=0 note=48 velocity=68 time=0
note_off channel=0 note=58 velocity=0 time=256
note_on channel=0 note=56 velocity=48 time=0
note_off channel=0 note=56 velocity=0 time=243
note_on channel=0 note=59 velocity=52 time=13
note_off channel=0 note=80 velocity=0 time=85
note_on channel=0 note=74 velocity=81 time=0
note_off channel=0 note=74 velocity=0 time=85
note_on channel=0 note=73 velocity=82 time=0
note_off channel=0 note=73 velocity=0 time=86
note_on channel=0 note=74 velocity=86 time=0
note_off channel=0 note=74 velocity=0 time=85
note_on channel=0 note=76 velocity=87 time=0
note_off channel=0 note=76 velocity=0 time=85
note_on channel=0 note=77 velocity=86 time=0
note_off channel=0 note=48 velocity=0 time=34
note_off channel=0 note=77 velocity=0 time=52
note_on channel=0 note=79 velocity=87 time=0
note_off channel=0 note=59 velocity=0 time=0
note_on channel=0 note=60 velocity=50 time=0
note_on channel=0 note=48 velocity=69 time=0
note_on channel=0 note=49 velocity=69 time=256
note_off channel=0 note=48 velocity=0 time=5
note_on channel=0 note=48 velocity=65 time=251
note_off channel=0 note=49 velocity=0 time=5
note_off channel=0 note=79 velocity=0 time=80
note_on channel=0 note=72 velocity=71 time=0
note_off channel=0 note=72 velocity=0 time=85
note_on channel=0 note=73 velocity=77 time=0
note_off channel=0 note=60 velocity=0 time=47
note_off channel=0 note=48 velocity=0 time=26
note_off channel=0 note=73 velocity=0 time=13
note_on channel=0 note=74 velocity=77 time=0
note_on channel=0 note=46 velocity=67 time=0
note_off channel=0 note=74 velocity=0 time=85
note_on channel=0 note=75 velocity=78 time=0
note_off channel=0 note=75 velocity=0 time=85
note_on channel=0 note=76 velocity=80 time=0
note_off channel=0 note=76 velocity=0 time=86
note_on channel=0 note=77 velocity=78 time=0
note_off channel=0 note=46 velocity=0 time=0
note_on channel=0 note=45 velocity=48 time=0
note_off channel=0 note=45 velocity=0 time=85
note_on channel=0 note=48 velocity=52 time=0
note_off channel=0 note=48 velocity=0 time=85
note_on channel=0 note=53 velocity=52 time=0
note_off channel=0 note=53 velocity=0 time=86
note_on channel=0 note=41 velocity=47 time=0
note_off channel=0 note=41 velocity=0 time=85
note_on channel=0 note=45 velocity=52 time=0
note_off channel=0 note=45 velocity=0 time=85
note_on channel=0 note=53 velocity=51 time=0
note_off channel=0 note=77 velocity=0 time=86
note_on channel=0 note=76 velocity=75 time=0
note_off channel=0 note=53 velocity=0 time=0
note_on channel=0 note=46 velocity=46 time=0
note_off channel=0 note=46 velocity=0 time=85
note_on channel=0 note=50 velocity=51 time=0
note_on channel=0 note=74 velocity=72 time=43
note_off channel=0 note=76 velocity=0 time=2
note_off channel=0 note=50 velocity=0 time=40
note_on channel=0 note=53 velocity=54 time=0
note_off channel=0 note=74 velocity=0 time=79
note_on channel=0 note=72 velocity=75 time=7
note_off channel=0 note=53 velocity=0 time=0
note_on channel=0 note=43 velocity=49 time=0
note_off channel=0 note=43 velocity=0 time=85
note_on channel=0 note=50 velocity=52 time=0
note_on channel=0 note=70 velocity=73 time=43
note_off channel=0 note=72 velocity=0 time=2
note_off channel=0 note=50 velocity=0 time=40
note_on channel=0 note=53 velocity=53 time=0
note_off channel=0 note=70 velocity=0 time=75
note_on channel=0 note=69 velocity=76 time=0
note_off channel=0 note=53 velocity=0 time=11
note_on channel=0 note=48 velocity=48 time=0
note_off channel=0 note=48 velocity=0 time=85
note_on channel=0 note=53 velocity=52 time=0
note_off channel=0 note=69 velocity=0 time=32
note_on channel=0 note=67 velocity=76 time=11
note_off channel=0 note=53 velocity=0 time=42
note_on channel=0 note=55 velocity=51 time=0
note_off channel=0 note=55 velocity=0 time=86
note_on channel=0 note=46 velocity=45 time=0
note_off channel=0 note=46 velocity=0 time=85
note_on channel=0 note=53 velocity=52 time=0
note_off channel=0 note=53 velocity=0 time=85
note_on channel=0 note=55 velocity=50 time=0
note_off channel=0 note=55 velocity=0 time=86
note_on channel=0 note=48 velocity=47 time=0
note_off channel=0 note=48 velocity=0 time=85
note_on channel=0 note=53 velocity=53 time=0
note_off channel=0 note=53 velocity=0 time=85
note_on channel=0 note=55 velocity=53 time=0
note_off channel=0 note=67 velocity=0 time=86
note_on channel=0 note=72 velocity=82 time=0
note_off channel=0 note=55 velocity=0 time=0
note_on channel=0 note=48 velocity=52 time=0
note_off channel=0 note=48 velocity=0 time=85
note_on channel=0 note=52 velocity=52 time=0
note_off channel=0 note=52 velocity=0 time=85
note_on channel=0 note=55 velocity=53 time=0
note_off channel=0 note=72 velocity=0 time=73
note_on channel=0 note=70 velocity=75 time=13
note_off channel=0 note=55 velocity=0 time=0
note_on channel=0 note=49 velocity=48 time=0
note_off channel=0 note=49 velocity=0 time=85
note_on channel=0 note=52 velocity=53 time=0
note_off channel=0 note=52 velocity=0 time=85
note_on channel=0 note=55 velocity=53 time=0
note_on channel=0 note=69 velocity=71 time=86
note_off channel=0 note=55 velocity=0 time=0
note_on channel=0 note=50 velocity=50 time=0
note_off channel=0 note=70 velocity=0 time=5
note_off channel=0 note=50 velocity=0 time=80
note_on channel=0 note=53 velocity=53 time=0
note_off channel=0 note=53 velocity=0 time=85
note_on channel=0 note=57 velocity=52 time=0
note_off channel=0 note=57 velocity=0 time=86
note_on channel=0 note=48 velocity=47 time=0
note_off channel=0 note=69 velocity=0 time=24
note_off channel=0 note=48 velocity=0 time=61
note_on channel=0 note=53 velocity=53 time=0
note_off channel=0 note=53 velocity=0 time=85
note_on channel=0 note=57 velocity=52 time=0
note_off channel=0 note=57 velocity=0 time=86
note_on channel=0 note=46 velocity=48 time=0
note_off channel=0 note=46 velocity=0 time=85
note_on channel=0 note=52 velocity=53 time=0
note_off channel=0 note=52 velocity=0 time=85
note_on channel=0 note=55 velocity=55 time=0
note_on channel=0 note=77 velocity=68 time=86
note_off channel=0 note=55 velocity=0 time=0
note_on channel=0 note=45 velocity=48 time=0
note_off channel=0 note=45 velocity=0 time=85
note_on channel=0 note=48 velocity=51 time=0
note_off channel=0 note=48 velocity=0 time=85
note_on channel=0 note=53 velocity=52 time=0
note_off channel=0 note=53 velocity=0 time=86
note_on channel=0 note=41 velocity=45 time=0
note_off channel=0 note=41 velocity=0 time=85
note_on channel=0 note=45 velocity=51 time=0
note_off channel=0 note=45 velocity=0 time=85
note_on channel=0 note=53 velocity=55 time=0
note_off channel=0 note=77 velocity=0 time=86
note_on channel=0 note=76 velocity=76 time=0
note_off channel=0 note=53 velocity=0 time=0
note_on channel=0 note=46 velocity=48 time=0
note_off channel=0 note=46 velocity=0 time=85
note_on channel=0 note=50 velocity=52 time=0
note_on channel=0 note=74 velocity=70 time=43
note_off channel=0 note=76 velocity=0 time=2
note_off channel=0 note=50 velocity=0 time=40
note_on channel=0 note=53 velocity=53 time=0
note_off channel=0 note=74 velocity=0 time=79
note_on channel=0 note=72 velocity=74 time=7
note_off channel=0 note=53 velocity=0 time=0
note_on channel=0 note=43 velocity=49 time=0
note_off channel=0 note=43 velocity=0 time=85
note_on channel=0 note=50 velocity=56 time=0
note_on channel=0 note=70 velocity=72 time=43
note_off channel=0 note=72 velocity=0 time=2
note_off channel=0 note=50 velocity=0 time=40
note_on channel=0 note=53 velocity=50 time=0
note_off channel=0 note=70 velocity=0 time=75
note_on channel=0 note=69 velocity=73 time=0
note_off channel=0 note=53 velocity=0 time=11
note_on channel=0 note=48 velocity=50 time=0
note_off channel=0 note=48 velocity=0 time=85
note_on channel=0 note=53 velocity=53 time=0
note_off channel=0 note=69 velocity=0 time=32
note_on channel=0 note=67 velocity=73 time=11
note_off channel=0 note=53 velocity=0 time=42
note_on channel=0 note=55 velocity=54 time=0
note_off channel=0 note=55 velocity=0 time=86
note_on channel=0 note=46 velocity=50 time=0
note_off channel=0 note=46 velocity=0 time=85
note_on channel=0 note=53 velocity=53 time=0
note_off channel=0 note=53 velocity=0 time=85
note_on channel=0 note=55 velocity=53 time=0
note_off channel=0 note=55 velocity=0 time=86
note_on channel=0 note=48 velocity=47 time=0
note_off channel=0 note=48 velocity=0 time=85
note_on channel=0 note=53 velocity=52 time=0
note_off channel=0 note=53 velocity=0 time=85
note_on channel=0 note=55 velocity=52 time=0
note_off channel=0 note=67 velocity=0 time=86
note_on channel=0 note=72 velocity=81 time=0
note_off channel=0 note=55 velocity=0 time=0
note_on channel=0 note=48 velocity=49 time=0
note_off channel=0 note=48 velocity=0 time=85
note_on channel=0 note=52 velocity=52 time=0
note_off channel=0 note=52 velocity=0 time=85
note_on channel=0 note=58 velocity=52 time=0
note_off channel=0 note=72 velocity=0 time=73
note_on channel=0 note=65 velocity=72 time=13
note_off channel=0 note=58 velocity=0 time=0
note_on channel=0 note=53 velocity=50 time=0
note_on channel=0 note=57 velocity=50 time=0
note_off channel=0 note=53 velocity=0 time=85
note_off channel=0 note=57 velocity=0 time=0
note_on channel=0 note=53 velocity=51 time=0
note_on channel=0 note=57 velocity=51 time=0
note_off channel=0 note=53 velocity=0 time=85
note_off channel=0 note=57 velocity=0 time=0
note_on channel=0 note=53 velocity=52 time=0
note_on channel=0 note=57 velocity=52 time=0
note_off channel=0 note=65 velocity=0 time=86
note_off channel=0 note=53 velocity=0 time=0
note_off channel=0 note=57 velocity=0 time=0
note_on channel=0 note=56 velocity=52 time=0
note_on channel=0 note=59 velocity=52 time=0
note_off channel=0 note=56 velocity=0 time=85
note_off channel=0 note=59 velocity=0 time=0
note_on channel=0 note=56 velocity=50 time=0
note_on channel=0 note=59 velocity=50 time=0
note_off channel=0 note=56 velocity=0 time=85
note_off channel=0 note=59 velocity=0 time=0
note_on channel=0 note=56 velocity=50 time=0
note_on channel=0 note=59 velocity=50 time=0
note_off channel=0 note=56 velocity=0 time=86
note_off channel=0 note=59 velocity=0 time=0
note_on channel=0 note=57 velocity=59 time=0
note_on channel=0 note=60 velocity=59 time=0
note_off channel=0 note=57 velocity=0 time=85
note_off channel=0 note=60 velocity=0 time=0
note_on channel=0 note=57 velocity=62 time=0
note_on channel=0 note=60 velocity=62 time=0
note_off channel=0 note=57 velocity=0 time=85
note_off channel=0 note=60 velocity=0 time=0
note_on channel=0 note=57 velocity=67 time=0
note_on channel=0 note=60 velocity=67 time=0
note_off channel=0 note=57 velocity=0 time=86
note_off channel=0 note=60 velocity=0 time=0
note_on channel=0 note=59 velocity=72 time=0
note_on channel=0 note=62 velocity=72 time=0
note_off channel=0 note=59 velocity=0 time=85
note_off channel=0 note=62 velocity=0 time=0
note_on channel=0 note=59 velocity=78 time=0
note_on channel=0 note=62 velocity=78 time=0
note_off channel=0 note=59 velocity=0 time=85
note_off channel=0 note=62 velocity=0 time=0
note_on channel=0 note=59 velocity=76 time=0
note_on channel=0 note=62 velocity=76 time=0
note_on channel=0 note=84 velocity=87 time=86
note_off channel=0 note=59 velocity=0 time=0
note_off channel=0 note=62 velocity=0 time=0
note_on channel=0 note=57 velocity=82 time=0
note_on channel=0 note=60 velocity=46 time=85
note_on channel=0 note=63 velocity=46 time=0
note_on channel=0 note=65 velocity=46 time=0
note_off channel=0 note=60 velocity=0 time=85
note_off channel=0 note=63 velocity=0 time=0
note_off channel=0 note=65 velocity=0 time=0
note_on channel=0 note=60 velocity=49 time=0
note_on channel=0 note=63 velocity=49 time=0
note_on channel=0 note=65 velocity=49 time=0
note_off channel=0 note=60 velocity=0 time=86
note_off channel=0 note=63 velocity=0 time=0
note_off channel=0 note=65 velocity=0 time=0
note_on channel=0 note=60 velocity=50 time=0
note_on channel=0 note=63 velocity=50 time=0
note_on channel=0 note=65 velocity=50 time=0
note_off channel=0 note=60 velocity=0 time=85
note_off channel=0 note=63 velocity=0 time=0
note_off channel=0 note=65 velocity=0 time=0
note_on channel=0 note=60 velocity=51 time=0
note_on channel=0 note=63 velocity=51 time=0
note_on channel=0 note=65 velocity=51 time=0
note_off channel=0 note=60 velocity=0 time=85
note_off channel=0 note=63 velocity=0 time=0
note_off channel=0 note=65 velocity=0 time=0
note_on channel=0 note=60 velocity=51 time=0
note_on channel=0 note=63 velocity=51 time=0
note_on channel=0 note=65 velocity=51 time=0
note_off channel=0 note=84 velocity=0 time=86
note_on channel=0 note=45 velocity=79 time=0
note_off channel=0 note=57 velocity=0 time=0
note_off channel=0 note=60 velocity=0 time=0
note_off channel=0 note=63 velocity=0 time=0
note_off channel=0 note=65 velocity=0 time=0
note_on channel=0 note=57 velocity=78 time=0
note_on channel=0 note=60 velocity=46 time=85
note_on channel=0 note=63 velocity=46 time=0
note_on channel=0 note=65 velocity=46 time=0
note_off channel=0 note=60 velocity=0 time=85
note_off channel=0 note=63 velocity=0 time=0
note_off channel=0 note=65 velocity=0 time=0
note_on channel=0 note=60 velocity=49 time=0
note_on channel=0 note=63 velocity=49 time=0
note_on channel=0 note=65 velocity=49 time=0
note_off channel=0 note=60 velocity=0 time=86
note_off channel=0 note=63 velocity=0 time=0
note_off channel=0 note=65 velocity=0 time=0
note_on channel=0 note=60 velocity=52 time=0
note_on channel=0 note=63 velocity=52 time=0
note_on channel=0 note=65 velocity=52 time=0
note_off channel=0 note=60 velocity=0 time=85
note_off channel=0 note=63 velocity=0 time=0
note_off channel=0 note=65 velocity=0 time=0
note_on channel=0 note=60 velocity=53 time=0
note_on channel=0 note=63 velocity=53 time=0
note_on channel=0 note=65 velocity=53 time=0
note_off channel=0 note=45 velocity=0 time=43
note_on channel=0 note=45 velocity=83 time=0
note_off channel=0 note=60 velocity=0 time=42
note_off channel=0 note=63 velocity=0 time=0
note_off channel=0 note=65 velocity=0 time=0
note_on channel=0 note=60 velocity=49 time=0
note_on channel=0 note=63 velocity=49 time=0
note_on channel=0 note=65 velocity=49 time=0
note_off channel=0 note=45 velocity=0 time=86
note_on channel=0 note=48 velocity=84 time=0
note_off channel=0 note=57 velocity=0 time=0
note_off channel=0 note=60 velocity=0 time=0
note_off channel=0 note=63 velocity=0 time=0
note_off channel=0 note=65 velocity=0 time=0
note_on channel=0 note=58 velocity=68 time=0
note_on channel=0 note=62 velocity=68 time=0
note_on channel=0 note=65 velocity=68 time=0
note_off channel=0 note=58 velocity=0 time=85
note_off channel=0 note=62 velocity=0 time=0
note_off channel=0 note=65 velocity=0 time=0
note_on channel=0 note=58 velocity=70 time=0
note_on channel=0 note=62 velocity=70 time=0
note_on channel=0 note=65 velocity=70 time=0
note_on channel=0 note=46 velocity=82 time=43
note_off channel=0 note=48 velocity=0 time=2
note_off channel=0 note=58 velocity=0 time=40
note_off channel=0 note=62 velocity=0 time=0
note_off channel=0 note=65 velocity=0 time=0
note_on channel=0 note=58 velocity=68 time=0
note_on channel=0 note=62 velocity=68 time=0
note_on channel=0 note=65 velocity=68 time=0
note_off channel=0 note=46 velocity=0 time=79
note_on channel=0 note=46 velocity=83 time=7
note_off channel=0 note=58 velocity=0 time=0
note_off channel=0 note=62 velocity=0 time=0
note_off channel=0 note=65 velocity=0 time=0
note_on channel=0 note=58 velocity=67 time=0
note_on channel=0 note=61 velocity=67 time=0
note_on channel=0 note=64 velocity=67 time=0
note_off channel=0 note=58 velocity=0 time=85
note_off channel=0 note=61 velocity=0 time=0
note_off channel=0 note=64 velocity=0 time=0
note_on channel=0 note=58 velocity=71 time=0
note_on channel=0 note=61 velocity=71 time=0
note_on channel=0 note=64 velocity=71 time=0
note_off channel=0 note=58 velocity=0 time=85
note_off channel=0 note=61 velocity=0 time=0
note_off channel=0 note=64 velocity=0 time=0
note_on channel=0 note=58 velocity=69 time=0
note_on channel=0 note=61 velocity=69 time=0
note_on channel=0 note=64 velocity=69 time=0
note_off channel=0 note=46 velocity=0 time=86
note_off channel=0 note=58 velocity=0 time=0
note_off channel=0 note=61 velocity=0 time=0
note_off channel=0 note=64 velocity=0 time=0
note_on channel=0 note=58 velocity=70 time=0
note_on channel=0 note=62 velocity=70 time=0
note_on channel=0 note=65 velocity=70 time=0
note_off channel=0 note=58 velocity=0 time=85
note_off channel=0 note=62 velocity=0 time=0
note_off channel=0 note=65 velocity=0 time=0
note_on channel=0 note=58 velocity=72 time=0
note_on channel=0 note=62 velocity=72 time=0
note_on channel=0 note=65 velocity=72 time=0
note_off channel=0 note=58 velocity=0 time=85
note_off channel=0 note=62 velocity=0 time=0
note_off channel=0 note=65 velocity=0 time=0
note_on channel=0 note=58 velocity=76 time=0
note_on channel=0 note=62 velocity=76 time=0
note_on channel=0 note=65 velocity=76 time=0
note_off channel=0 note=58 velocity=0 time=86
note_off channel=0 note=62 velocity=0 time=0
note_off channel=0 note=65 velocity=0 time=0
note_on channel=0 note=58 velocity=77 time=0
note_on channel=0 note=64 velocity=77 time=0
note_on channel=0 note=67 velocity=77 time=0
note_off channel=0 note=58 velocity=0 time=85
note_off channel=0 note=64 velocity=0 time=0
note_off channel=0 note=67 velocity=0 time=0
note_on channel=0 note=58 velocity=78 time=0
note_on channel=0 note=64 velocity=78 time=0
note_on channel=0 note=67 velocity=78 time=0
note_off channel=0 note=58 velocity=0 time=85
note_off channel=0 note=64 velocity=0 time=0
note_off channel=0 note=67 velocity=0 time=0
note_on channel=0 note=58 velocity=76 time=0
note_on channel=0 note=64 velocity=76 time=0
note_on channel=0 note=67 velocity=76 time=0
note_on channel=0 note=86 velocity=89 time=86
note_off channel=0 note=58 velocity=0 time=0
note_off channel=0 note=64 velocity=0 time=0
note_off channel=0 note=67 velocity=0 time=0
note_on channel=0 note=59 velocity=76 time=0
note_on channel=0 note=62 velocity=48 time=85
note_on channel=0 note=65 velocity=48 time=0
note_on channel=0 note=68 velocity=48 time=0
note_off channel=0 note=62 velocity=0 time=85
note_off channel=0 note=65 velocity=0 time=0
note_off channel=0 note=68 velocity=0 time=0
note_on channel=0 note=62 velocity=50 time=0
note_on channel=0 note=65 velocity=50 time=0
note_on channel=0 note=68 velocity=50 time=0
note_off channel=0 note=62 velocity=0 time=86
note_off channel=0 note=65 velocity=0 time=0
note_off channel=0 note=68 velocity=0 time=0
note_on channel=0 note=62 velocity=50 time=0
note_on channel=0 note=65 velocity=50 time=0
note_on channel=0 note=68 velocity=50 time=0
note_off channel=0 note=62 velocity=0 time=85
note_off channel=0 note=65 velocity=0 time=0
note_off channel=0 note=68 velocity=0 time=0
note_on channel=0 note=62 velocity=52 time=0
note_on channel=0 note=65 velocity=52 time=0
note_on channel=0 note=68 velocity=52 time=0
note_off channel=0 note=62 velocity=0 time=85
note_off channel=0 note=65 velocity=0 time=0
note_off channel=0 note=68 velocity=0 time=0
note_on channel=0 note=62 velocity=53 time=0
note_on channel=0 note=65 velocity=53 time=0
note_on channel=0 note=68 velocity=53 time=0
note_off channel=0 note=86 velocity=0 time=86
note_on channel=0 note=47 velocity=77 time=0
note_off channel=0 note=59 velocity=0 time=0
note_off channel=0 note=62 velocity=0 time=0
note_off channel=0 note=65 velocity=0 time=0
note_off channel=0 note=68 velocity=0 time=0
note_on channel=0 note=59 velocity=75 time=0
note_on channel=0 note=62 velocity=48 time=85
note_on channel=0 note=65 velocity=48 time=0
note_on channel=0 note=68 velocity=48 time=0
note_off channel=0 note=62 velocity=0 time=85
note_off channel=0 note=65 velocity=0 time=0
note_off channel=0 note=68 velocity=0 time=0
note_on channel=0 note=62 velocity=50 time=0
note_on channel=0 note=65 velocity=50 time=0
note_on channel=0 note=68 velocity=50 time=0
note_off channel=0 note=62 velocity=0 time=86
note_off channel=0 note=65 velocity=0 time=0
note_off channel=0 note=68 velocity=0 time=0
note_on channel=0 note=62 velocity=50 time=0
note_on channel=0 note=65 velocity=50 time=0
note_on channel=0 note=68 velocity=50 time=0
note_off channel=0 note=62 velocity=0 time=85
note_off channel=0 note=65 velocity=0 time=0
note_off channel=0 note=68 velocity=0 time=0
note_on channel=0 note=62 velocity=50 time=0
note_on channel=0 note=65 velocity=50 time=0
note_on channel=0 note=68 velocity=50 time=0
note_off channel=0 note=47 velocity=0 time=43
note_on channel=0 note=47 velocity=84 time=0
note_off channel=0 note=62 velocity=0 time=42
note_off channel=0 note=65 velocity=0 time=0
note_off channel=0 note=68 velocity=0 time=0
note_on channel=0 note=62 velocity=54 time=0
note_on channel=0 note=65 velocity=54 time=0
note_on channel=0 note=68 velocity=54 time=0
note_off channel=0 note=47 velocity=0 time=86
note_on channel=0 note=48 velocity=84 time=0
note_off channel=0 note=59 velocity=0 time=0
note_off channel=0 note=62 velocity=0 time=0
note_off channel=0 note=65 velocity=0 time=0
note_off channel=0 note=68 velocity=0 time=0
note_on channel=0 note=60 velocity=76 time=0
note_on channel=0 note=65 velocity=46 time=85
note_on channel=0 note=69 velocity=46 time=0
note_off channel=0 note=65 velocity=0 time=85
note_off channel=0 note=69 velocity=0 time=0
note_on channel=0 note=65 velocity=50 time=0
note_on channel=0 note=69 velocity=50 time=0
note_off channel=0 note=48 velocity=0 time=86
note_on channel=0 note=89 velocity=113 time=0
note_off channel=0 note=65 velocity=0 time=0
note_off channel=0 note=69 velocity=0 time=0
note_on channel=0 note=65 velocity=50 time=0
note_on channel=0 note=69 velocity=50 time=0
note_off channel=0 note=65 velocity=0 time=85
note_off channel=0 note=69 velocity=0 time=0
note_on channel=0 note=65 velocity=51 time=0
note_on channel=0 note=69 velocity=51 time=0
note_off channel=0 note=65 velocity=0 time=85
note_off channel=0 note=69 velocity=0 time=0
note_on channel=0 note=65 velocity=51 time=0
note_on channel=0 note=69 velocity=51 time=0
note_off channel=0 note=60 velocity=0 time=86
note_off channel=0 note=65 velocity=0 time=0
note_off channel=0 note=69 velocity=0 time=0
note_on channel=0 note=60 velocity=80 time=0
note_on channel=0 note=65 velocity=47 time=85
note_on channel=0 note=69 velocity=47 time=0
note_off channel=0 note=89 velocity=0 time=43
note_on channel=0 note=84 velocity=94 time=0
note_off channel=0 note=65 velocity=0 time=42
note_off channel=0 note=69 velocity=0 time=0
note_on channel=0 note=65 velocity=51 time=0
note_on channel=0 note=69 velocity=51 time=0
note_off channel=0 note=84 velocity=0 time=86
note_on channel=0 note=81 velocity=91 time=0
note_off channel=0 note=65 velocity=0 time=0
note_off channel=0 note=69 velocity=0 time=0
note_on channel=0 note=65 velocity=51 time=0
note_on channel=0 note=69 velocity=51 time=0
note_off channel=0 note=65 velocity=0 time=85
note_off channel=0 note=69 velocity=0 time=0
note_on channel=0 note=65 velocity=51 time=0
note_on channel=0 note=69 velocity=51 time=0
note_off channel=0 note=81 velocity=0 time=43
note_on channel=0 note=77 velocity=93 time=0
note_off channel=0 note=65 velocity=0 time=42
note_off channel=0 note=69 velocity=0 time=0
note_on channel=0 note=65 velocity=49 time=0
note_on channel=0 note=69 velocity=49 time=0
note_off channel=0 note=77 velocity=0 time=86
note_on channel=0 note=76 velocity=95 time=0
note_off channel=0 note=60 velocity=0 time=0
note_off channel=0 note=65 velocity=0 time=0
note_off channel=0 note=69 velocity=0 time=0
note_on channel=0 note=60 velocity=74 time=0
note_off channel=0 note=76 velocity=0 time=19
note_on channel=0 note=77 velocity=95 time=5
note_off channel=0 note=77 velocity=0 time=19
note_on channel=0 note=76 velocity=95 time=5
note_off channel=0 note=76 velocity=0 time=19
note_on channel=0 note=77 velocity=95 time=5
note_on channel=0 note=67 velocity=46 time=13
note_on channel=0 note=70 velocity=46 time=0
note_off channel=0 note=77 velocity=0 time=6
note_on channel=0 note=76 velocity=95 time=4
note_off channel=0 note=76 velocity=0 time=18
note_on channel=0 note=77 velocity=95 time=5
note_off channel=0 note=77 velocity=0 time=18
note_on channel=0 note=76 velocity=95 time=5
note_off channel=0 note=76 velocity=0 time=18
note_on channel=0 note=77 velocity=95 time=5
note_off channel=0 note=67 velocity=0 time=6
note_off channel=0 note=70 velocity=0 time=0
note_on channel=0 note=67 velocity=48 time=0
note_on channel=0 note=70 velocity=48 time=0
note_off channel=0 note=77 velocity=0 time=12
note_on channel=0 note=76 velocity=95 time=4
note_off channel=0 note=76 velocity=0 time=17
note_on channel=0 note=77 velocity=95 time=5
note_off channel=0 note=77 velocity=0 time=17
note_on channel=0 note=76 velocity=95 time=5
note_off channel=0 note=76 velocity=0 time=17
note_on channel=0 note=77 velocity=95 time=5
note_off channel=0 note=67 velocity=0 time=4
note_off channel=0 note=70 velocity=0 time=0
note_on channel=0 note=67 velocity=53 time=0
note_on channel=0 note=70 velocity=53 time=0
note_off channel=0 note=77 velocity=0 time=13
note_on channel=0 note=76 velocity=95 time=4
note_off channel=0 note=76 velocity=0 time=16
note_on channel=0 note=77 velocity=95 time=5
note_off channel=0 note=77 velocity=0 time=16
note_on channel=0 note=76 velocity=95 time=5
note_off channel=0 note=76 velocity=0 time=16
note_on channel=0 note=77 velocity=95 time=5
note_off channel=0 note=67 velocity=0 time=5
note_off channel=0 note=70 velocity=0 time=0
note_on channel=0 note=67 velocity=50 time=0
note_on channel=0 note=70 velocity=50 time=0
note_off channel=0 note=77 velocity=0 time=11
note_on channel=0 note=76 velocity=95 time=6
note_off channel=0 note=76 velocity=0 time=17
note_on channel=0 note=77 velocity=95 time=5
note_off channel=0 note=77 velocity=0 time=17
note_on channel=0 note=76 velocity=95 time=5
note_off channel=0 note=76 velocity=0 time=17
note_on channel=0 note=77 velocity=95 time=5
note_off channel=0 note=67 velocity=0 time=2
note_off channel=0 note=70 velocity=0 time=0
note_on channel=0 note=67 velocity=49 time=0
note_on channel=0 note=70 velocity=49 time=0
note_off channel=0 note=77 velocity=0 time=15
note_on channel=0 note=76 velocity=95 time=6
note_off channel=0 note=76 velocity=0 time=18
note_on channel=0 note=77 velocity=95 time=5
note_off channel=0 note=77 velocity=0 time=18
note_on channel=0 note=76 velocity=95 time=5
note_off channel=0 note=76 velocity=0 time=18
note_on channel=0 note=79 velocity=101 time=1
note_off channel=0 note=60 velocity=0 time=0
note_off channel=0 note=67 velocity=0 time=0
note_off channel=0 note=70 velocity=0 time=0
note_on channel=0 note=60 velocity=76 time=0
note_off channel=0 note=79 velocity=0 time=17
note_on channel=0 note=81 velocity=101 time=5
note_off channel=0 note=81 velocity=0 time=17
note_on channel=0 note=79 velocity=101 time=5
note_off channel=0 note=79 velocity=0 time=17
note_on channel=0 note=81 velocity=101 time=4
note_off channel=0 note=81 velocity=0 time=16
note_on channel=0 note=64 velocity=45 time=4
note_on channel=0 note=70 velocity=45 time=0
note_on channel=0 note=79 velocity=101 time=1
note_off channel=0 note=79 velocity=0 time=16
note_on channel=0 note=81 velocity=101 time=5
note_off channel=0 note=81 velocity=0 time=16
note_on channel=0 note=79 velocity=101 time=4
note_off channel=0 note=79 velocity=0 time=16
note_on channel=0 note=81 velocity=101 time=4
note_off channel=0 note=81 velocity=0 time=16
note_on channel=0 note=79 velocity=101 time=4
note_off channel=0 note=64 velocity=0 time=3
note_off channel=0 note=70 velocity=0 time=0
note_on channel=0 note=64 velocity=52 time=0
note_on channel=0 note=70 velocity=52 time=0
note_off channel=0 note=79 velocity=0 time=13
note_on channel=0 note=81 velocity=101 time=4
note_off channel=0 note=81 velocity=0 time=16
note_on channel=0 note=79 velocity=101 time=3
note_off channel=0 note=79 velocity=0 time=15
note_on channel=0 note=81 velocity=101 time=4
note_off channel=0 note=81 velocity=0 time=15
note_on channel=0 note=79 velocity=101 time=4
note_off channel=0 note=64 velocity=0 time=12
note_off channel=0 note=70 velocity=0 time=0
note_on channel=0 note=64 velocity=51 time=0
note_on channel=0 note=70 velocity=51 time=0
note_off channel=0 note=79 velocity=0 time=3
note_on channel=0 note=81 velocity=101 time=5
note_off channel=0 note=81 velocity=0 time=16
note_on channel=0 note=79 velocity=101 time=4
note_off channel=0 note=79 velocity=0 time=16
note_on channel=0 note=81 velocity=101 time=4
note_off channel=0 note=81 velocity=0 time=16
note_on channel=0 note=79 velocity=101 time=5
note_off channel=0 note=79 velocity=0 time=16
note_off channel=0 note=64 velocity=0 time=0
note_off channel=0 note=70 velocity=0 time=0
note_on channel=0 note=64 velocity=52 time=0
note_on channel=0 note=70 velocity=52 time=0
note_on channel=0 note=81 velocity=101 time=5
note_off channel=0 note=81 velocity=0 time=16
note_on channel=0 note=79 velocity=101 time=5
note_off channel=0 note=79 velocity=0 time=16
note_on channel=0 note=77 velocity=89 time=1
note_off channel=0 note=64 velocity=0 time=42
note_off channel=0 note=70 velocity=0 time=0
note_on channel=0 note=64 velocity=55 time=0
note_on channel=0 note=70 velocity=55 time=0
note_off channel=0 note=77 velocity=0 time=22
note_on channel=0 note=79 velocity=99 time=0
note_off channel=0 note=79 velocity=0 time=64
note_on channel=0 note=77 velocity=95 time=0
note_off channel=0 note=60 velocity=0 time=0
note_off channel=0 note=64 velocity=0 time=0
note_off channel=0 note=70 velocity=0 time=0
note_on channel=0 note=65 velocity=47 time=0
note_on channel=0 note=69 velocity=47 time=0
note_on channel=0 note=60 velocity=46 time=85
note_off channel=0 note=60 velocity=0 time=85
note_on channel=0 note=60 velocity=49 time=0
note_off channel=0 note=77 velocity=0 time=86
note_off channel=0 note=65 velocity=0 time=0
note_off channel=0 note=69 velocity=0 time=0
note_off channel=0 note=60 velocity=0 time=0
note_on channel=0 note=60 velocity=52 time=0
note_off channel=0 note=60 velocity=0 time=85
note_on channel=0 note=60 velocity=50 time=0
note_off channel=0 note=60 velocity=0 time=85
note_on channel=0 note=60 velocity=51 time=0
note_off channel=0 note=60 velocity=0 time=86
note_on channel=0 note=60 velocity=51 time=0
note_off channel=0 note=60 velocity=0 time=85
note_on channel=0 note=60 velocity=49 time=0
note_off channel=0 note=60 velocity=0 time=85
note_on channel=0 note=60 velocity=52 time=0
note_on channel=0 note=81 velocity=75 time=86
note_off channel=0 note=60 velocity=0 time=0
note_on channel=0 note=60 velocity=52 time=0
note_off channel=0 note=60 velocity=0 time=85
note_on channel=0 note=60 velocity=51 time=0
note_off channel=0 note=60 velocity=0 time=85
note_on channel=0 note=60 velocity=50 time=0
note_on channel=0 note=77 velocity=73 time=22
note_off channel=0 note=81 velocity=0 time=3
note_off channel=0 note=77 velocity=0 time=57
note_on channel=0 note=84 velocity=88 time=4
note_off channel=0 note=60 velocity=0 time=0
note_on channel=0 note=60 velocity=47 time=0
note_on channel=0 note=48 velocity=47 time=0
note_off channel=0 note=60 velocity=0 time=85
note_on channel=0 note=60 velocity=53 time=0
note_off channel=0 note=48 velocity=0 time=43
note_off channel=0 note=60 velocity=0 time=42
note_on channel=0 note=60 velocity=52 time=0
note_off channel=0 note=84 velocity=0 time=86
note_on channel=0 note=84 velocity=85 time=0
note_off channel=0 note=60 velocity=0 time=0
note_on channel=0 note=60 velocity=50 time=0
note_on channel=0 note=52 velocity=48 time=0
note_off channel=0 note=60 velocity=0 time=85
note_on channel=0 note=60 velocity=53 time=0
note_off channel=0 note=52 velocity=0 time=43
note_off channel=0 note=60 velocity=0 time=42
note_on channel=0 note=60 velocity=49 time=0
note_off channel=0 note=84 velocity=0 time=86
note_on channel=0 note=84 velocity=84 time=0
note_off channel=0 note=60 velocity=0 time=0
note_on channel=0 note=60 velocity=51 time=0
note_on channel=0 note=55 velocity=46 time=0
note_off channel=0 note=60 velocity=0 time=85
note_on channel=0 note=60 velocity=52 time=0
note_off channel=0 note=55 velocity=0 time=43
note_off channel=0 note=60 velocity=0 time=42
note_on channel=0 note=60 velocity=51 time=0
note_off channel=0 note=84 velocity=0 time=86
note_on channel=0 note=84 velocity=85 time=0
note_off channel=0 note=60 velocity=0 time=0
note_on channel=0 note=60 velocity=50 time=0
note_on channel=0 note=48 velocity=45 time=0
note_off channel=0 note=60 velocity=0 time=85
note_on channel=0 note=60 velocity=49 time=0
note_off channel=0 note=48 velocity=0 time=43
note_off channel=0 note=60 velocity=0 time=42
note_on channel=0 note=60 velocity=51 time=0
note_off channel=0 note=84 velocity=0 time=86
note_on channel=0 note=84 velocity=83 time=0
note_off channel=0 note=60 velocity=0 time=0
note_on channel=0 note=60 velocity=50 time=0
note_on channel=0 note=53 velocity=45 time=0
note_off channel=0 note=60 velocity=0 time=85
note_on channel=0 note=60 velocity=48 time=0
note_off channel=0 note=53 velocity=0 time=43
note_off channel=0 note=60 velocity=0 time=42
note_on channel=0 note=60 velocity=50 time=0
note_on channel=0 note=89 velocity=87 time=86
note_off channel=0 note=60 velocity=0 time=0
note_on channel=0 note=60 velocity=50 time=0
note_on channel=0 note=57 velocity=45 time=0
note_off channel=0 note=84 velocity=0 time=5
note_off channel=0 note=60 velocity=0 time=80
note_on channel=0 note=60 velocity=51 time=0
note_off channel=0 note=57 velocity=0 time=43
note_off channel=0 note=60 velocity=0 time=42
note_on channel=0 note=60 velocity=51 time=0
note_off channel=0 note=89 velocity=0 time=73
note_off channel=0 note=60 velocity=0 time=13
note_on channel=0 note=60 velocity=49 time=0
note_on channel=0 note=48 velocity=47 time=0
note_off channel=0 note=60 velocity=0 time=85
note_on channel=0 note=60 velocity=50 time=0
note_off channel=0 note=48 velocity=0 time=43
note_off channel=0 note=60 velocity=0 time=42
note_on channel=0 note=60 velocity=50 time=0
note_on channel=0 note=81 velocity=75 time=86
note_off channel=0 note=60 velocity=0 time=0
note_on channel=0 note=60 velocity=50 time=0
note_off channel=0 note=60 velocity=0 time=85
note_on channel=0 note=60 velocity=49 time=0
note_off channel=0 note=60 velocity=0 time=85
note_on channel=0 note=60 velocity=51 time=0
note_on channel=0 note=77 velocity=71 time=22
note_off channel=0 note=81 velocity=0 time=3
note_off channel=0 note=77 velocity=0 time=57
note_on channel=0 note=84 velocity=89 time=4
note_off channel=0 note=60 velocity=0 time=0
note_on channel=0 note=60 velocity=50 time=0
note_on channel=0 note=48 velocity=47 time=0
note_off channel=0 note=60 velocity=0 time=85
note_on channel=0 note=60 velocity=51 time=0
note_off channel=0 note=48 velocity=0 time=43
note_off channel=0 note=60 velocity=0 time=42
note_on channel=0 note=60 velocity=51 time=0
note_off channel=0 note=84 velocity=0 time=86
note_on channel=0 note=84 velocity=84 time=0
note_off channel=0 note=60 velocity=0 time=0
note_on channel=0 note=60 velocity=51 time=0
note_on channel=0 note=52 velocity=47 time=0
note_off channel=0 note=60 velocity=0 time=85
note_on channel=0 note=60 velocity=51 time=0
note_off channel=0 note=52 velocity=0 time=43
note_off channel=0 note=60 velocity=0 time=42
note_on channel=0 note=60 velocity=52 time=0
note_off channel=0 note=84 velocity=0 time=86
note_on channel=0 note=84 velocity=82 time=0
note_off channel=0 note=60 velocity=0 time=0
note_on channel=0 note=60 velocity=49 time=0
note_on channel=0 note=55 velocity=44 time=0
note_off channel=0 note=60 velocity=0 time=85
note_on channel=0 note=60 velocity=49 time=0
note_off channel=0 note=55 velocity=0 time=43
note_off channel=0 note=60 velocity=0 time=42
note_on channel=0 note=60 velocity=51 time=0
note_off channel=0 note=60 velocity=0 time=86
note_on channel=0 note=60 velocity=52 time=0
note_on channel=0 note=48 velocity=45 time=0
note_off channel=0 note=60 velocity=0 time=85
note_on channel=0 note=60 velocity=51 time=0
note_on channel=0 note=82 velocity=79 time=43
note_off channel=0 note=48 velocity=0 time=0
note_off channel=0 note=84 velocity=0 time=7
note_off channel=0 note=82 velocity=0 time=35
note_on channel=0 note=81 velocity=79 time=0
note_off channel=0 note=60 velocity=0 time=0
note_on channel=0 note=60 velocity=51 time=0
note_off channel=0 note=81 velocity=0 time=43
note_on channel=0 note=79 velocity=81 time=0
note_off channel=0 note=79 velocity=0 time=40
note_on channel=0 note=77 velocity=83 time=3
note_off channel=0 note=60 velocity=0 time=0
note_on channel=0 note=53 velocity=48 time=0
note_on channel=0 note=60 velocity=48 time=0
note_off channel=0 note=53 velocity=0 time=85
note_off channel=0 note=60 velocity=0 time=0
note_on channel=0 note=60 velocity=55 time=0
note_on channel=0 note=65 velocity=55 time=0
note_off channel=0 note=60 velocity=0 time=85
note_off channel=0 note=65 velocity=0 time=0
note_on channel=0 note=60 velocity=52 time=0
note_on channel=0 note=65 velocity=52 time=0
note_off channel=0 note=60 velocity=0 time=86
note_off channel=0 note=65 velocity=0 time=0
note_on channel=0 note=60 velocity=49 time=0
note_on channel=0 note=65 velocity=49 time=0
note_off channel=0 note=60 velocity=0 time=85
note_off channel=0 note=65 velocity=0 time=0
note_on channel=0 note=57 velocity=46 time=0
note_on channel=0 note=60 velocity=46 time=0
note_off channel=0 note=77 velocity=0 time=9
note_off channel=0 note=57 velocity=0 time=76
note_off channel=0 note=60 velocity=0 time=0
note_on channel=0 note=57 velocity=52 time=0
note_on channel=0 note=60 velocity=52 time=0
note_on channel=0 note=72 velocity=74 time=86
note_on channel=0 note=84 velocity=74 time=0
note_off channel=0 note=57 velocity=0 time=0
note_off channel=0 note=60 velocity=0 time=0
note_on channel=0 note=57 velocity=51 time=0
note_on channel=0 note=60 velocity=51 time=0
note_off channel=0 note=57 velocity=0 time=85
note_off channel=0 note=60 velocity=0 time=0
note_on channel=0 note=53 velocity=50 time=0
note_on channel=0 note=57 velocity=50 time=0
note_off channel=0 note=53 velocity=0 time=85
note_off channel=0 note=57 velocity=0 time=0
note_on channel=0 note=53 velocity=52 time=0
note_on channel=0 note=57 velocity=52 time=0
note_off channel=0 note=53 velocity=0 time=86
note_off channel=0 note=57 velocity=0 time=0
note_on channel=0 note=53 velocity=50 time=0
note_on channel=0 note=57 velocity=50 time=0
note_off channel=0 note=53 velocity=0 time=85
note_off channel=0 note=57 velocity=0 time=0
note_on channel=0 note=53 velocity=51 time=0
note_on channel=0 note=57 velocity=51 time=0
note_off channel=0 note=72 velocity=0 time=9
note_off channel=0 note=84 velocity=0 time=0
note_off channel=0 note=53 velocity=0 time=76
note_off channel=0 note=57 velocity=0 time=0
note_on channel=0 note=53 velocity=50 time=0
note_on channel=0 note=57 velocity=50 time=0
note_on channel=0 note=77 velocity=76 time=86
note_on channel=0 note=89 velocity=76 time=0
note_off channel=0 note=53 velocity=0 time=0
note_off channel=0 note=57 velocity=0 time=0
note_on channel=0 note=41 velocity=52 time=0
note_on channel=0 note=53 velocity=52 time=0
note_off channel=0 note=77 velocity=0 time=256
note_off channel=0 note=89 velocity=0 time=0
note_off channel=0 note=41 velocity=0 time=0
note_off channel=0 note=53 velocity=0 time=0
<meta message end_of_track time=1>

